%TF.GenerationSoftware,KiCad,Pcbnew,10.0.5-10.0.5~ubuntu22.04.1*%
%TF.CreationDate,2026-08-01T17:21:11+02:00*%
%TF.ProjectId,swirski-terminal-v1-pcb,73776972-736b-4692-9d74-65726d696e61,rev?*%
%TF.SameCoordinates,Original*%
%TF.FileFunction,Legend,Top*%
%TF.FilePolarity,Positive*%
%FSLAX46Y46*%
G04 Gerber Fmt 4.6, Leading zero omitted, Abs format (unit mm)*
G04 Created by KiCad (PCBNEW 10.0.5-10.0.5~ubuntu22.04.1) date 2026-08-01 17:21:11*
%MOMM*%
%LPD*%
G01*
G04 APERTURE LIST*
%ADD10C,0.150000*%
%ADD11C,0.120000*%
G04 APERTURE END LIST*
D10*
X190208095Y-30254819D02*
X190208095Y-31064342D01*
X190208095Y-31064342D02*
X190255714Y-31159580D01*
X190255714Y-31159580D02*
X190303333Y-31207200D01*
X190303333Y-31207200D02*
X190398571Y-31254819D01*
X190398571Y-31254819D02*
X190589047Y-31254819D01*
X190589047Y-31254819D02*
X190684285Y-31207200D01*
X190684285Y-31207200D02*
X190731904Y-31159580D01*
X190731904Y-31159580D02*
X190779523Y-31064342D01*
X190779523Y-31064342D02*
X190779523Y-30254819D01*
X191731904Y-30254819D02*
X191255714Y-30254819D01*
X191255714Y-30254819D02*
X191208095Y-30731009D01*
X191208095Y-30731009D02*
X191255714Y-30683390D01*
X191255714Y-30683390D02*
X191350952Y-30635771D01*
X191350952Y-30635771D02*
X191589047Y-30635771D01*
X191589047Y-30635771D02*
X191684285Y-30683390D01*
X191684285Y-30683390D02*
X191731904Y-30731009D01*
X191731904Y-30731009D02*
X191779523Y-30826247D01*
X191779523Y-30826247D02*
X191779523Y-31064342D01*
X191779523Y-31064342D02*
X191731904Y-31159580D01*
X191731904Y-31159580D02*
X191684285Y-31207200D01*
X191684285Y-31207200D02*
X191589047Y-31254819D01*
X191589047Y-31254819D02*
X191350952Y-31254819D01*
X191350952Y-31254819D02*
X191255714Y-31207200D01*
X191255714Y-31207200D02*
X191208095Y-31159580D01*
X202416667Y-79907200D02*
X202559524Y-79954819D01*
X202559524Y-79954819D02*
X202797619Y-79954819D01*
X202797619Y-79954819D02*
X202892857Y-79907200D01*
X202892857Y-79907200D02*
X202940476Y-79859580D01*
X202940476Y-79859580D02*
X202988095Y-79764342D01*
X202988095Y-79764342D02*
X202988095Y-79669104D01*
X202988095Y-79669104D02*
X202940476Y-79573866D01*
X202940476Y-79573866D02*
X202892857Y-79526247D01*
X202892857Y-79526247D02*
X202797619Y-79478628D01*
X202797619Y-79478628D02*
X202607143Y-79431009D01*
X202607143Y-79431009D02*
X202511905Y-79383390D01*
X202511905Y-79383390D02*
X202464286Y-79335771D01*
X202464286Y-79335771D02*
X202416667Y-79240533D01*
X202416667Y-79240533D02*
X202416667Y-79145295D01*
X202416667Y-79145295D02*
X202464286Y-79050057D01*
X202464286Y-79050057D02*
X202511905Y-79002438D01*
X202511905Y-79002438D02*
X202607143Y-78954819D01*
X202607143Y-78954819D02*
X202845238Y-78954819D01*
X202845238Y-78954819D02*
X202988095Y-79002438D01*
X203321429Y-78954819D02*
X203559524Y-79954819D01*
X203559524Y-79954819D02*
X203750000Y-79240533D01*
X203750000Y-79240533D02*
X203940476Y-79954819D01*
X203940476Y-79954819D02*
X204178572Y-78954819D01*
X204464286Y-78954819D02*
X205083333Y-78954819D01*
X205083333Y-78954819D02*
X204750000Y-79335771D01*
X204750000Y-79335771D02*
X204892857Y-79335771D01*
X204892857Y-79335771D02*
X204988095Y-79383390D01*
X204988095Y-79383390D02*
X205035714Y-79431009D01*
X205035714Y-79431009D02*
X205083333Y-79526247D01*
X205083333Y-79526247D02*
X205083333Y-79764342D01*
X205083333Y-79764342D02*
X205035714Y-79859580D01*
X205035714Y-79859580D02*
X204988095Y-79907200D01*
X204988095Y-79907200D02*
X204892857Y-79954819D01*
X204892857Y-79954819D02*
X204607143Y-79954819D01*
X204607143Y-79954819D02*
X204511905Y-79907200D01*
X204511905Y-79907200D02*
X204464286Y-79859580D01*
X255916667Y-80407200D02*
X256059524Y-80454819D01*
X256059524Y-80454819D02*
X256297619Y-80454819D01*
X256297619Y-80454819D02*
X256392857Y-80407200D01*
X256392857Y-80407200D02*
X256440476Y-80359580D01*
X256440476Y-80359580D02*
X256488095Y-80264342D01*
X256488095Y-80264342D02*
X256488095Y-80169104D01*
X256488095Y-80169104D02*
X256440476Y-80073866D01*
X256440476Y-80073866D02*
X256392857Y-80026247D01*
X256392857Y-80026247D02*
X256297619Y-79978628D01*
X256297619Y-79978628D02*
X256107143Y-79931009D01*
X256107143Y-79931009D02*
X256011905Y-79883390D01*
X256011905Y-79883390D02*
X255964286Y-79835771D01*
X255964286Y-79835771D02*
X255916667Y-79740533D01*
X255916667Y-79740533D02*
X255916667Y-79645295D01*
X255916667Y-79645295D02*
X255964286Y-79550057D01*
X255964286Y-79550057D02*
X256011905Y-79502438D01*
X256011905Y-79502438D02*
X256107143Y-79454819D01*
X256107143Y-79454819D02*
X256345238Y-79454819D01*
X256345238Y-79454819D02*
X256488095Y-79502438D01*
X256821429Y-79454819D02*
X257059524Y-80454819D01*
X257059524Y-80454819D02*
X257250000Y-79740533D01*
X257250000Y-79740533D02*
X257440476Y-80454819D01*
X257440476Y-80454819D02*
X257678572Y-79454819D01*
X258011905Y-79550057D02*
X258059524Y-79502438D01*
X258059524Y-79502438D02*
X258154762Y-79454819D01*
X258154762Y-79454819D02*
X258392857Y-79454819D01*
X258392857Y-79454819D02*
X258488095Y-79502438D01*
X258488095Y-79502438D02*
X258535714Y-79550057D01*
X258535714Y-79550057D02*
X258583333Y-79645295D01*
X258583333Y-79645295D02*
X258583333Y-79740533D01*
X258583333Y-79740533D02*
X258535714Y-79883390D01*
X258535714Y-79883390D02*
X257964286Y-80454819D01*
X257964286Y-80454819D02*
X258583333Y-80454819D01*
X225466667Y-77707200D02*
X225609524Y-77754819D01*
X225609524Y-77754819D02*
X225847619Y-77754819D01*
X225847619Y-77754819D02*
X225942857Y-77707200D01*
X225942857Y-77707200D02*
X225990476Y-77659580D01*
X225990476Y-77659580D02*
X226038095Y-77564342D01*
X226038095Y-77564342D02*
X226038095Y-77469104D01*
X226038095Y-77469104D02*
X225990476Y-77373866D01*
X225990476Y-77373866D02*
X225942857Y-77326247D01*
X225942857Y-77326247D02*
X225847619Y-77278628D01*
X225847619Y-77278628D02*
X225657143Y-77231009D01*
X225657143Y-77231009D02*
X225561905Y-77183390D01*
X225561905Y-77183390D02*
X225514286Y-77135771D01*
X225514286Y-77135771D02*
X225466667Y-77040533D01*
X225466667Y-77040533D02*
X225466667Y-76945295D01*
X225466667Y-76945295D02*
X225514286Y-76850057D01*
X225514286Y-76850057D02*
X225561905Y-76802438D01*
X225561905Y-76802438D02*
X225657143Y-76754819D01*
X225657143Y-76754819D02*
X225895238Y-76754819D01*
X225895238Y-76754819D02*
X226038095Y-76802438D01*
X226371429Y-76754819D02*
X226609524Y-77754819D01*
X226609524Y-77754819D02*
X226800000Y-77040533D01*
X226800000Y-77040533D02*
X226990476Y-77754819D01*
X226990476Y-77754819D02*
X227228572Y-76754819D01*
X228133333Y-77754819D02*
X227561905Y-77754819D01*
X227847619Y-77754819D02*
X227847619Y-76754819D01*
X227847619Y-76754819D02*
X227752381Y-76897676D01*
X227752381Y-76897676D02*
X227657143Y-76992914D01*
X227657143Y-76992914D02*
X227561905Y-77040533D01*
%TO.C,U5*%
D11*
X189640000Y-67480000D02*
X192300000Y-67480000D01*
X189640000Y-34400000D02*
X192300000Y-34400000D01*
X189640000Y-33130000D02*
X189640000Y-31800000D01*
X189640000Y-31800000D02*
X190970000Y-31800000D01*
X192300000Y-34400000D02*
X192300000Y-67480000D01*
X189640000Y-34400000D02*
X189640000Y-67480000D01*
X188430000Y-24240000D02*
X274790000Y-24240000D01*
X274790000Y-75040000D01*
X188430000Y-75040000D01*
X188430000Y-24240000D01*
X198610000Y-72500000D02*
G75*
G02*
X196070000Y-72500000I-1270000J0D01*
G01*
X196070000Y-72500000D02*
G75*
G02*
X198610000Y-72500000I1270000J0D01*
G01*
X272270000Y-72500000D02*
G75*
G02*
X269730000Y-72500000I-1270000J0D01*
G01*
X269730000Y-72500000D02*
G75*
G02*
X272270000Y-72500000I1270000J0D01*
G01*
X272270000Y-26800000D02*
G75*
G02*
X269730000Y-26800000I-1270000J0D01*
G01*
X269730000Y-26800000D02*
G75*
G02*
X272270000Y-26800000I1270000J0D01*
G01*
X198590000Y-26800000D02*
G75*
G02*
X196050000Y-26800000I-1270000J0D01*
G01*
X196050000Y-26800000D02*
G75*
G02*
X198590000Y-26800000I1270000J0D01*
G01*
%TO.C,SW3*%
X200250000Y-83000000D02*
X200250000Y-84500000D01*
X201500000Y-87000000D02*
X206000000Y-87000000D01*
X206000000Y-80500000D02*
X201500000Y-80500000D01*
X207250000Y-84500000D02*
X207250000Y-83000000D01*
%TO.C,SW2*%
X253750000Y-83500000D02*
X253750000Y-85000000D01*
X255000000Y-87500000D02*
X259500000Y-87500000D01*
X259500000Y-81000000D02*
X255000000Y-81000000D01*
X260750000Y-85000000D02*
X260750000Y-83500000D01*
%TO.C,SW1*%
X223700000Y-80400000D02*
X224300000Y-80400000D01*
X224000000Y-80700000D02*
X223700000Y-80400000D01*
X224300000Y-80400000D02*
X224000000Y-80700000D01*
X225400000Y-78600000D02*
X225400000Y-90400000D01*
X229500000Y-78600000D02*
X225400000Y-78600000D01*
X229500000Y-90400000D02*
X225400000Y-90400000D01*
X231000000Y-84500000D02*
X232000000Y-84500000D01*
X231500000Y-84000000D02*
X231500000Y-85000000D01*
X233500000Y-78600000D02*
X237600000Y-78600000D01*
X237600000Y-78600000D02*
X237600000Y-81000000D01*
X237600000Y-83200000D02*
X237600000Y-85800000D01*
X237600000Y-88000000D02*
X237600000Y-90400000D01*
X237600000Y-90400000D02*
X233500000Y-90400000D01*
X234500000Y-84500000D02*
G75*
G02*
X228500000Y-84500000I-3000000J0D01*
G01*
X228500000Y-84500000D02*
G75*
G02*
X234500000Y-84500000I3000000J0D01*
G01*
%TD*%
M02*
