%TF.GenerationSoftware,KiCad,Pcbnew,10.0.5-10.0.5~ubuntu22.04.1*%
%TF.CreationDate,2026-08-01T17:21:10+02:00*%
%TF.ProjectId,swirski-terminal-v1-pcb,73776972-736b-4692-9d74-65726d696e61,rev?*%
%TF.SameCoordinates,Original*%
%TF.FileFunction,Copper,L2,Bot*%
%TF.FilePolarity,Positive*%
%FSLAX46Y46*%
G04 Gerber Fmt 4.6, Leading zero omitted, Abs format (unit mm)*
G04 Created by KiCad (PCBNEW 10.0.5-10.0.5~ubuntu22.04.1) date 2026-08-01 17:21:10*
%MOMM*%
%LPD*%
G01*
G04 APERTURE LIST*
G04 Aperture macros list*
%AMRoundRect*
0 Rectangle with rounded corners*
0 $1 Rounding radius*
0 $2 $3 $4 $5 $6 $7 $8 $9 X,Y pos of 4 corners*
0 Add a 4 corners polygon primitive as box body*
4,1,4,$2,$3,$4,$5,$6,$7,$8,$9,$2,$3,0*
0 Add four circle primitives for the rounded corners*
1,1,$1+$1,$2,$3*
1,1,$1+$1,$4,$5*
1,1,$1+$1,$6,$7*
1,1,$1+$1,$8,$9*
0 Add four rect primitives between the rounded corners*
20,1,$1+$1,$2,$3,$4,$5,0*
20,1,$1+$1,$4,$5,$6,$7,0*
20,1,$1+$1,$6,$7,$8,$9,0*
20,1,$1+$1,$8,$9,$2,$3,0*%
G04 Aperture macros list end*
%TA.AperFunction,ComponentPad*%
%ADD10R,1.700000X1.700000*%
%TD*%
%TA.AperFunction,ComponentPad*%
%ADD11O,1.700000X1.700000*%
%TD*%
%TA.AperFunction,ComponentPad*%
%ADD12C,2.000000*%
%TD*%
%TA.AperFunction,ComponentPad*%
%ADD13R,2.000000X2.000000*%
%TD*%
%TA.AperFunction,ComponentPad*%
%ADD14R,3.200000X2.000000*%
%TD*%
%TA.AperFunction,ComponentPad*%
%ADD15C,1.700000*%
%TD*%
%TA.AperFunction,ComponentPad*%
%ADD16R,1.050000X1.500000*%
%TD*%
%TA.AperFunction,ComponentPad*%
%ADD17O,1.050000X1.500000*%
%TD*%
%TA.AperFunction,ComponentPad*%
%ADD18RoundRect,0.250000X0.550000X-0.550000X0.550000X0.550000X-0.550000X0.550000X-0.550000X-0.550000X0*%
%TD*%
%TA.AperFunction,ComponentPad*%
%ADD19C,1.600000*%
%TD*%
%TA.AperFunction,ComponentPad*%
%ADD20RoundRect,0.249999X0.850001X0.850001X-0.850001X0.850001X-0.850001X-0.850001X0.850001X-0.850001X0*%
%TD*%
%TA.AperFunction,ComponentPad*%
%ADD21C,2.200000*%
%TD*%
%TA.AperFunction,ComponentPad*%
%ADD22RoundRect,0.250000X-0.550000X0.550000X-0.550000X-0.550000X0.550000X-0.550000X0.550000X0.550000X0*%
%TD*%
G04 APERTURE END LIST*
D10*
%TO.P,U5,1,VCC_1*%
%TO.N,/5V_SYS*%
X190970000Y-33130000D03*
D11*
%TO.P,U5,2,GND_2*%
%TO.N,/GND*%
X190970000Y-35670000D03*
%TO.P,U5,3,CS_3*%
%TO.N,/LCD_PIN_CS*%
X190970000Y-38210000D03*
%TO.P,U5,4,Reset_4*%
%TO.N,/LCD_PIN_RST*%
X190970000Y-40750000D03*
%TO.P,U5,5,DC_5*%
%TO.N,/LCD_PIN_DC*%
X190970000Y-43290000D03*
%TO.P,U5,6,MOSI_6*%
%TO.N,/LCD_PIN_MOSI*%
X190970000Y-45830000D03*
%TO.P,U5,7,SCK_7*%
%TO.N,/LCD_PIN_SCLK*%
X190970000Y-48370000D03*
%TO.P,U5,8,LED_8*%
%TO.N,/TFT LED PIN*%
X190970000Y-50910000D03*
%TO.P,U5,9,MISO_9*%
%TO.N,unconnected-(U5-MISO-Pad9)*%
X190970000Y-53450000D03*
%TO.P,U5,10,T_CLK_10*%
%TO.N,unconnected-(U5-T_CLK-Pad10)*%
X190970000Y-55990000D03*
%TO.P,U5,11,T_CS_11*%
%TO.N,unconnected-(U5-T_CS-Pad11)*%
X190970000Y-58530000D03*
%TO.P,U5,12,T_DIN_12*%
%TO.N,unconnected-(U5-T_DIN-Pad12)*%
X190970000Y-61070000D03*
%TO.P,U5,13,T_DO_13*%
%TO.N,unconnected-(U5-T_DO-Pad13)*%
X190970000Y-63610000D03*
%TO.P,U5,14,T_IRQ_14*%
%TO.N,unconnected-(U5-T_IRQ-Pad14)*%
X190970000Y-66150000D03*
%TD*%
D12*
%TO.P,SW3,1,1_1*%
%TO.N,/BACK_BTN*%
X200500000Y-81500000D03*
X207000000Y-81500000D03*
%TO.P,SW3,2,2_2*%
%TO.N,/GND*%
X200500000Y-86000000D03*
X207000000Y-86000000D03*
%TD*%
%TO.P,SW2,1,1_1*%
%TO.N,/HOME_BTN*%
X254000000Y-82000000D03*
X260500000Y-82000000D03*
%TO.P,SW2,2,2_2*%
%TO.N,/GND*%
X254000000Y-86500000D03*
X260500000Y-86500000D03*
%TD*%
D13*
%TO.P,SW1,A,A_A*%
%TO.N,/ENC_A*%
X224000000Y-82000000D03*
D12*
%TO.P,SW1,B,B_B*%
%TO.N,/ENC_B*%
X224000000Y-87000000D03*
%TO.P,SW1,C,C_C*%
%TO.N,/GND*%
X224000000Y-84500000D03*
D14*
%TO.P,SW1,MP*%
%TO.N,N/C*%
X231500000Y-78900000D03*
X231500000Y-90100000D03*
D12*
%TO.P,SW1,S1,S1_S1*%
%TO.N,/ENC_SW*%
X238500000Y-87000000D03*
%TO.P,SW1,S2,S2_S2*%
%TO.N,/GND*%
X238500000Y-82000000D03*
%TD*%
%TO.P,TP_5V_SYS1,1,1_1*%
%TO.N,/5V_SYS*%
X215500000Y-58000000D03*
%TD*%
D10*
%TO.P,J_VIB1,1,Pin_1_1*%
%TO.N,Net-(D2-A)*%
X240225000Y-55500000D03*
D15*
%TO.P,J_VIB1,2,Pin_2_2*%
%TO.N,/3V3_SYS*%
X242765000Y-55500000D03*
%TD*%
D10*
%TO.P,JP1,1,A_1*%
%TO.N,/3V3_ESP*%
X197275000Y-54000000D03*
D15*
%TO.P,JP1,2,B_2*%
%TO.N,/TFT LED PIN*%
X194735000Y-54000000D03*
%TD*%
D10*
%TO.P,U2,1,VIN_1*%
%TO.N,/3V3_ESP*%
X254705000Y-72342500D03*
D15*
%TO.P,U2,2,GND_2*%
%TO.N,/GND*%
X254705000Y-69802500D03*
%TO.P,U2,3,SCL_3*%
%TO.N,/I2C_SCL*%
X254705000Y-67262500D03*
%TO.P,U2,4,SDA_4*%
%TO.N,/I2C_SDA*%
X254705000Y-64722500D03*
%TO.P,U2,5,INT_5*%
%TO.N,unconnected-(U2-INT-Pad5)*%
X254705000Y-62182500D03*
%TO.P,U2,6,QSTART_6*%
%TO.N,unconnected-(U2-QSTART-Pad6)*%
X254705000Y-59642500D03*
%TD*%
D16*
%TO.P,Q3,1,C_1*%
%TO.N,/TFT LED PIN*%
X194460000Y-49000000D03*
D17*
%TO.P,Q3,2,B_2*%
%TO.N,Net-(Q3-B)*%
X195730000Y-49000000D03*
%TO.P,Q3,3,E_3*%
%TO.N,/3V3_ESP*%
X197000000Y-49000000D03*
%TD*%
D18*
%TO.P,C4,1*%
%TO.N,/GND*%
X206500000Y-58000000D03*
D19*
%TO.P,C4,2*%
%TO.N,/5V_SYS*%
X206500000Y-56000000D03*
%TD*%
%TO.P,R9,1*%
%TO.N,/GND*%
X226920000Y-57500000D03*
%TO.P,R9,2*%
%TO.N,Net-(Q2-B)*%
X237080000Y-57500000D03*
%TD*%
D12*
%TO.P,TP_3V3_ESP1,1,1_1*%
%TO.N,/3V3_ESP*%
X250000000Y-61000000D03*
%TD*%
D19*
%TO.P,R1,1*%
%TO.N,/TFT_BL_PWM*%
X207000000Y-39420000D03*
%TO.P,R1,2*%
%TO.N,Net-(Q3-B)*%
X207000000Y-49580000D03*
%TD*%
D10*
%TO.P,U1,1,USB_1*%
%TO.N,unconnected-(U1-USB-Pad1)*%
X264151000Y-47162000D03*
D11*
%TO.P,U1,2,GND_2*%
%TO.N,/GND*%
X261611000Y-47162000D03*
%TO.P,U1,3,BAT_RAW_3*%
%TO.N,unconnected-(U1-BAT_RAW-Pad3)*%
X259071000Y-47162000D03*
%TO.P,U1,4,GND_4*%
%TO.N,/GND*%
X256531000Y-47162000D03*
%TO.P,U1,5,5V_5*%
%TO.N,/5V_SYS*%
X253991000Y-47162000D03*
%TO.P,U1,6,GND_6*%
%TO.N,/GND*%
X251451000Y-47162000D03*
%TO.P,U1,7,EN_7*%
%TO.N,unconnected-(U1-EN-Pad7)*%
X248911000Y-47162000D03*
D15*
%TO.P,U1,8,3V3_8*%
%TO.N,/3V3_SYS*%
X246371000Y-47162000D03*
%TD*%
D19*
%TO.P,R8,1*%
%TO.N,/3V3_ESP*%
X202000000Y-56580000D03*
%TO.P,R8,2*%
%TO.N,Net-(Q3-B)*%
X202000000Y-46420000D03*
%TD*%
%TO.P,R6,1*%
%TO.N,/VIB_EN*%
X230500000Y-36920000D03*
%TO.P,R6,2*%
%TO.N,Net-(Q2-B)*%
X230500000Y-47080000D03*
%TD*%
%TO.P,C5,1*%
%TO.N,/GND*%
X199000000Y-42500000D03*
%TO.P,C5,2*%
%TO.N,/5V_SYS*%
X204000000Y-42500000D03*
%TD*%
D15*
%TO.P,U3,1,TX_1*%
%TO.N,unconnected-(U3-TX-Pad1)*%
X211126000Y-43280000D03*
D11*
%TO.P,U3,2,RX_2*%
%TO.N,unconnected-(U3-RX-Pad2)*%
X211126000Y-40740000D03*
%TO.P,U3,3,GPIO1_3*%
%TO.N,/TFT_BL_PWM*%
X211126000Y-38200000D03*
%TO.P,U3,4,GPIO2_4*%
%TO.N,/TFT LED PIN*%
X211126000Y-35660000D03*
%TO.P,U3,5,GPIO3_5*%
%TO.N,/LCD_PIN_SCLK*%
X211126000Y-33120000D03*
%TO.P,U3,6,GPIO4_6*%
%TO.N,/LCD_PIN_MOSI*%
X211126000Y-30580000D03*
%TO.P,U3,7,GPIO5_7*%
%TO.N,/LCD_PIN_DC*%
X211126000Y-28040000D03*
%TO.P,U3,8,GPIO6_8*%
%TO.N,/LCD_PIN_RST*%
X211126000Y-25500000D03*
%TO.P,U3,9,GPIO7_9*%
%TO.N,/LCD_PIN_CS*%
X211126000Y-22960000D03*
%TO.P,U3,10,GPIO8_10*%
%TO.N,/I2C_SCL*%
X226874000Y-22960000D03*
%TO.P,U3,11,GPIO9_11*%
%TO.N,/I2C_SDA*%
X226874000Y-25500000D03*
%TO.P,U3,12,GPIO10_12*%
%TO.N,unconnected-(U3-GPIO10-Pad12)*%
X226874000Y-28040000D03*
%TO.P,U3,13,GPIO11_13*%
%TO.N,unconnected-(U3-GPIO11-Pad13)*%
X226874000Y-30580000D03*
%TO.P,U3,14,GPIO12_14*%
%TO.N,unconnected-(U3-GPIO12-Pad14)*%
X226874000Y-33120000D03*
%TO.P,U3,15,GPIO13_15*%
%TO.N,/VIB_EN*%
X226874000Y-35660000D03*
%TO.P,U3,16,3V3_OUT_16*%
%TO.N,/3V3_ESP*%
X226874000Y-38200000D03*
%TO.P,U3,17,GND_17*%
%TO.N,/GND*%
X226874000Y-40740000D03*
D10*
%TO.P,U3,18,5V_IN_18*%
%TO.N,Net-(D1-K)*%
X226874000Y-43280000D03*
%TD*%
D16*
%TO.P,Q2,1,E_1*%
%TO.N,/GND*%
X231230000Y-52640000D03*
D17*
%TO.P,Q2,2,B_2*%
%TO.N,Net-(Q2-B)*%
X232500000Y-52640000D03*
%TO.P,Q2,3,C_3*%
%TO.N,Net-(D2-A)*%
X233770000Y-52640000D03*
%TD*%
D12*
%TO.P,TP_ESP_5V1,1,1_1*%
%TO.N,Net-(D1-K)*%
X226500000Y-48500000D03*
%TD*%
%TO.P,TP_3V3_SYS1,1,1_1*%
%TO.N,/3V3_SYS*%
X246500000Y-55500000D03*
%TD*%
D20*
%TO.P,D2,1,K_1*%
%TO.N,/3V3_SYS*%
X247000000Y-52000000D03*
D21*
%TO.P,D2,2,A_2*%
%TO.N,Net-(D2-A)*%
X236840000Y-52000000D03*
%TD*%
D22*
%TO.P,U4,1,SCL_1*%
%TO.N,/I2C_SCL*%
X220840000Y-65695000D03*
D19*
%TO.P,U4,2,SDA_2*%
%TO.N,/I2C_SDA*%
X223380000Y-65695000D03*
%TO.P,U4,3,A2_3*%
%TO.N,/GND*%
X225920000Y-65695000D03*
%TO.P,U4,4,A1_4*%
X228460000Y-65695000D03*
%TO.P,U4,5,A0_5*%
X231000000Y-65695000D03*
%TO.P,U4,6,~{RESET}_6*%
%TO.N,Net-(U4-~{RESET})*%
X233540000Y-65695000D03*
%TO.P,U4,7,NC_7*%
%TO.N,unconnected-(U4-NC-Pad7)*%
X236080000Y-65695000D03*
%TO.P,U4,8,INT_8*%
%TO.N,unconnected-(U4-INT-Pad8)*%
X238620000Y-65695000D03*
%TO.P,U4,9,VSS_9*%
%TO.N,/GND*%
X241160000Y-65695000D03*
%TO.P,U4,10,GP0_10*%
%TO.N,/ENC_SW*%
X241160000Y-73315000D03*
%TO.P,U4,11,GP1_11*%
%TO.N,/BACK_BTN*%
X238620000Y-73315000D03*
%TO.P,U4,12,GP2_12*%
%TO.N,/HOME_BTN*%
X236080000Y-73315000D03*
%TO.P,U4,13,GP3_13*%
%TO.N,/EXTRA_GPIO_1*%
X233540000Y-73315000D03*
%TO.P,U4,14,GP4_14*%
%TO.N,/ENC_B*%
X231000000Y-73315000D03*
%TO.P,U4,15,GP5_15*%
%TO.N,/ENC_A*%
X228460000Y-73315000D03*
%TO.P,U4,16,GP6_16*%
%TO.N,unconnected-(U4-GP6-Pad16)*%
X225920000Y-73315000D03*
%TO.P,U4,17,GP7_17*%
%TO.N,unconnected-(U4-GP7-Pad17)*%
X223380000Y-73315000D03*
%TO.P,U4,18,VDD_18*%
%TO.N,/3V3_ESP*%
X220840000Y-73315000D03*
%TD*%
D20*
%TO.P,D1,1,K_1*%
%TO.N,Net-(D1-K)*%
X226500000Y-54000000D03*
D21*
%TO.P,D1,2,A_2*%
%TO.N,/5V_SYS*%
X216340000Y-54000000D03*
%TD*%
D12*
%TO.P,TP_GND1,1,1_1*%
%TO.N,/GND*%
X231500000Y-61000000D03*
%TD*%
D19*
%TO.P,C6,1*%
%TO.N,/3V3_ESP*%
X247500000Y-66000000D03*
%TO.P,C6,2*%
%TO.N,/GND*%
X247500000Y-71000000D03*
%TD*%
%TO.P,R5,1*%
%TO.N,/3V3_ESP*%
X244500000Y-63000000D03*
%TO.P,R5,2*%
%TO.N,Net-(U4-~{RESET})*%
X234340000Y-63000000D03*
%TD*%
%TA.AperFunction,Conductor*%
%TO.N,/GND*%
G36*
X275002211Y-20500578D02*
G01*
X275494924Y-20518176D01*
X275503717Y-20518804D01*
X275991755Y-20571274D01*
X276000471Y-20572527D01*
X276483520Y-20659679D01*
X276492128Y-20661552D01*
X276967705Y-20782936D01*
X276976185Y-20785426D01*
X277441865Y-20940420D01*
X277450159Y-20943513D01*
X277903602Y-21131335D01*
X277911653Y-21135012D01*
X278237022Y-21297879D01*
X278350551Y-21354708D01*
X278358287Y-21358931D01*
X278780432Y-21609401D01*
X278787842Y-21614164D01*
X278912950Y-21701028D01*
X279191001Y-21894083D01*
X279198087Y-21899387D01*
X279395547Y-22058510D01*
X279580255Y-22207358D01*
X279586932Y-22213143D01*
X279946159Y-22547596D01*
X279952403Y-22553840D01*
X280147805Y-22763716D01*
X280286850Y-22913060D01*
X280292647Y-22919750D01*
X280600612Y-23301912D01*
X280605916Y-23308998D01*
X280885827Y-23712145D01*
X280890602Y-23719574D01*
X281141062Y-24141703D01*
X281145294Y-24149453D01*
X281364987Y-24588346D01*
X281368664Y-24596397D01*
X281556486Y-25049840D01*
X281559579Y-25058134D01*
X281714571Y-25523808D01*
X281717065Y-25532301D01*
X281838442Y-26007851D01*
X281840324Y-26016500D01*
X281927468Y-26499505D01*
X281928728Y-26508267D01*
X281981193Y-26996264D01*
X281981824Y-27005093D01*
X281999421Y-27497788D01*
X281999500Y-27502214D01*
X281999500Y-84997785D01*
X281999421Y-85002211D01*
X281981824Y-85494906D01*
X281981193Y-85503735D01*
X281928728Y-85991732D01*
X281927468Y-86000494D01*
X281840324Y-86483499D01*
X281838442Y-86492148D01*
X281717065Y-86967698D01*
X281714571Y-86976191D01*
X281559579Y-87441865D01*
X281556486Y-87450159D01*
X281368664Y-87903602D01*
X281364987Y-87911653D01*
X281145294Y-88350546D01*
X281141056Y-88358308D01*
X281012830Y-88574422D01*
X280890613Y-88780408D01*
X280885827Y-88787854D01*
X280605916Y-89191001D01*
X280600612Y-89198087D01*
X280292647Y-89580248D01*
X280286850Y-89586938D01*
X279952410Y-89946151D01*
X279946151Y-89952410D01*
X279586938Y-90286850D01*
X279580248Y-90292647D01*
X279198087Y-90600612D01*
X279191001Y-90605916D01*
X278787854Y-90885827D01*
X278780412Y-90890610D01*
X278358308Y-91141056D01*
X278350546Y-91145294D01*
X277911653Y-91364987D01*
X277903602Y-91368664D01*
X277450159Y-91556486D01*
X277441865Y-91559579D01*
X276976191Y-91714571D01*
X276967698Y-91717065D01*
X276492148Y-91838442D01*
X276483499Y-91840324D01*
X276000494Y-91927468D01*
X275991732Y-91928728D01*
X275503735Y-91981193D01*
X275494906Y-91981824D01*
X275002212Y-91999421D01*
X274997786Y-91999500D01*
X193502214Y-91999500D01*
X193497788Y-91999421D01*
X193005093Y-91981824D01*
X192996264Y-91981193D01*
X192508267Y-91928728D01*
X192499505Y-91927468D01*
X192016500Y-91840324D01*
X192007851Y-91838442D01*
X191532301Y-91717065D01*
X191523808Y-91714571D01*
X191058134Y-91559579D01*
X191049840Y-91556486D01*
X190596397Y-91368664D01*
X190588346Y-91364987D01*
X190149453Y-91145294D01*
X190141703Y-91141062D01*
X189719574Y-90890602D01*
X189712145Y-90885827D01*
X189308998Y-90605916D01*
X189301912Y-90600612D01*
X188919750Y-90292647D01*
X188913060Y-90286850D01*
X188553847Y-89952410D01*
X188547596Y-89946159D01*
X188213143Y-89586932D01*
X188207352Y-89580249D01*
X188207351Y-89580248D01*
X187899387Y-89198087D01*
X187894083Y-89191001D01*
X187843926Y-89118761D01*
X187797118Y-89051345D01*
X229391500Y-89051345D01*
X229391500Y-91148654D01*
X229398011Y-91209202D01*
X229398011Y-91209204D01*
X229418455Y-91264014D01*
X229449111Y-91346204D01*
X229536739Y-91463261D01*
X229653796Y-91550889D01*
X229790799Y-91601989D01*
X229818050Y-91604918D01*
X229851345Y-91608499D01*
X229851362Y-91608500D01*
X233148638Y-91608500D01*
X233148654Y-91608499D01*
X233175692Y-91605591D01*
X233209201Y-91601989D01*
X233346204Y-91550889D01*
X233463261Y-91463261D01*
X233550889Y-91346204D01*
X233601989Y-91209201D01*
X233605591Y-91175692D01*
X233608499Y-91148654D01*
X233608500Y-91148637D01*
X233608500Y-89051362D01*
X233608499Y-89051345D01*
X233602450Y-88995089D01*
X233601989Y-88990799D01*
X233550889Y-88853796D01*
X233463261Y-88736739D01*
X233346204Y-88649111D01*
X233209203Y-88598011D01*
X233148654Y-88591500D01*
X233148638Y-88591500D01*
X229851362Y-88591500D01*
X229851345Y-88591500D01*
X229790797Y-88598011D01*
X229790795Y-88598011D01*
X229653795Y-88649111D01*
X229536739Y-88736739D01*
X229449111Y-88853795D01*
X229398011Y-88990795D01*
X229398011Y-88990797D01*
X229391500Y-89051345D01*
X187797118Y-89051345D01*
X187659956Y-88853795D01*
X187614164Y-88787842D01*
X187609401Y-88780432D01*
X187358931Y-88358287D01*
X187354705Y-88350546D01*
X187135012Y-87911653D01*
X187131335Y-87903602D01*
X186943513Y-87450159D01*
X186940420Y-87441865D01*
X186864765Y-87214558D01*
X186797519Y-87012518D01*
X186785423Y-86976177D01*
X186782934Y-86967698D01*
X186757770Y-86869105D01*
X186661552Y-86492128D01*
X186659679Y-86483520D01*
X186572527Y-86000471D01*
X186571272Y-85991732D01*
X186564011Y-85924197D01*
X186559469Y-85881947D01*
X199000000Y-85881947D01*
X199000000Y-86118052D01*
X199036934Y-86351247D01*
X199109897Y-86575802D01*
X199217087Y-86786174D01*
X199277338Y-86869104D01*
X199277340Y-86869105D01*
X199976212Y-86170233D01*
X199987482Y-86212292D01*
X200059890Y-86337708D01*
X200162292Y-86440110D01*
X200287708Y-86512518D01*
X200329765Y-86523787D01*
X199630893Y-87222658D01*
X199713828Y-87282914D01*
X199924197Y-87390102D01*
X200148752Y-87463065D01*
X200148751Y-87463065D01*
X200381948Y-87500000D01*
X200618052Y-87500000D01*
X200851247Y-87463065D01*
X201075802Y-87390102D01*
X201286163Y-87282918D01*
X201286169Y-87282914D01*
X201369104Y-87222658D01*
X201369105Y-87222658D01*
X200670233Y-86523787D01*
X200712292Y-86512518D01*
X200837708Y-86440110D01*
X200940110Y-86337708D01*
X201012518Y-86212292D01*
X201023787Y-86170234D01*
X201722658Y-86869105D01*
X201722658Y-86869104D01*
X201782914Y-86786169D01*
X201782918Y-86786163D01*
X201890102Y-86575802D01*
X201963065Y-86351247D01*
X202000000Y-86118052D01*
X202000000Y-85881947D01*
X205500000Y-85881947D01*
X205500000Y-86118052D01*
X205536934Y-86351247D01*
X205609897Y-86575802D01*
X205717087Y-86786174D01*
X205777338Y-86869104D01*
X205777340Y-86869105D01*
X206476212Y-86170233D01*
X206487482Y-86212292D01*
X206559890Y-86337708D01*
X206662292Y-86440110D01*
X206787708Y-86512518D01*
X206829765Y-86523787D01*
X206130893Y-87222658D01*
X206213828Y-87282914D01*
X206424197Y-87390102D01*
X206648752Y-87463065D01*
X206648751Y-87463065D01*
X206881948Y-87500000D01*
X207118052Y-87500000D01*
X207351247Y-87463065D01*
X207575802Y-87390102D01*
X207786163Y-87282918D01*
X207786169Y-87282914D01*
X207869104Y-87222658D01*
X207869105Y-87222658D01*
X207170233Y-86523787D01*
X207212292Y-86512518D01*
X207337708Y-86440110D01*
X207440110Y-86337708D01*
X207512518Y-86212292D01*
X207523787Y-86170234D01*
X208222658Y-86869105D01*
X208222658Y-86869104D01*
X208270309Y-86803520D01*
X208282914Y-86786169D01*
X208282918Y-86786163D01*
X208390102Y-86575802D01*
X208463065Y-86351247D01*
X208500000Y-86118052D01*
X208500000Y-85881947D01*
X208463065Y-85648752D01*
X208390102Y-85424197D01*
X208282914Y-85213828D01*
X208222658Y-85130894D01*
X208222658Y-85130893D01*
X207523787Y-85829765D01*
X207512518Y-85787708D01*
X207440110Y-85662292D01*
X207337708Y-85559890D01*
X207212292Y-85487482D01*
X207170234Y-85476212D01*
X207869105Y-84777340D01*
X207869104Y-84777338D01*
X207786174Y-84717087D01*
X207575802Y-84609897D01*
X207351247Y-84536934D01*
X207351248Y-84536934D01*
X207118052Y-84500000D01*
X206881948Y-84500000D01*
X206648752Y-84536934D01*
X206424197Y-84609897D01*
X206213830Y-84717084D01*
X206130894Y-84777340D01*
X206829766Y-85476212D01*
X206787708Y-85487482D01*
X206662292Y-85559890D01*
X206559890Y-85662292D01*
X206487482Y-85787708D01*
X206476212Y-85829765D01*
X205777340Y-85130894D01*
X205717084Y-85213830D01*
X205609897Y-85424197D01*
X205536934Y-85648752D01*
X205500000Y-85881947D01*
X202000000Y-85881947D01*
X201963065Y-85648752D01*
X201890102Y-85424197D01*
X201782914Y-85213828D01*
X201722658Y-85130894D01*
X201722658Y-85130893D01*
X201023787Y-85829765D01*
X201012518Y-85787708D01*
X200940110Y-85662292D01*
X200837708Y-85559890D01*
X200712292Y-85487482D01*
X200670234Y-85476212D01*
X201369105Y-84777340D01*
X201369104Y-84777339D01*
X201286174Y-84717087D01*
X201075802Y-84609897D01*
X200851247Y-84536934D01*
X200851248Y-84536934D01*
X200618052Y-84500000D01*
X200381948Y-84500000D01*
X200148752Y-84536934D01*
X199924197Y-84609897D01*
X199713830Y-84717084D01*
X199630894Y-84777340D01*
X200329766Y-85476212D01*
X200287708Y-85487482D01*
X200162292Y-85559890D01*
X200059890Y-85662292D01*
X199987482Y-85787708D01*
X199976212Y-85829766D01*
X199277340Y-85130894D01*
X199217084Y-85213830D01*
X199109897Y-85424197D01*
X199036934Y-85648752D01*
X199000000Y-85881947D01*
X186559469Y-85881947D01*
X186518804Y-85503717D01*
X186518176Y-85494924D01*
X186500579Y-85002211D01*
X186500500Y-84997785D01*
X186500500Y-81381272D01*
X198991500Y-81381272D01*
X198991500Y-81618727D01*
X199028643Y-81853241D01*
X199102019Y-82079067D01*
X199160068Y-82192993D01*
X199209815Y-82290627D01*
X199349380Y-82482722D01*
X199517278Y-82650620D01*
X199709373Y-82790185D01*
X199809328Y-82841114D01*
X199920932Y-82897980D01*
X199920934Y-82897980D01*
X199920937Y-82897982D01*
X200041984Y-82937312D01*
X200146758Y-82971356D01*
X200381273Y-83008500D01*
X200381278Y-83008500D01*
X200618727Y-83008500D01*
X200853241Y-82971356D01*
X201079063Y-82897982D01*
X201290627Y-82790185D01*
X201482722Y-82650620D01*
X201650620Y-82482722D01*
X201790185Y-82290627D01*
X201897982Y-82079063D01*
X201971356Y-81853241D01*
X202003744Y-81648752D01*
X202008500Y-81618727D01*
X202008500Y-81381272D01*
X205491500Y-81381272D01*
X205491500Y-81618727D01*
X205528643Y-81853241D01*
X205602019Y-82079067D01*
X205660068Y-82192993D01*
X205709815Y-82290627D01*
X205849380Y-82482722D01*
X206017278Y-82650620D01*
X206209373Y-82790185D01*
X206309328Y-82841114D01*
X206420932Y-82897980D01*
X206420934Y-82897980D01*
X206420937Y-82897982D01*
X206541984Y-82937312D01*
X206646758Y-82971356D01*
X206881273Y-83008500D01*
X206881278Y-83008500D01*
X207118727Y-83008500D01*
X207353241Y-82971356D01*
X207579063Y-82897982D01*
X207790627Y-82790185D01*
X207982722Y-82650620D01*
X208150620Y-82482722D01*
X208290185Y-82290627D01*
X208397982Y-82079063D01*
X208471356Y-81853241D01*
X208503744Y-81648752D01*
X208508500Y-81618727D01*
X208508500Y-81381272D01*
X208481979Y-81213830D01*
X208471356Y-81146759D01*
X208471355Y-81146755D01*
X208471355Y-81146754D01*
X208419239Y-80986359D01*
X208407862Y-80951345D01*
X222491500Y-80951345D01*
X222491500Y-83048654D01*
X222498011Y-83109202D01*
X222498011Y-83109204D01*
X222540329Y-83222658D01*
X222549111Y-83246204D01*
X222636739Y-83363261D01*
X222753796Y-83450889D01*
X222755896Y-83452461D01*
X222797767Y-83508395D01*
X222802751Y-83578087D01*
X222781903Y-83624613D01*
X222717087Y-83713824D01*
X222609897Y-83924197D01*
X222536934Y-84148752D01*
X222500000Y-84381947D01*
X222500000Y-84618052D01*
X222536934Y-84851247D01*
X222609897Y-85075802D01*
X222717087Y-85286174D01*
X222777338Y-85369104D01*
X222777340Y-85369105D01*
X223517037Y-84629408D01*
X223534075Y-84692993D01*
X223599901Y-84807007D01*
X223692993Y-84900099D01*
X223807007Y-84965925D01*
X223870590Y-84982962D01*
X223120860Y-85732691D01*
X223114369Y-85763592D01*
X223078003Y-85805260D01*
X223017278Y-85849379D01*
X222849382Y-86017275D01*
X222709815Y-86209372D01*
X222602019Y-86420932D01*
X222528643Y-86646758D01*
X222491500Y-86881272D01*
X222491500Y-87118727D01*
X222528643Y-87353241D01*
X222602019Y-87579067D01*
X222675183Y-87722658D01*
X222709815Y-87790627D01*
X222849380Y-87982722D01*
X223017278Y-88150620D01*
X223209373Y-88290185D01*
X223309328Y-88341114D01*
X223420932Y-88397980D01*
X223420934Y-88397980D01*
X223420937Y-88397982D01*
X223541984Y-88437312D01*
X223646758Y-88471356D01*
X223881273Y-88508500D01*
X223881278Y-88508500D01*
X224118727Y-88508500D01*
X224353241Y-88471356D01*
X224579063Y-88397982D01*
X224790627Y-88290185D01*
X224982722Y-88150620D01*
X225150620Y-87982722D01*
X225290185Y-87790627D01*
X225397982Y-87579063D01*
X225471356Y-87353241D01*
X225508500Y-87118727D01*
X225508500Y-86881272D01*
X236991500Y-86881272D01*
X236991500Y-87118727D01*
X237028643Y-87353241D01*
X237102019Y-87579067D01*
X237175183Y-87722658D01*
X237209815Y-87790627D01*
X237349380Y-87982722D01*
X237517278Y-88150620D01*
X237709373Y-88290185D01*
X237809328Y-88341114D01*
X237920932Y-88397980D01*
X237920934Y-88397980D01*
X237920937Y-88397982D01*
X238041984Y-88437312D01*
X238146758Y-88471356D01*
X238381273Y-88508500D01*
X238381278Y-88508500D01*
X238618727Y-88508500D01*
X238853241Y-88471356D01*
X239079063Y-88397982D01*
X239290627Y-88290185D01*
X239482722Y-88150620D01*
X239650620Y-87982722D01*
X239790185Y-87790627D01*
X239897982Y-87579063D01*
X239971356Y-87353241D01*
X240008500Y-87118727D01*
X240008500Y-86881272D01*
X239971356Y-86646758D01*
X239919724Y-86487851D01*
X239897982Y-86420937D01*
X239897980Y-86420934D01*
X239897980Y-86420932D01*
X239878116Y-86381947D01*
X252500000Y-86381947D01*
X252500000Y-86618052D01*
X252536934Y-86851247D01*
X252609897Y-87075802D01*
X252717087Y-87286174D01*
X252777338Y-87369104D01*
X252777340Y-87369105D01*
X253476212Y-86670233D01*
X253487482Y-86712292D01*
X253559890Y-86837708D01*
X253662292Y-86940110D01*
X253787708Y-87012518D01*
X253829765Y-87023787D01*
X253130893Y-87722658D01*
X253213828Y-87782914D01*
X253424197Y-87890102D01*
X253648752Y-87963065D01*
X253648751Y-87963065D01*
X253881948Y-88000000D01*
X254118052Y-88000000D01*
X254351247Y-87963065D01*
X254575802Y-87890102D01*
X254786163Y-87782918D01*
X254786169Y-87782914D01*
X254869104Y-87722658D01*
X254869105Y-87722658D01*
X254170233Y-87023787D01*
X254212292Y-87012518D01*
X254337708Y-86940110D01*
X254440110Y-86837708D01*
X254512518Y-86712292D01*
X254523787Y-86670233D01*
X255222658Y-87369105D01*
X255222658Y-87369104D01*
X255282914Y-87286169D01*
X255282918Y-87286163D01*
X255390102Y-87075802D01*
X255463065Y-86851247D01*
X255500000Y-86618052D01*
X255500000Y-86381947D01*
X259000000Y-86381947D01*
X259000000Y-86618052D01*
X259036934Y-86851247D01*
X259109897Y-87075802D01*
X259217087Y-87286174D01*
X259277338Y-87369104D01*
X259277340Y-87369105D01*
X259976212Y-86670233D01*
X259987482Y-86712292D01*
X260059890Y-86837708D01*
X260162292Y-86940110D01*
X260287708Y-87012518D01*
X260329765Y-87023787D01*
X259630893Y-87722658D01*
X259713828Y-87782914D01*
X259924197Y-87890102D01*
X260148752Y-87963065D01*
X260148751Y-87963065D01*
X260381948Y-88000000D01*
X260618052Y-88000000D01*
X260851247Y-87963065D01*
X261075802Y-87890102D01*
X261286163Y-87782918D01*
X261286169Y-87782914D01*
X261369104Y-87722658D01*
X261369105Y-87722658D01*
X260670233Y-87023787D01*
X260712292Y-87012518D01*
X260837708Y-86940110D01*
X260940110Y-86837708D01*
X261012518Y-86712292D01*
X261023787Y-86670234D01*
X261722658Y-87369105D01*
X261722658Y-87369104D01*
X261782914Y-87286169D01*
X261782918Y-87286163D01*
X261890102Y-87075802D01*
X261963065Y-86851247D01*
X262000000Y-86618052D01*
X262000000Y-86381947D01*
X261963065Y-86148752D01*
X261890102Y-85924197D01*
X261782914Y-85713828D01*
X261722658Y-85630894D01*
X261722658Y-85630893D01*
X261023787Y-86329765D01*
X261012518Y-86287708D01*
X260940110Y-86162292D01*
X260837708Y-86059890D01*
X260712292Y-85987482D01*
X260670234Y-85976212D01*
X261369105Y-85277340D01*
X261369104Y-85277338D01*
X261286174Y-85217087D01*
X261075802Y-85109897D01*
X260851247Y-85036934D01*
X260851248Y-85036934D01*
X260618052Y-85000000D01*
X260381948Y-85000000D01*
X260148752Y-85036934D01*
X259924197Y-85109897D01*
X259713830Y-85217084D01*
X259630894Y-85277340D01*
X260329766Y-85976212D01*
X260287708Y-85987482D01*
X260162292Y-86059890D01*
X260059890Y-86162292D01*
X259987482Y-86287708D01*
X259976212Y-86329766D01*
X259277340Y-85630894D01*
X259217084Y-85713830D01*
X259109897Y-85924197D01*
X259036934Y-86148752D01*
X259000000Y-86381947D01*
X255500000Y-86381947D01*
X255463065Y-86148752D01*
X255390102Y-85924197D01*
X255282914Y-85713828D01*
X255222658Y-85630894D01*
X255222658Y-85630893D01*
X254523787Y-86329765D01*
X254512518Y-86287708D01*
X254440110Y-86162292D01*
X254337708Y-86059890D01*
X254212292Y-85987482D01*
X254170234Y-85976212D01*
X254869105Y-85277340D01*
X254869104Y-85277339D01*
X254786174Y-85217087D01*
X254575802Y-85109897D01*
X254351247Y-85036934D01*
X254351248Y-85036934D01*
X254118052Y-85000000D01*
X253881948Y-85000000D01*
X253648752Y-85036934D01*
X253424197Y-85109897D01*
X253213830Y-85217084D01*
X253130894Y-85277340D01*
X253829766Y-85976212D01*
X253787708Y-85987482D01*
X253662292Y-86059890D01*
X253559890Y-86162292D01*
X253487482Y-86287708D01*
X253476212Y-86329766D01*
X252777340Y-85630894D01*
X252717084Y-85713830D01*
X252609897Y-85924197D01*
X252536934Y-86148752D01*
X252500000Y-86381947D01*
X239878116Y-86381947D01*
X239841114Y-86309328D01*
X239790185Y-86209373D01*
X239650620Y-86017278D01*
X239482722Y-85849380D01*
X239290627Y-85709815D01*
X239079067Y-85602019D01*
X238853241Y-85528643D01*
X238618727Y-85491500D01*
X238618722Y-85491500D01*
X238381278Y-85491500D01*
X238381273Y-85491500D01*
X238146758Y-85528643D01*
X237920932Y-85602019D01*
X237709372Y-85709815D01*
X237517275Y-85849382D01*
X237349382Y-86017275D01*
X237209815Y-86209372D01*
X237102019Y-86420932D01*
X237028643Y-86646758D01*
X236991500Y-86881272D01*
X225508500Y-86881272D01*
X225471356Y-86646758D01*
X225419724Y-86487851D01*
X225397982Y-86420937D01*
X225397980Y-86420934D01*
X225397980Y-86420932D01*
X225341114Y-86309328D01*
X225290185Y-86209373D01*
X225150620Y-86017278D01*
X224982722Y-85849380D01*
X224982721Y-85849379D01*
X224982720Y-85849378D01*
X224982715Y-85849374D01*
X224921997Y-85805260D01*
X224879331Y-85749931D01*
X224876383Y-85729936D01*
X224129408Y-84982962D01*
X224192993Y-84965925D01*
X224307007Y-84900099D01*
X224400099Y-84807007D01*
X224465925Y-84692993D01*
X224482962Y-84629409D01*
X225222658Y-85369105D01*
X225222658Y-85369104D01*
X225282914Y-85286169D01*
X225282918Y-85286163D01*
X225292020Y-85268302D01*
X225292020Y-85268301D01*
X225390102Y-85075802D01*
X225463065Y-84851247D01*
X225500000Y-84618052D01*
X225500000Y-84381947D01*
X225463065Y-84148752D01*
X225390102Y-83924197D01*
X225282914Y-83713828D01*
X225218096Y-83624614D01*
X225194616Y-83558807D01*
X225210441Y-83490753D01*
X225244103Y-83452461D01*
X225246201Y-83450889D01*
X225246204Y-83450889D01*
X225363261Y-83363261D01*
X225450889Y-83246204D01*
X225478437Y-83172345D01*
X225493462Y-83132064D01*
X225501988Y-83109204D01*
X225501988Y-83109203D01*
X225501989Y-83109201D01*
X225505591Y-83075692D01*
X225508499Y-83048654D01*
X225508500Y-83048637D01*
X225508500Y-81881947D01*
X237000000Y-81881947D01*
X237000000Y-82118052D01*
X237036934Y-82351247D01*
X237109897Y-82575802D01*
X237217087Y-82786174D01*
X237277338Y-82869104D01*
X237277340Y-82869105D01*
X238017037Y-82129408D01*
X238034075Y-82192993D01*
X238099901Y-82307007D01*
X238192993Y-82400099D01*
X238307007Y-82465925D01*
X238370590Y-82482962D01*
X237630893Y-83222658D01*
X237713828Y-83282914D01*
X237924197Y-83390102D01*
X238148752Y-83463065D01*
X238148751Y-83463065D01*
X238381948Y-83500000D01*
X238618052Y-83500000D01*
X238851247Y-83463065D01*
X239075802Y-83390102D01*
X239286163Y-83282918D01*
X239286169Y-83282914D01*
X239369104Y-83222658D01*
X239369105Y-83222658D01*
X238629408Y-82482962D01*
X238692993Y-82465925D01*
X238807007Y-82400099D01*
X238900099Y-82307007D01*
X238965925Y-82192993D01*
X238982962Y-82129408D01*
X239722658Y-82869105D01*
X239722658Y-82869104D01*
X239782914Y-82786169D01*
X239782918Y-82786163D01*
X239890102Y-82575802D01*
X239963065Y-82351247D01*
X240000000Y-82118052D01*
X240000000Y-81881957D01*
X239999998Y-81881938D01*
X239999893Y-81881272D01*
X252491500Y-81881272D01*
X252491500Y-82118727D01*
X252528643Y-82353241D01*
X252602019Y-82579067D01*
X252707540Y-82786163D01*
X252709815Y-82790627D01*
X252849380Y-82982722D01*
X253017278Y-83150620D01*
X253209373Y-83290185D01*
X253309328Y-83341114D01*
X253420932Y-83397980D01*
X253420934Y-83397980D01*
X253420937Y-83397982D01*
X253541984Y-83437312D01*
X253646758Y-83471356D01*
X253881273Y-83508500D01*
X253881278Y-83508500D01*
X254118727Y-83508500D01*
X254353241Y-83471356D01*
X254378758Y-83463065D01*
X254579063Y-83397982D01*
X254790627Y-83290185D01*
X254982722Y-83150620D01*
X255150620Y-82982722D01*
X255290185Y-82790627D01*
X255397982Y-82579063D01*
X255471356Y-82353241D01*
X255496737Y-82192993D01*
X255508500Y-82118727D01*
X255508500Y-81881272D01*
X258991500Y-81881272D01*
X258991500Y-82118727D01*
X259028643Y-82353241D01*
X259102019Y-82579067D01*
X259207540Y-82786163D01*
X259209815Y-82790627D01*
X259349380Y-82982722D01*
X259517278Y-83150620D01*
X259709373Y-83290185D01*
X259809328Y-83341114D01*
X259920932Y-83397980D01*
X259920934Y-83397980D01*
X259920937Y-83397982D01*
X260041984Y-83437312D01*
X260146758Y-83471356D01*
X260381273Y-83508500D01*
X260381278Y-83508500D01*
X260618727Y-83508500D01*
X260853241Y-83471356D01*
X260878758Y-83463065D01*
X261079063Y-83397982D01*
X261290627Y-83290185D01*
X261482722Y-83150620D01*
X261650620Y-82982722D01*
X261790185Y-82790627D01*
X261897982Y-82579063D01*
X261971356Y-82353241D01*
X261996737Y-82192993D01*
X262008500Y-82118727D01*
X262008500Y-81881272D01*
X261971356Y-81646758D01*
X261897980Y-81420932D01*
X261841114Y-81309328D01*
X261790185Y-81209373D01*
X261650620Y-81017278D01*
X261482722Y-80849380D01*
X261290627Y-80709815D01*
X261289758Y-80709372D01*
X261079067Y-80602019D01*
X260853241Y-80528643D01*
X260618727Y-80491500D01*
X260618722Y-80491500D01*
X260381278Y-80491500D01*
X260381273Y-80491500D01*
X260146758Y-80528643D01*
X259920932Y-80602019D01*
X259709372Y-80709815D01*
X259517275Y-80849382D01*
X259349382Y-81017275D01*
X259209815Y-81209372D01*
X259102019Y-81420932D01*
X259028643Y-81646758D01*
X258991500Y-81881272D01*
X255508500Y-81881272D01*
X255471356Y-81646758D01*
X255397980Y-81420932D01*
X255341114Y-81309328D01*
X255290185Y-81209373D01*
X255150620Y-81017278D01*
X254982722Y-80849380D01*
X254790627Y-80709815D01*
X254789758Y-80709372D01*
X254579067Y-80602019D01*
X254353241Y-80528643D01*
X254118727Y-80491500D01*
X254118722Y-80491500D01*
X253881278Y-80491500D01*
X253881273Y-80491500D01*
X253646758Y-80528643D01*
X253420932Y-80602019D01*
X253209372Y-80709815D01*
X253017275Y-80849382D01*
X252849382Y-81017275D01*
X252709815Y-81209372D01*
X252602019Y-81420932D01*
X252528643Y-81646758D01*
X252491500Y-81881272D01*
X239999893Y-81881272D01*
X239963065Y-81648752D01*
X239890102Y-81424197D01*
X239782914Y-81213828D01*
X239722658Y-81130894D01*
X239722658Y-81130893D01*
X238982962Y-81870590D01*
X238965925Y-81807007D01*
X238900099Y-81692993D01*
X238807007Y-81599901D01*
X238692993Y-81534075D01*
X238629409Y-81517037D01*
X239369105Y-80777340D01*
X239369104Y-80777338D01*
X239286174Y-80717087D01*
X239075802Y-80609897D01*
X238851247Y-80536934D01*
X238851248Y-80536934D01*
X238618052Y-80500000D01*
X238381948Y-80500000D01*
X238148752Y-80536934D01*
X237924197Y-80609897D01*
X237713830Y-80717084D01*
X237630894Y-80777340D01*
X238370591Y-81517037D01*
X238307007Y-81534075D01*
X238192993Y-81599901D01*
X238099901Y-81692993D01*
X238034075Y-81807007D01*
X238017037Y-81870591D01*
X237277340Y-81130894D01*
X237217084Y-81213830D01*
X237109897Y-81424197D01*
X237036934Y-81648752D01*
X237000000Y-81881947D01*
X225508500Y-81881947D01*
X225508500Y-80951362D01*
X225508499Y-80951345D01*
X225501989Y-80890798D01*
X225493461Y-80867935D01*
X225493460Y-80867932D01*
X225450889Y-80753796D01*
X225423409Y-80717087D01*
X225363261Y-80636739D01*
X225246204Y-80549111D01*
X225213557Y-80536934D01*
X225109203Y-80498011D01*
X225048654Y-80491500D01*
X225048638Y-80491500D01*
X222951362Y-80491500D01*
X222951345Y-80491500D01*
X222890797Y-80498011D01*
X222890795Y-80498011D01*
X222753795Y-80549111D01*
X222636739Y-80636739D01*
X222549111Y-80753795D01*
X222498011Y-80890795D01*
X222498011Y-80890797D01*
X222491500Y-80951345D01*
X208407862Y-80951345D01*
X208397980Y-80920932D01*
X208324815Y-80777338D01*
X208290185Y-80709373D01*
X208150620Y-80517278D01*
X207982722Y-80349380D01*
X207790627Y-80209815D01*
X207579067Y-80102019D01*
X207353241Y-80028643D01*
X207118727Y-79991500D01*
X207118722Y-79991500D01*
X206881278Y-79991500D01*
X206881273Y-79991500D01*
X206646758Y-80028643D01*
X206420932Y-80102019D01*
X206209372Y-80209815D01*
X206017275Y-80349382D01*
X205849382Y-80517275D01*
X205709815Y-80709372D01*
X205602019Y-80920932D01*
X205528643Y-81146758D01*
X205491500Y-81381272D01*
X202008500Y-81381272D01*
X201971356Y-81146758D01*
X201919239Y-80986359D01*
X201897982Y-80920937D01*
X201897980Y-80920934D01*
X201897980Y-80920932D01*
X201824815Y-80777338D01*
X201790185Y-80709373D01*
X201650620Y-80517278D01*
X201482722Y-80349380D01*
X201290627Y-80209815D01*
X201079067Y-80102019D01*
X200853241Y-80028643D01*
X200618727Y-79991500D01*
X200618722Y-79991500D01*
X200381278Y-79991500D01*
X200381273Y-79991500D01*
X200146758Y-80028643D01*
X199920932Y-80102019D01*
X199709372Y-80209815D01*
X199517275Y-80349382D01*
X199349382Y-80517275D01*
X199209815Y-80709372D01*
X199102019Y-80920932D01*
X199028643Y-81146758D01*
X198991500Y-81381272D01*
X186500500Y-81381272D01*
X186500500Y-77851345D01*
X229391500Y-77851345D01*
X229391500Y-79948654D01*
X229398011Y-80009202D01*
X229398011Y-80009204D01*
X229449111Y-80146204D01*
X229536739Y-80263261D01*
X229653796Y-80350889D01*
X229790799Y-80401989D01*
X229818050Y-80404918D01*
X229851345Y-80408499D01*
X229851362Y-80408500D01*
X233148638Y-80408500D01*
X233148654Y-80408499D01*
X233175692Y-80405591D01*
X233209201Y-80401989D01*
X233346204Y-80350889D01*
X233463261Y-80263261D01*
X233550889Y-80146204D01*
X233601989Y-80009201D01*
X233605591Y-79975692D01*
X233608499Y-79948654D01*
X233608500Y-79948637D01*
X233608500Y-77851362D01*
X233608499Y-77851345D01*
X233605157Y-77820270D01*
X233601989Y-77790799D01*
X233550889Y-77653796D01*
X233463261Y-77536739D01*
X233346204Y-77449111D01*
X233252453Y-77414143D01*
X233209203Y-77398011D01*
X233148654Y-77391500D01*
X233148638Y-77391500D01*
X229851362Y-77391500D01*
X229851345Y-77391500D01*
X229790797Y-77398011D01*
X229790795Y-77398011D01*
X229653795Y-77449111D01*
X229536739Y-77536739D01*
X229449111Y-77653795D01*
X229398011Y-77790795D01*
X229398011Y-77790797D01*
X229391500Y-77851345D01*
X186500500Y-77851345D01*
X186500500Y-77302828D01*
X253184500Y-77302828D01*
X253184500Y-77542171D01*
X253221939Y-77778551D01*
X253295898Y-78006174D01*
X253404554Y-78219419D01*
X253545221Y-78413032D01*
X253545225Y-78413037D01*
X253714462Y-78582274D01*
X253714467Y-78582278D01*
X253883347Y-78704976D01*
X253908084Y-78722948D01*
X254043961Y-78792181D01*
X254121325Y-78831601D01*
X254121327Y-78831601D01*
X254121330Y-78831603D01*
X254348949Y-78905561D01*
X254470735Y-78924849D01*
X254585329Y-78943000D01*
X254585334Y-78943000D01*
X254824671Y-78943000D01*
X254929135Y-78926453D01*
X255061051Y-78905561D01*
X255288670Y-78831603D01*
X255501916Y-78722948D01*
X255695539Y-78582273D01*
X255864773Y-78413039D01*
X256005448Y-78219416D01*
X256114103Y-78006170D01*
X256188061Y-77778551D01*
X256218808Y-77584419D01*
X256225500Y-77542171D01*
X256225500Y-77302828D01*
X256205644Y-77177470D01*
X256188061Y-77066449D01*
X256114103Y-76838830D01*
X256114101Y-76838827D01*
X256114101Y-76838825D01*
X256053177Y-76719257D01*
X256026972Y-76667828D01*
X269694500Y-76667828D01*
X269694500Y-76907171D01*
X269731939Y-77143551D01*
X269805898Y-77371174D01*
X269845610Y-77449111D01*
X269893024Y-77542166D01*
X269914554Y-77584419D01*
X270055221Y-77778032D01*
X270055225Y-77778037D01*
X270224462Y-77947274D01*
X270224467Y-77947278D01*
X270305526Y-78006170D01*
X270418084Y-78087948D01*
X270553961Y-78157181D01*
X270631325Y-78196601D01*
X270631327Y-78196601D01*
X270631330Y-78196603D01*
X270858949Y-78270561D01*
X270980735Y-78289849D01*
X271095329Y-78308000D01*
X271095334Y-78308000D01*
X271334671Y-78308000D01*
X271439135Y-78291453D01*
X271571051Y-78270561D01*
X271798670Y-78196603D01*
X272011916Y-78087948D01*
X272205539Y-77947273D01*
X272374773Y-77778039D01*
X272515448Y-77584416D01*
X272624103Y-77371170D01*
X272698061Y-77143551D01*
X272718953Y-77011635D01*
X272735500Y-76907171D01*
X272735500Y-76667828D01*
X272715644Y-76542470D01*
X272698061Y-76431449D01*
X272624103Y-76203830D01*
X272624101Y-76203827D01*
X272624101Y-76203825D01*
X272527072Y-76013398D01*
X272515448Y-75990584D01*
X272451088Y-75902000D01*
X272374778Y-75796967D01*
X272374774Y-75796962D01*
X272205537Y-75627725D01*
X272205532Y-75627721D01*
X272011919Y-75487054D01*
X272011918Y-75487053D01*
X272011916Y-75487052D01*
X271945324Y-75453121D01*
X271798674Y-75378398D01*
X271571051Y-75304439D01*
X271334671Y-75267000D01*
X271334666Y-75267000D01*
X271095334Y-75267000D01*
X271095329Y-75267000D01*
X270858948Y-75304439D01*
X270631325Y-75378398D01*
X270418080Y-75487054D01*
X270224467Y-75627721D01*
X270224462Y-75627725D01*
X270055225Y-75796962D01*
X270055221Y-75796967D01*
X269914554Y-75990580D01*
X269805898Y-76203825D01*
X269731939Y-76431448D01*
X269694500Y-76667828D01*
X256026972Y-76667828D01*
X256005448Y-76625584D01*
X255987476Y-76600847D01*
X255864778Y-76431967D01*
X255864774Y-76431962D01*
X255695537Y-76262725D01*
X255695532Y-76262721D01*
X255501919Y-76122054D01*
X255501918Y-76122053D01*
X255501916Y-76122052D01*
X255435324Y-76088121D01*
X255288674Y-76013398D01*
X255061051Y-75939439D01*
X254824671Y-75902000D01*
X254824666Y-75902000D01*
X254585334Y-75902000D01*
X254585329Y-75902000D01*
X254348948Y-75939439D01*
X254121325Y-76013398D01*
X253908080Y-76122054D01*
X253714467Y-76262721D01*
X253714462Y-76262725D01*
X253545225Y-76431962D01*
X253545221Y-76431967D01*
X253404554Y-76625580D01*
X253295898Y-76838825D01*
X253221939Y-77066448D01*
X253184500Y-77302828D01*
X186500500Y-77302828D01*
X186500500Y-72381902D01*
X195839500Y-72381902D01*
X195839500Y-72618097D01*
X195876446Y-72851368D01*
X195949433Y-73075996D01*
X196033578Y-73241138D01*
X196056657Y-73286433D01*
X196195483Y-73477510D01*
X196362490Y-73644517D01*
X196553567Y-73783343D01*
X196620192Y-73817290D01*
X196764003Y-73890566D01*
X196764005Y-73890566D01*
X196764008Y-73890568D01*
X196859333Y-73921541D01*
X196988631Y-73963553D01*
X197221903Y-74000500D01*
X197221908Y-74000500D01*
X197458097Y-74000500D01*
X197691368Y-73963553D01*
X197915992Y-73890568D01*
X198126433Y-73783343D01*
X198317510Y-73644517D01*
X198484517Y-73477510D01*
X198623343Y-73286433D01*
X198661259Y-73212019D01*
X219531500Y-73212019D01*
X219531500Y-73417980D01*
X219563719Y-73621408D01*
X219627367Y-73817294D01*
X219720873Y-74000806D01*
X219841926Y-74167423D01*
X219841930Y-74167428D01*
X219987571Y-74313069D01*
X219987576Y-74313073D01*
X220132908Y-74418661D01*
X220154197Y-74434129D01*
X220271128Y-74493709D01*
X220337705Y-74527632D01*
X220337707Y-74527632D01*
X220337710Y-74527634D01*
X220442707Y-74561749D01*
X220533591Y-74591280D01*
X220635305Y-74607390D01*
X220737019Y-74623500D01*
X220737020Y-74623500D01*
X220942980Y-74623500D01*
X220942981Y-74623500D01*
X221146408Y-74591280D01*
X221342290Y-74527634D01*
X221525803Y-74434129D01*
X221692430Y-74313068D01*
X221838068Y-74167430D01*
X221959129Y-74000803D01*
X221999515Y-73921540D01*
X222047490Y-73870745D01*
X222115311Y-73853950D01*
X222181446Y-73876487D01*
X222220485Y-73921541D01*
X222260873Y-74000806D01*
X222381926Y-74167423D01*
X222381930Y-74167428D01*
X222527571Y-74313069D01*
X222527576Y-74313073D01*
X222672908Y-74418661D01*
X222694197Y-74434129D01*
X222811128Y-74493709D01*
X222877705Y-74527632D01*
X222877707Y-74527632D01*
X222877710Y-74527634D01*
X222982707Y-74561749D01*
X223073591Y-74591280D01*
X223175305Y-74607390D01*
X223277019Y-74623500D01*
X223277020Y-74623500D01*
X223482980Y-74623500D01*
X223482981Y-74623500D01*
X223686408Y-74591280D01*
X223882290Y-74527634D01*
X224065803Y-74434129D01*
X224232430Y-74313068D01*
X224378068Y-74167430D01*
X224499129Y-74000803D01*
X224539515Y-73921540D01*
X224587490Y-73870745D01*
X224655311Y-73853950D01*
X224721446Y-73876487D01*
X224760485Y-73921541D01*
X224800873Y-74000806D01*
X224921926Y-74167423D01*
X224921930Y-74167428D01*
X225067571Y-74313069D01*
X225067576Y-74313073D01*
X225212908Y-74418661D01*
X225234197Y-74434129D01*
X225351128Y-74493709D01*
X225417705Y-74527632D01*
X225417707Y-74527632D01*
X225417710Y-74527634D01*
X225522707Y-74561749D01*
X225613591Y-74591280D01*
X225715305Y-74607390D01*
X225817019Y-74623500D01*
X225817020Y-74623500D01*
X226022980Y-74623500D01*
X226022981Y-74623500D01*
X226226408Y-74591280D01*
X226422290Y-74527634D01*
X226605803Y-74434129D01*
X226772430Y-74313068D01*
X226918068Y-74167430D01*
X227039129Y-74000803D01*
X227079515Y-73921540D01*
X227127490Y-73870745D01*
X227195311Y-73853950D01*
X227261446Y-73876487D01*
X227300485Y-73921541D01*
X227340873Y-74000806D01*
X227461926Y-74167423D01*
X227461930Y-74167428D01*
X227607571Y-74313069D01*
X227607576Y-74313073D01*
X227752908Y-74418661D01*
X227774197Y-74434129D01*
X227891128Y-74493709D01*
X227957705Y-74527632D01*
X227957707Y-74527632D01*
X227957710Y-74527634D01*
X228062707Y-74561749D01*
X228153591Y-74591280D01*
X228255305Y-74607390D01*
X228357019Y-74623500D01*
X228357020Y-74623500D01*
X228562980Y-74623500D01*
X228562981Y-74623500D01*
X228766408Y-74591280D01*
X228962290Y-74527634D01*
X229145803Y-74434129D01*
X229312430Y-74313068D01*
X229458068Y-74167430D01*
X229579129Y-74000803D01*
X229619515Y-73921540D01*
X229667490Y-73870745D01*
X229735311Y-73853950D01*
X229801446Y-73876487D01*
X229840485Y-73921541D01*
X229880873Y-74000806D01*
X230001926Y-74167423D01*
X230001930Y-74167428D01*
X230147571Y-74313069D01*
X230147576Y-74313073D01*
X230292908Y-74418661D01*
X230314197Y-74434129D01*
X230431128Y-74493709D01*
X230497705Y-74527632D01*
X230497707Y-74527632D01*
X230497710Y-74527634D01*
X230602707Y-74561749D01*
X230693591Y-74591280D01*
X230795305Y-74607390D01*
X230897019Y-74623500D01*
X230897020Y-74623500D01*
X231102980Y-74623500D01*
X231102981Y-74623500D01*
X231306408Y-74591280D01*
X231502290Y-74527634D01*
X231685803Y-74434129D01*
X231852430Y-74313068D01*
X231998068Y-74167430D01*
X232119129Y-74000803D01*
X232159515Y-73921540D01*
X232207490Y-73870745D01*
X232275311Y-73853950D01*
X232341446Y-73876487D01*
X232380485Y-73921541D01*
X232420873Y-74000806D01*
X232541926Y-74167423D01*
X232541930Y-74167428D01*
X232687571Y-74313069D01*
X232687576Y-74313073D01*
X232832908Y-74418661D01*
X232854197Y-74434129D01*
X232971128Y-74493709D01*
X233037705Y-74527632D01*
X233037707Y-74527632D01*
X233037710Y-74527634D01*
X233142707Y-74561749D01*
X233233591Y-74591280D01*
X233335305Y-74607390D01*
X233437019Y-74623500D01*
X233437020Y-74623500D01*
X233642980Y-74623500D01*
X233642981Y-74623500D01*
X233846408Y-74591280D01*
X234042290Y-74527634D01*
X234225803Y-74434129D01*
X234392430Y-74313068D01*
X234538068Y-74167430D01*
X234659129Y-74000803D01*
X234699515Y-73921540D01*
X234747490Y-73870745D01*
X234815311Y-73853950D01*
X234881446Y-73876487D01*
X234920485Y-73921541D01*
X234960873Y-74000806D01*
X235081926Y-74167423D01*
X235081930Y-74167428D01*
X235227571Y-74313069D01*
X235227576Y-74313073D01*
X235372908Y-74418661D01*
X235394197Y-74434129D01*
X235511128Y-74493709D01*
X235577705Y-74527632D01*
X235577707Y-74527632D01*
X235577710Y-74527634D01*
X235682707Y-74561749D01*
X235773591Y-74591280D01*
X235875305Y-74607390D01*
X235977019Y-74623500D01*
X235977020Y-74623500D01*
X236182980Y-74623500D01*
X236182981Y-74623500D01*
X236386408Y-74591280D01*
X236582290Y-74527634D01*
X236765803Y-74434129D01*
X236932430Y-74313068D01*
X237078068Y-74167430D01*
X237199129Y-74000803D01*
X237239515Y-73921540D01*
X237287490Y-73870745D01*
X237355311Y-73853950D01*
X237421446Y-73876487D01*
X237460485Y-73921541D01*
X237500873Y-74000806D01*
X237621926Y-74167423D01*
X237621930Y-74167428D01*
X237767571Y-74313069D01*
X237767576Y-74313073D01*
X237912908Y-74418661D01*
X237934197Y-74434129D01*
X238051128Y-74493709D01*
X238117705Y-74527632D01*
X238117707Y-74527632D01*
X238117710Y-74527634D01*
X238222707Y-74561749D01*
X238313591Y-74591280D01*
X238415305Y-74607390D01*
X238517019Y-74623500D01*
X238517020Y-74623500D01*
X238722980Y-74623500D01*
X238722981Y-74623500D01*
X238926408Y-74591280D01*
X239122290Y-74527634D01*
X239305803Y-74434129D01*
X239472430Y-74313068D01*
X239618068Y-74167430D01*
X239739129Y-74000803D01*
X239779515Y-73921540D01*
X239827490Y-73870745D01*
X239895311Y-73853950D01*
X239961446Y-73876487D01*
X240000485Y-73921541D01*
X240040873Y-74000806D01*
X240161926Y-74167423D01*
X240161930Y-74167428D01*
X240307571Y-74313069D01*
X240307576Y-74313073D01*
X240452908Y-74418661D01*
X240474197Y-74434129D01*
X240591128Y-74493709D01*
X240657705Y-74527632D01*
X240657707Y-74527632D01*
X240657710Y-74527634D01*
X240762707Y-74561749D01*
X240853591Y-74591280D01*
X240955305Y-74607390D01*
X241057019Y-74623500D01*
X241057020Y-74623500D01*
X241262980Y-74623500D01*
X241262981Y-74623500D01*
X241466408Y-74591280D01*
X241662290Y-74527634D01*
X241845803Y-74434129D01*
X242012430Y-74313068D01*
X242158068Y-74167430D01*
X242279129Y-74000803D01*
X242372634Y-73817290D01*
X242436280Y-73621408D01*
X242468500Y-73417981D01*
X242468500Y-73212019D01*
X242436280Y-73008592D01*
X242372634Y-72812710D01*
X242372632Y-72812707D01*
X242372632Y-72812705D01*
X242319515Y-72708459D01*
X242279129Y-72629197D01*
X242263661Y-72607908D01*
X242158073Y-72462576D01*
X242158069Y-72462571D01*
X242012428Y-72316930D01*
X242012423Y-72316926D01*
X241845806Y-72195873D01*
X241845805Y-72195872D01*
X241845803Y-72195871D01*
X241741450Y-72142700D01*
X241662294Y-72102367D01*
X241466408Y-72038719D01*
X241290794Y-72010905D01*
X241262981Y-72006500D01*
X241057019Y-72006500D01*
X241032550Y-72010375D01*
X240853591Y-72038719D01*
X240657705Y-72102367D01*
X240474193Y-72195873D01*
X240307576Y-72316926D01*
X240307571Y-72316930D01*
X240161930Y-72462571D01*
X240161926Y-72462576D01*
X240040871Y-72629195D01*
X240000484Y-72708459D01*
X239952510Y-72759254D01*
X239884689Y-72776049D01*
X239818554Y-72753511D01*
X239779516Y-72708459D01*
X239739128Y-72629195D01*
X239618073Y-72462576D01*
X239618069Y-72462571D01*
X239472428Y-72316930D01*
X239472423Y-72316926D01*
X239305806Y-72195873D01*
X239305805Y-72195872D01*
X239305803Y-72195871D01*
X239201450Y-72142700D01*
X239122294Y-72102367D01*
X238926408Y-72038719D01*
X238750794Y-72010905D01*
X238722981Y-72006500D01*
X238517019Y-72006500D01*
X238492550Y-72010375D01*
X238313591Y-72038719D01*
X238117705Y-72102367D01*
X237934193Y-72195873D01*
X237767576Y-72316926D01*
X237767571Y-72316930D01*
X237621930Y-72462571D01*
X237621926Y-72462576D01*
X237500871Y-72629195D01*
X237460484Y-72708459D01*
X237412510Y-72759254D01*
X237344689Y-72776049D01*
X237278554Y-72753511D01*
X237239516Y-72708459D01*
X237199128Y-72629195D01*
X237078073Y-72462576D01*
X237078069Y-72462571D01*
X236932428Y-72316930D01*
X236932423Y-72316926D01*
X236765806Y-72195873D01*
X236765805Y-72195872D01*
X236765803Y-72195871D01*
X236661450Y-72142700D01*
X236582294Y-72102367D01*
X236386408Y-72038719D01*
X236210794Y-72010905D01*
X236182981Y-72006500D01*
X235977019Y-72006500D01*
X235952550Y-72010375D01*
X235773591Y-72038719D01*
X235577705Y-72102367D01*
X235394193Y-72195873D01*
X235227576Y-72316926D01*
X235227571Y-72316930D01*
X235081930Y-72462571D01*
X235081926Y-72462576D01*
X234960871Y-72629195D01*
X234920484Y-72708459D01*
X234872510Y-72759254D01*
X234804689Y-72776049D01*
X234738554Y-72753511D01*
X234699516Y-72708459D01*
X234659128Y-72629195D01*
X234538073Y-72462576D01*
X234538069Y-72462571D01*
X234392428Y-72316930D01*
X234392423Y-72316926D01*
X234225806Y-72195873D01*
X234225805Y-72195872D01*
X234225803Y-72195871D01*
X234121450Y-72142700D01*
X234042294Y-72102367D01*
X233846408Y-72038719D01*
X233670794Y-72010905D01*
X233642981Y-72006500D01*
X233437019Y-72006500D01*
X233412550Y-72010375D01*
X233233591Y-72038719D01*
X233037705Y-72102367D01*
X232854193Y-72195873D01*
X232687576Y-72316926D01*
X232687571Y-72316930D01*
X232541930Y-72462571D01*
X232541926Y-72462576D01*
X232420871Y-72629195D01*
X232380484Y-72708459D01*
X232332510Y-72759254D01*
X232264689Y-72776049D01*
X232198554Y-72753511D01*
X232159516Y-72708459D01*
X232119128Y-72629195D01*
X231998073Y-72462576D01*
X231998069Y-72462571D01*
X231852428Y-72316930D01*
X231852423Y-72316926D01*
X231685806Y-72195873D01*
X231685805Y-72195872D01*
X231685803Y-72195871D01*
X231581450Y-72142700D01*
X231502294Y-72102367D01*
X231306408Y-72038719D01*
X231130794Y-72010905D01*
X231102981Y-72006500D01*
X230897019Y-72006500D01*
X230872550Y-72010375D01*
X230693591Y-72038719D01*
X230497705Y-72102367D01*
X230314193Y-72195873D01*
X230147576Y-72316926D01*
X230147571Y-72316930D01*
X230001930Y-72462571D01*
X230001926Y-72462576D01*
X229880871Y-72629195D01*
X229840484Y-72708459D01*
X229792510Y-72759254D01*
X229724689Y-72776049D01*
X229658554Y-72753511D01*
X229619516Y-72708459D01*
X229579128Y-72629195D01*
X229458073Y-72462576D01*
X229458069Y-72462571D01*
X229312428Y-72316930D01*
X229312423Y-72316926D01*
X229145806Y-72195873D01*
X229145805Y-72195872D01*
X229145803Y-72195871D01*
X229041450Y-72142700D01*
X228962294Y-72102367D01*
X228766408Y-72038719D01*
X228590794Y-72010905D01*
X228562981Y-72006500D01*
X228357019Y-72006500D01*
X228332550Y-72010375D01*
X228153591Y-72038719D01*
X227957705Y-72102367D01*
X227774193Y-72195873D01*
X227607576Y-72316926D01*
X227607571Y-72316930D01*
X227461930Y-72462571D01*
X227461926Y-72462576D01*
X227340871Y-72629195D01*
X227300484Y-72708459D01*
X227252510Y-72759254D01*
X227184689Y-72776049D01*
X227118554Y-72753511D01*
X227079516Y-72708459D01*
X227039128Y-72629195D01*
X226918073Y-72462576D01*
X226918069Y-72462571D01*
X226772428Y-72316930D01*
X226772423Y-72316926D01*
X226605806Y-72195873D01*
X226605805Y-72195872D01*
X226605803Y-72195871D01*
X226501450Y-72142700D01*
X226422294Y-72102367D01*
X226226408Y-72038719D01*
X226050794Y-72010905D01*
X226022981Y-72006500D01*
X225817019Y-72006500D01*
X225792550Y-72010375D01*
X225613591Y-72038719D01*
X225417705Y-72102367D01*
X225234193Y-72195873D01*
X225067576Y-72316926D01*
X225067571Y-72316930D01*
X224921930Y-72462571D01*
X224921926Y-72462576D01*
X224800871Y-72629195D01*
X224760484Y-72708459D01*
X224712510Y-72759254D01*
X224644689Y-72776049D01*
X224578554Y-72753511D01*
X224539516Y-72708459D01*
X224499128Y-72629195D01*
X224378073Y-72462576D01*
X224378069Y-72462571D01*
X224232428Y-72316930D01*
X224232423Y-72316926D01*
X224065806Y-72195873D01*
X224065805Y-72195872D01*
X224065803Y-72195871D01*
X223961450Y-72142700D01*
X223882294Y-72102367D01*
X223686408Y-72038719D01*
X223510794Y-72010905D01*
X223482981Y-72006500D01*
X223277019Y-72006500D01*
X223252550Y-72010375D01*
X223073591Y-72038719D01*
X222877705Y-72102367D01*
X222694193Y-72195873D01*
X222527576Y-72316926D01*
X222527571Y-72316930D01*
X222381930Y-72462571D01*
X222381926Y-72462576D01*
X222260871Y-72629195D01*
X222220484Y-72708459D01*
X222172510Y-72759254D01*
X222104689Y-72776049D01*
X222038554Y-72753511D01*
X221999516Y-72708459D01*
X221959128Y-72629195D01*
X221838073Y-72462576D01*
X221838069Y-72462571D01*
X221692428Y-72316930D01*
X221692423Y-72316926D01*
X221525806Y-72195873D01*
X221525805Y-72195872D01*
X221525803Y-72195871D01*
X221421450Y-72142700D01*
X221342294Y-72102367D01*
X221146408Y-72038719D01*
X220970794Y-72010905D01*
X220942981Y-72006500D01*
X220737019Y-72006500D01*
X220712550Y-72010375D01*
X220533591Y-72038719D01*
X220337705Y-72102367D01*
X220154193Y-72195873D01*
X219987576Y-72316926D01*
X219987571Y-72316930D01*
X219841930Y-72462571D01*
X219841926Y-72462576D01*
X219720873Y-72629193D01*
X219627367Y-72812705D01*
X219563719Y-73008591D01*
X219531500Y-73212019D01*
X198661259Y-73212019D01*
X198730568Y-73075992D01*
X198803553Y-72851368D01*
X198809677Y-72812705D01*
X198840500Y-72618097D01*
X198840500Y-72381902D01*
X198803553Y-72148631D01*
X198730566Y-71924003D01*
X198629638Y-71725922D01*
X198623343Y-71713567D01*
X198484517Y-71522490D01*
X198317510Y-71355483D01*
X198126433Y-71216657D01*
X197915996Y-71109433D01*
X197691368Y-71036446D01*
X197557784Y-71015289D01*
X197458097Y-70999500D01*
X197458092Y-70999500D01*
X197221908Y-70999500D01*
X197221903Y-70999500D01*
X196988631Y-71036446D01*
X196764003Y-71109433D01*
X196553566Y-71216657D01*
X196444550Y-71295862D01*
X196362490Y-71355483D01*
X196362488Y-71355485D01*
X196362487Y-71355485D01*
X196195485Y-71522487D01*
X196195485Y-71522488D01*
X196195483Y-71522490D01*
X196135862Y-71604550D01*
X196056657Y-71713566D01*
X195949433Y-71924003D01*
X195876446Y-72148631D01*
X195839500Y-72381902D01*
X186500500Y-72381902D01*
X186500500Y-70897682D01*
X246200000Y-70897682D01*
X246200000Y-71102317D01*
X246232009Y-71304417D01*
X246295244Y-71499031D01*
X246388141Y-71681350D01*
X246388147Y-71681359D01*
X246420523Y-71725921D01*
X246420524Y-71725922D01*
X247100000Y-71046446D01*
X247100000Y-71052661D01*
X247127259Y-71154394D01*
X247179920Y-71245606D01*
X247254394Y-71320080D01*
X247345606Y-71372741D01*
X247447339Y-71400000D01*
X247453553Y-71400000D01*
X246774076Y-72079474D01*
X246818650Y-72111859D01*
X247000968Y-72204755D01*
X247195582Y-72267990D01*
X247397683Y-72300000D01*
X247602317Y-72300000D01*
X247804417Y-72267990D01*
X247999031Y-72204755D01*
X248181349Y-72111859D01*
X248225921Y-72079474D01*
X247546447Y-71400000D01*
X247552661Y-71400000D01*
X247654394Y-71372741D01*
X247745606Y-71320080D01*
X247820080Y-71245606D01*
X247872741Y-71154394D01*
X247900000Y-71052661D01*
X247900000Y-71046447D01*
X248579474Y-71725921D01*
X248611859Y-71681349D01*
X248704755Y-71499031D01*
X248736211Y-71402222D01*
X248767990Y-71304417D01*
X248800000Y-71102317D01*
X248800000Y-70897682D01*
X248767990Y-70695582D01*
X248704755Y-70500968D01*
X248611859Y-70318650D01*
X248579474Y-70274077D01*
X248579474Y-70274076D01*
X247900000Y-70953551D01*
X247900000Y-70947339D01*
X247872741Y-70845606D01*
X247820080Y-70754394D01*
X247745606Y-70679920D01*
X247654394Y-70627259D01*
X247552661Y-70600000D01*
X247546446Y-70600000D01*
X248225922Y-69920524D01*
X248225921Y-69920523D01*
X248181359Y-69888147D01*
X248181350Y-69888141D01*
X248012026Y-69801866D01*
X248012024Y-69801864D01*
X247999034Y-69795245D01*
X247804417Y-69732009D01*
X247602317Y-69700000D01*
X247397683Y-69700000D01*
X247195582Y-69732009D01*
X247000968Y-69795244D01*
X246818644Y-69888143D01*
X246774077Y-69920523D01*
X246774077Y-69920524D01*
X247453554Y-70600000D01*
X247447339Y-70600000D01*
X247345606Y-70627259D01*
X247254394Y-70679920D01*
X247179920Y-70754394D01*
X247127259Y-70845606D01*
X247100000Y-70947339D01*
X247100000Y-70953553D01*
X246420524Y-70274077D01*
X246420523Y-70274077D01*
X246388143Y-70318644D01*
X246295244Y-70500968D01*
X246232009Y-70695582D01*
X246200000Y-70897682D01*
X186500500Y-70897682D01*
X186500500Y-32231345D01*
X189611500Y-32231345D01*
X189611500Y-34028654D01*
X189618011Y-34089202D01*
X189618011Y-34089204D01*
X189669111Y-34226204D01*
X189756739Y-34343261D01*
X189873796Y-34430889D01*
X190003382Y-34479222D01*
X190059313Y-34521093D01*
X190083730Y-34586557D01*
X190068878Y-34654830D01*
X190047728Y-34683084D01*
X189940271Y-34790541D01*
X189815379Y-34962442D01*
X189718904Y-35151782D01*
X189653242Y-35353870D01*
X189653242Y-35353873D01*
X189642769Y-35420000D01*
X190536988Y-35420000D01*
X190504075Y-35477007D01*
X190470000Y-35604174D01*
X190470000Y-35735826D01*
X190504075Y-35862993D01*
X190536988Y-35920000D01*
X189642769Y-35920000D01*
X189653242Y-35986126D01*
X189653242Y-35986129D01*
X189718904Y-36188217D01*
X189815379Y-36377557D01*
X189940272Y-36549459D01*
X189940276Y-36549464D01*
X190090535Y-36699723D01*
X190090540Y-36699727D01*
X190262441Y-36824620D01*
X190262682Y-36824743D01*
X190262758Y-36824815D01*
X190266598Y-36827168D01*
X190266103Y-36827974D01*
X190313479Y-36872716D01*
X190330275Y-36940537D01*
X190307739Y-37006672D01*
X190262693Y-37045709D01*
X190257994Y-37048103D01*
X190084993Y-37173796D01*
X189933796Y-37324993D01*
X189808106Y-37497990D01*
X189711027Y-37688516D01*
X189711026Y-37688519D01*
X189644951Y-37891882D01*
X189611500Y-38103084D01*
X189611500Y-38316915D01*
X189644951Y-38528117D01*
X189711026Y-38731480D01*
X189711027Y-38731483D01*
X189803011Y-38912009D01*
X189808106Y-38922009D01*
X189933794Y-39095004D01*
X190084996Y-39246206D01*
X190247502Y-39364273D01*
X190257991Y-39371894D01*
X190261873Y-39374273D01*
X190308748Y-39426086D01*
X190320169Y-39495016D01*
X190292512Y-39559178D01*
X190261873Y-39585727D01*
X190257991Y-39588105D01*
X190084993Y-39713796D01*
X189933796Y-39864993D01*
X189808106Y-40037990D01*
X189711027Y-40228516D01*
X189711026Y-40228519D01*
X189644951Y-40431882D01*
X189644951Y-40431884D01*
X189611500Y-40643084D01*
X189611500Y-40856916D01*
X189628225Y-40962516D01*
X189644951Y-41068117D01*
X189711026Y-41271480D01*
X189711027Y-41271483D01*
X189766764Y-41380871D01*
X189808106Y-41462009D01*
X189933794Y-41635004D01*
X190084996Y-41786206D01*
X190247502Y-41904273D01*
X190257991Y-41911894D01*
X190261873Y-41914273D01*
X190308748Y-41966086D01*
X190320169Y-42035016D01*
X190292512Y-42099178D01*
X190261873Y-42125727D01*
X190257991Y-42128105D01*
X190084993Y-42253796D01*
X189933796Y-42404993D01*
X189808106Y-42577990D01*
X189711027Y-42768516D01*
X189711026Y-42768519D01*
X189644951Y-42971882D01*
X189611500Y-43183084D01*
X189611500Y-43396915D01*
X189644951Y-43608117D01*
X189711026Y-43811480D01*
X189711027Y-43811483D01*
X189803011Y-43992009D01*
X189808106Y-44002009D01*
X189933794Y-44175004D01*
X190084996Y-44326206D01*
X190244226Y-44441893D01*
X190257991Y-44451894D01*
X190261873Y-44454273D01*
X190308748Y-44506086D01*
X190320169Y-44575016D01*
X190292512Y-44639178D01*
X190261873Y-44665727D01*
X190257991Y-44668105D01*
X190084993Y-44793796D01*
X189933796Y-44944993D01*
X189808106Y-45117990D01*
X189711027Y-45308516D01*
X189711026Y-45308519D01*
X189644951Y-45511882D01*
X189644951Y-45511884D01*
X189611500Y-45723084D01*
X189611500Y-45936916D01*
X189621508Y-46000106D01*
X189644951Y-46148117D01*
X189711026Y-46351480D01*
X189711027Y-46351483D01*
X189786562Y-46499727D01*
X189808106Y-46542009D01*
X189933794Y-46715004D01*
X190084996Y-46866206D01*
X190162195Y-46922294D01*
X190257991Y-46991894D01*
X190261873Y-46994273D01*
X190308748Y-47046086D01*
X190320169Y-47115016D01*
X190292512Y-47179178D01*
X190261873Y-47205727D01*
X190257991Y-47208105D01*
X190084993Y-47333796D01*
X189933796Y-47484993D01*
X189808106Y-47657990D01*
X189711027Y-47848516D01*
X189711026Y-47848519D01*
X189644951Y-48051882D01*
X189611500Y-48263084D01*
X189611500Y-48476915D01*
X189644951Y-48688117D01*
X189711026Y-48891480D01*
X189711027Y-48891483D01*
X189805913Y-49077705D01*
X189808106Y-49082009D01*
X189933794Y-49255004D01*
X190084996Y-49406206D01*
X190250502Y-49526453D01*
X190257991Y-49531894D01*
X190261873Y-49534273D01*
X190308748Y-49586086D01*
X190320169Y-49655016D01*
X190292512Y-49719178D01*
X190261873Y-49745727D01*
X190257991Y-49748105D01*
X190084993Y-49873796D01*
X189933796Y-50024993D01*
X189808106Y-50197990D01*
X189711027Y-50388516D01*
X189711026Y-50388519D01*
X189644951Y-50591882D01*
X189611500Y-50803084D01*
X189611500Y-51016915D01*
X189644951Y-51228117D01*
X189711026Y-51431480D01*
X189711027Y-51431483D01*
X189795013Y-51596313D01*
X189808106Y-51622009D01*
X189933794Y-51795004D01*
X190084996Y-51946206D01*
X190257991Y-52071894D01*
X190261873Y-52074273D01*
X190308748Y-52126086D01*
X190320169Y-52195016D01*
X190292512Y-52259178D01*
X190261873Y-52285727D01*
X190257991Y-52288105D01*
X190084993Y-52413796D01*
X189933796Y-52564993D01*
X189808106Y-52737990D01*
X189711027Y-52928516D01*
X189711026Y-52928519D01*
X189644951Y-53131882D01*
X189611500Y-53343084D01*
X189611500Y-53556915D01*
X189644951Y-53768117D01*
X189711026Y-53971480D01*
X189711027Y-53971483D01*
X189797656Y-54141500D01*
X189808106Y-54162009D01*
X189933794Y-54335004D01*
X190084996Y-54486206D01*
X190180509Y-54555600D01*
X190257991Y-54611894D01*
X190261873Y-54614273D01*
X190308748Y-54666086D01*
X190320169Y-54735016D01*
X190292512Y-54799178D01*
X190261873Y-54825727D01*
X190257991Y-54828105D01*
X190084993Y-54953796D01*
X189933796Y-55104993D01*
X189808106Y-55277990D01*
X189711027Y-55468516D01*
X189711026Y-55468519D01*
X189644951Y-55671882D01*
X189623545Y-55807037D01*
X189611500Y-55883084D01*
X189611500Y-56096916D01*
X189612461Y-56102981D01*
X189644951Y-56308117D01*
X189711026Y-56511480D01*
X189711027Y-56511483D01*
X189799849Y-56685803D01*
X189808106Y-56702009D01*
X189933794Y-56875004D01*
X190084996Y-57026206D01*
X190257991Y-57151894D01*
X190261873Y-57154273D01*
X190308748Y-57206086D01*
X190320169Y-57275016D01*
X190292512Y-57339178D01*
X190261873Y-57365727D01*
X190257991Y-57368105D01*
X190084993Y-57493796D01*
X189933796Y-57644993D01*
X189808106Y-57817990D01*
X189711027Y-58008516D01*
X189711026Y-58008519D01*
X189644951Y-58211882D01*
X189611500Y-58423084D01*
X189611500Y-58636915D01*
X189644951Y-58848117D01*
X189711026Y-59051480D01*
X189711027Y-59051483D01*
X189804207Y-59234356D01*
X189808106Y-59242009D01*
X189933794Y-59415004D01*
X190084996Y-59566206D01*
X190257991Y-59691894D01*
X190261873Y-59694273D01*
X190308748Y-59746086D01*
X190320169Y-59815016D01*
X190292512Y-59879178D01*
X190261873Y-59905727D01*
X190257991Y-59908105D01*
X190084993Y-60033796D01*
X189933796Y-60184993D01*
X189808106Y-60357990D01*
X189711027Y-60548516D01*
X189711026Y-60548519D01*
X189644951Y-60751882D01*
X189611500Y-60963084D01*
X189611500Y-61176915D01*
X189644951Y-61388117D01*
X189711026Y-61591480D01*
X189711027Y-61591483D01*
X189778406Y-61723720D01*
X189808106Y-61782009D01*
X189933794Y-61955004D01*
X190084996Y-62106206D01*
X190146123Y-62150617D01*
X190257991Y-62231894D01*
X190261873Y-62234273D01*
X190308748Y-62286086D01*
X190320169Y-62355016D01*
X190292512Y-62419178D01*
X190261873Y-62445727D01*
X190257991Y-62448105D01*
X190084993Y-62573796D01*
X189933796Y-62724993D01*
X189808106Y-62897990D01*
X189711027Y-63088516D01*
X189711026Y-63088519D01*
X189644951Y-63291882D01*
X189611500Y-63503084D01*
X189611500Y-63716915D01*
X189644951Y-63928117D01*
X189711026Y-64131480D01*
X189711027Y-64131483D01*
X189781626Y-64270040D01*
X189808106Y-64322009D01*
X189933794Y-64495004D01*
X190084996Y-64646206D01*
X190191684Y-64723719D01*
X190257991Y-64771894D01*
X190261873Y-64774273D01*
X190308748Y-64826086D01*
X190320169Y-64895016D01*
X190292512Y-64959178D01*
X190261873Y-64985727D01*
X190257991Y-64988105D01*
X190084993Y-65113796D01*
X189933796Y-65264993D01*
X189808106Y-65437990D01*
X189711027Y-65628516D01*
X189711026Y-65628519D01*
X189644951Y-65831882D01*
X189628051Y-65938586D01*
X189611500Y-66043084D01*
X189611500Y-66256916D01*
X189617617Y-66295537D01*
X189644951Y-66468117D01*
X189711026Y-66671480D01*
X189711027Y-66671483D01*
X189783708Y-66814126D01*
X189808106Y-66862009D01*
X189933794Y-67035004D01*
X190084996Y-67186206D01*
X190257991Y-67311894D01*
X190351438Y-67359507D01*
X190448516Y-67408972D01*
X190448519Y-67408973D01*
X190550200Y-67442010D01*
X190651884Y-67475049D01*
X190863084Y-67508500D01*
X190863085Y-67508500D01*
X191076915Y-67508500D01*
X191076916Y-67508500D01*
X191288116Y-67475049D01*
X191491483Y-67408972D01*
X191682009Y-67311894D01*
X191855004Y-67186206D01*
X192006206Y-67035004D01*
X192131894Y-66862009D01*
X192228972Y-66671483D01*
X192295049Y-66468116D01*
X192328500Y-66256916D01*
X192328500Y-66043084D01*
X192295049Y-65831884D01*
X192228972Y-65628517D01*
X192228972Y-65628516D01*
X192131893Y-65437990D01*
X192097449Y-65390582D01*
X192006206Y-65264996D01*
X191855004Y-65113794D01*
X191828375Y-65094447D01*
X219531500Y-65094447D01*
X219531500Y-66295537D01*
X219531501Y-66295553D01*
X219542113Y-66399427D01*
X219575354Y-66499744D01*
X219597885Y-66567738D01*
X219690970Y-66718652D01*
X219816348Y-66844030D01*
X219967262Y-66937115D01*
X220135574Y-66992887D01*
X220239455Y-67003500D01*
X221440544Y-67003499D01*
X221544426Y-66992887D01*
X221712738Y-66937115D01*
X221863652Y-66844030D01*
X221989030Y-66718652D01*
X222082115Y-66567738D01*
X222104646Y-66499742D01*
X222144417Y-66442299D01*
X222208932Y-66415475D01*
X222277708Y-66427789D01*
X222322669Y-66465862D01*
X222381926Y-66547424D01*
X222527571Y-66693069D01*
X222527576Y-66693073D01*
X222593565Y-66741016D01*
X222694197Y-66814129D01*
X222811128Y-66873709D01*
X222877705Y-66907632D01*
X222877707Y-66907632D01*
X222877710Y-66907634D01*
X222968437Y-66937113D01*
X223073591Y-66971280D01*
X223175305Y-66987390D01*
X223277019Y-67003500D01*
X223277020Y-67003500D01*
X223482980Y-67003500D01*
X223482981Y-67003500D01*
X223686408Y-66971280D01*
X223882290Y-66907634D01*
X224065803Y-66814129D01*
X224232430Y-66693068D01*
X224378068Y-66547430D01*
X224499129Y-66380803D01*
X224544284Y-66292180D01*
X224592258Y-66241384D01*
X224660079Y-66224589D01*
X224726214Y-66247126D01*
X224765254Y-66292180D01*
X224808141Y-66376350D01*
X224808147Y-66376359D01*
X224840523Y-66420921D01*
X224840524Y-66420922D01*
X225520000Y-65741446D01*
X225520000Y-65747661D01*
X225547259Y-65849394D01*
X225599920Y-65940606D01*
X225674394Y-66015080D01*
X225765606Y-66067741D01*
X225867339Y-66095000D01*
X225873553Y-66095000D01*
X225194076Y-66774474D01*
X225238650Y-66806859D01*
X225420968Y-66899755D01*
X225615582Y-66962990D01*
X225817683Y-66995000D01*
X226022317Y-66995000D01*
X226224417Y-66962990D01*
X226419031Y-66899755D01*
X226601349Y-66806859D01*
X226645921Y-66774474D01*
X225966447Y-66095000D01*
X225972661Y-66095000D01*
X226074394Y-66067741D01*
X226165606Y-66015080D01*
X226240080Y-65940606D01*
X226292741Y-65849394D01*
X226320000Y-65747661D01*
X226320000Y-65741447D01*
X226999474Y-66420921D01*
X227031861Y-66376347D01*
X227031861Y-66376346D01*
X227079515Y-66282820D01*
X227127489Y-66232024D01*
X227195310Y-66215228D01*
X227261445Y-66237765D01*
X227300485Y-66282819D01*
X227348141Y-66376350D01*
X227348147Y-66376359D01*
X227380523Y-66420921D01*
X227380524Y-66420922D01*
X228060000Y-65741446D01*
X228060000Y-65747661D01*
X228087259Y-65849394D01*
X228139920Y-65940606D01*
X228214394Y-66015080D01*
X228305606Y-66067741D01*
X228407339Y-66095000D01*
X228413553Y-66095000D01*
X227734076Y-66774474D01*
X227778650Y-66806859D01*
X227960968Y-66899755D01*
X228155582Y-66962990D01*
X228357683Y-66995000D01*
X228562317Y-66995000D01*
X228764417Y-66962990D01*
X228959031Y-66899755D01*
X229141349Y-66806859D01*
X229185921Y-66774474D01*
X228506447Y-66095000D01*
X228512661Y-66095000D01*
X228614394Y-66067741D01*
X228705606Y-66015080D01*
X228780080Y-65940606D01*
X228832741Y-65849394D01*
X228860000Y-65747661D01*
X228860000Y-65741447D01*
X229539474Y-66420921D01*
X229571861Y-66376347D01*
X229571861Y-66376346D01*
X229619515Y-66282820D01*
X229667489Y-66232024D01*
X229735310Y-66215228D01*
X229801445Y-66237765D01*
X229840485Y-66282819D01*
X229888141Y-66376350D01*
X229888147Y-66376359D01*
X229920523Y-66420921D01*
X229920524Y-66420922D01*
X230600000Y-65741446D01*
X230600000Y-65747661D01*
X230627259Y-65849394D01*
X230679920Y-65940606D01*
X230754394Y-66015080D01*
X230845606Y-66067741D01*
X230947339Y-66095000D01*
X230953553Y-66095000D01*
X230274076Y-66774474D01*
X230318650Y-66806859D01*
X230500968Y-66899755D01*
X230695582Y-66962990D01*
X230897683Y-66995000D01*
X231102317Y-66995000D01*
X231304417Y-66962990D01*
X231499031Y-66899755D01*
X231681349Y-66806859D01*
X231725922Y-66774474D01*
X231046447Y-66095000D01*
X231052661Y-66095000D01*
X231154394Y-66067741D01*
X231245606Y-66015080D01*
X231320080Y-65940606D01*
X231372741Y-65849394D01*
X231400000Y-65747661D01*
X231400000Y-65741447D01*
X232079474Y-66420921D01*
X232111861Y-66376347D01*
X232111861Y-66376346D01*
X232154745Y-66292181D01*
X232202718Y-66241385D01*
X232270539Y-66224589D01*
X232336674Y-66247126D01*
X232375715Y-66292180D01*
X232419184Y-66377493D01*
X232420873Y-66380806D01*
X232541926Y-66547423D01*
X232541930Y-66547428D01*
X232687571Y-66693069D01*
X232687576Y-66693073D01*
X232753565Y-66741016D01*
X232854197Y-66814129D01*
X232971128Y-66873709D01*
X233037705Y-66907632D01*
X233037707Y-66907632D01*
X233037710Y-66907634D01*
X233128437Y-66937113D01*
X233233591Y-66971280D01*
X233335305Y-66987390D01*
X233437019Y-67003500D01*
X233437020Y-67003500D01*
X233642980Y-67003500D01*
X233642981Y-67003500D01*
X233846408Y-66971280D01*
X234042290Y-66907634D01*
X234225803Y-66814129D01*
X234392430Y-66693068D01*
X234538068Y-66547430D01*
X234659129Y-66380803D01*
X234699515Y-66301540D01*
X234747490Y-66250745D01*
X234815311Y-66233950D01*
X234881446Y-66256487D01*
X234920484Y-66301540D01*
X234959184Y-66377493D01*
X234960873Y-66380806D01*
X235081926Y-66547423D01*
X235081930Y-66547428D01*
X235227571Y-66693069D01*
X235227576Y-66693073D01*
X235293565Y-66741016D01*
X235394197Y-66814129D01*
X235511128Y-66873709D01*
X235577705Y-66907632D01*
X235577707Y-66907632D01*
X235577710Y-66907634D01*
X235668437Y-66937113D01*
X235773591Y-66971280D01*
X235875305Y-66987390D01*
X235977019Y-67003500D01*
X235977020Y-67003500D01*
X236182980Y-67003500D01*
X236182981Y-67003500D01*
X236386408Y-66971280D01*
X236582290Y-66907634D01*
X236765803Y-66814129D01*
X236932430Y-66693068D01*
X237078068Y-66547430D01*
X237199129Y-66380803D01*
X237239515Y-66301540D01*
X237287490Y-66250745D01*
X237355311Y-66233950D01*
X237421446Y-66256487D01*
X237460484Y-66301540D01*
X237499184Y-66377493D01*
X237500873Y-66380806D01*
X237621926Y-66547423D01*
X237621930Y-66547428D01*
X237767571Y-66693069D01*
X237767576Y-66693073D01*
X237833565Y-66741016D01*
X237934197Y-66814129D01*
X238051128Y-66873709D01*
X238117705Y-66907632D01*
X238117707Y-66907632D01*
X238117710Y-66907634D01*
X238208437Y-66937113D01*
X238313591Y-66971280D01*
X238415305Y-66987390D01*
X238517019Y-67003500D01*
X238517020Y-67003500D01*
X238722980Y-67003500D01*
X238722981Y-67003500D01*
X238926408Y-66971280D01*
X239122290Y-66907634D01*
X239305803Y-66814129D01*
X239472430Y-66693068D01*
X239618068Y-66547430D01*
X239739129Y-66380803D01*
X239784284Y-66292180D01*
X239832258Y-66241384D01*
X239900079Y-66224589D01*
X239966214Y-66247126D01*
X240005254Y-66292180D01*
X240048141Y-66376350D01*
X240048147Y-66376359D01*
X240080523Y-66420921D01*
X240080524Y-66420922D01*
X240760000Y-65741446D01*
X240760000Y-65747661D01*
X240787259Y-65849394D01*
X240839920Y-65940606D01*
X240914394Y-66015080D01*
X241005606Y-66067741D01*
X241107339Y-66095000D01*
X241113553Y-66095000D01*
X240434076Y-66774474D01*
X240478650Y-66806859D01*
X240660968Y-66899755D01*
X240855582Y-66962990D01*
X241057683Y-66995000D01*
X241262317Y-66995000D01*
X241464417Y-66962990D01*
X241659031Y-66899755D01*
X241841349Y-66806859D01*
X241885922Y-66774474D01*
X241206447Y-66095000D01*
X241212661Y-66095000D01*
X241314394Y-66067741D01*
X241405606Y-66015080D01*
X241480080Y-65940606D01*
X241532741Y-65849394D01*
X241560000Y-65747661D01*
X241560000Y-65741447D01*
X242239474Y-66420921D01*
X242271859Y-66376349D01*
X242364755Y-66194031D01*
X242427990Y-65999417D01*
X242444209Y-65897019D01*
X246191500Y-65897019D01*
X246191500Y-66102980D01*
X246223719Y-66306408D01*
X246287367Y-66502294D01*
X246380873Y-66685806D01*
X246501926Y-66852423D01*
X246501930Y-66852428D01*
X246647571Y-66998069D01*
X246647576Y-66998073D01*
X246792908Y-67103661D01*
X246814197Y-67119129D01*
X246885744Y-67155584D01*
X246997705Y-67212632D01*
X246997707Y-67212632D01*
X246997710Y-67212634D01*
X247102707Y-67246749D01*
X247193591Y-67276280D01*
X247295305Y-67292390D01*
X247397019Y-67308500D01*
X247397020Y-67308500D01*
X247602980Y-67308500D01*
X247602981Y-67308500D01*
X247806408Y-67276280D01*
X248002290Y-67212634D01*
X248185803Y-67119129D01*
X248352430Y-66998068D01*
X248498068Y-66852430D01*
X248619129Y-66685803D01*
X248712634Y-66502290D01*
X248776280Y-66306408D01*
X248808500Y-66102981D01*
X248808500Y-65897019D01*
X248776280Y-65693592D01*
X248755136Y-65628519D01*
X248712632Y-65497705D01*
X248647187Y-65369264D01*
X248619129Y-65314197D01*
X248583383Y-65264996D01*
X248498073Y-65147576D01*
X248498069Y-65147571D01*
X248352428Y-65001930D01*
X248352423Y-65001926D01*
X248185806Y-64880873D01*
X248185805Y-64880872D01*
X248185803Y-64880871D01*
X248110645Y-64842576D01*
X248002294Y-64787367D01*
X247806408Y-64723719D01*
X247630794Y-64695905D01*
X247602981Y-64691500D01*
X247397019Y-64691500D01*
X247372550Y-64695375D01*
X247193591Y-64723719D01*
X246997705Y-64787367D01*
X246814193Y-64880873D01*
X246647576Y-65001926D01*
X246647571Y-65001930D01*
X246501930Y-65147571D01*
X246501926Y-65147576D01*
X246380873Y-65314193D01*
X246287367Y-65497705D01*
X246223719Y-65693591D01*
X246191500Y-65897019D01*
X242444209Y-65897019D01*
X242448053Y-65872749D01*
X242460000Y-65797317D01*
X242460000Y-65592682D01*
X242427990Y-65390582D01*
X242364755Y-65195968D01*
X242271859Y-65013650D01*
X242239474Y-64969077D01*
X242239474Y-64969076D01*
X241560000Y-65648551D01*
X241560000Y-65642339D01*
X241532741Y-65540606D01*
X241480080Y-65449394D01*
X241405606Y-65374920D01*
X241314394Y-65322259D01*
X241212661Y-65295000D01*
X241206446Y-65295000D01*
X241885922Y-64615524D01*
X241885921Y-64615523D01*
X241841359Y-64583147D01*
X241841350Y-64583141D01*
X241659031Y-64490244D01*
X241464417Y-64427009D01*
X241262317Y-64395000D01*
X241057683Y-64395000D01*
X240855582Y-64427009D01*
X240660968Y-64490244D01*
X240478644Y-64583143D01*
X240434077Y-64615523D01*
X240434077Y-64615524D01*
X241113554Y-65295000D01*
X241107339Y-65295000D01*
X241005606Y-65322259D01*
X240914394Y-65374920D01*
X240839920Y-65449394D01*
X240787259Y-65540606D01*
X240760000Y-65642339D01*
X240760000Y-65648553D01*
X240080524Y-64969077D01*
X240080523Y-64969077D01*
X240048143Y-65013645D01*
X240048141Y-65013648D01*
X240005253Y-65097820D01*
X239957279Y-65148615D01*
X239889457Y-65165410D01*
X239823323Y-65142872D01*
X239784284Y-65097819D01*
X239739129Y-65009197D01*
X239688983Y-64940176D01*
X239618073Y-64842576D01*
X239618069Y-64842571D01*
X239472428Y-64696930D01*
X239472423Y-64696926D01*
X239305806Y-64575873D01*
X239305805Y-64575872D01*
X239305803Y-64575871D01*
X239247119Y-64545970D01*
X239122294Y-64482367D01*
X238926408Y-64418719D01*
X238750794Y-64390905D01*
X238722981Y-64386500D01*
X238517019Y-64386500D01*
X238492550Y-64390375D01*
X238313591Y-64418719D01*
X238117705Y-64482367D01*
X237934193Y-64575873D01*
X237767576Y-64696926D01*
X237767571Y-64696930D01*
X237621930Y-64842571D01*
X237621926Y-64842576D01*
X237500871Y-65009195D01*
X237460484Y-65088459D01*
X237412510Y-65139254D01*
X237344689Y-65156049D01*
X237278554Y-65133511D01*
X237239516Y-65088459D01*
X237199128Y-65009195D01*
X237078073Y-64842576D01*
X237078069Y-64842571D01*
X236932428Y-64696930D01*
X236932423Y-64696926D01*
X236765806Y-64575873D01*
X236765805Y-64575872D01*
X236765803Y-64575871D01*
X236707119Y-64545970D01*
X236582294Y-64482367D01*
X236386408Y-64418719D01*
X236210794Y-64390905D01*
X236182981Y-64386500D01*
X235977019Y-64386500D01*
X235952550Y-64390375D01*
X235773591Y-64418719D01*
X235577705Y-64482367D01*
X235394193Y-64575873D01*
X235227576Y-64696926D01*
X235227571Y-64696930D01*
X235081930Y-64842571D01*
X235081926Y-64842576D01*
X234960871Y-65009195D01*
X234920484Y-65088459D01*
X234872510Y-65139254D01*
X234804689Y-65156049D01*
X234738554Y-65133511D01*
X234699516Y-65088459D01*
X234659128Y-65009195D01*
X234538073Y-64842576D01*
X234538069Y-64842571D01*
X234392428Y-64696930D01*
X234392423Y-64696926D01*
X234225806Y-64575873D01*
X234225805Y-64575872D01*
X234225803Y-64575871D01*
X234156881Y-64540753D01*
X234106086Y-64492779D01*
X234089291Y-64424958D01*
X234111828Y-64358823D01*
X234166544Y-64315372D01*
X234232574Y-64307796D01*
X234237019Y-64308500D01*
X234237020Y-64308500D01*
X234442980Y-64308500D01*
X234442981Y-64308500D01*
X234646408Y-64276280D01*
X234842290Y-64212634D01*
X235025803Y-64119129D01*
X235192430Y-63998068D01*
X235338068Y-63852430D01*
X235459129Y-63685803D01*
X235552634Y-63502290D01*
X235616280Y-63306408D01*
X235648500Y-63102981D01*
X235648500Y-62897019D01*
X243191500Y-62897019D01*
X243191500Y-63102980D01*
X243223719Y-63306408D01*
X243287367Y-63502294D01*
X243380873Y-63685806D01*
X243501926Y-63852423D01*
X243501930Y-63852428D01*
X243647571Y-63998069D01*
X243647576Y-63998073D01*
X243792908Y-64103661D01*
X243814197Y-64119129D01*
X243883116Y-64154245D01*
X243997705Y-64212632D01*
X243997707Y-64212632D01*
X243997710Y-64212634D01*
X244102707Y-64246749D01*
X244193591Y-64276280D01*
X244295305Y-64292390D01*
X244397019Y-64308500D01*
X244397020Y-64308500D01*
X244602980Y-64308500D01*
X244602981Y-64308500D01*
X244806408Y-64276280D01*
X245002290Y-64212634D01*
X245185803Y-64119129D01*
X245352430Y-63998068D01*
X245498068Y-63852430D01*
X245619129Y-63685803D01*
X245712634Y-63502290D01*
X245776280Y-63306408D01*
X245808500Y-63102981D01*
X245808500Y-62897019D01*
X245781254Y-62724996D01*
X245776280Y-62693591D01*
X245716140Y-62508500D01*
X245712634Y-62497710D01*
X245712632Y-62497707D01*
X245712632Y-62497705D01*
X245659750Y-62393920D01*
X245619129Y-62314197D01*
X245559333Y-62231894D01*
X245498073Y-62147576D01*
X245498069Y-62147571D01*
X245352428Y-62001930D01*
X245352423Y-62001926D01*
X245185806Y-61880873D01*
X245185805Y-61880872D01*
X245185803Y-61880871D01*
X245128496Y-61851671D01*
X245002294Y-61787367D01*
X244806408Y-61723719D01*
X244630794Y-61695905D01*
X244602981Y-61691500D01*
X244397019Y-61691500D01*
X244372550Y-61695375D01*
X244193591Y-61723719D01*
X243997705Y-61787367D01*
X243814193Y-61880873D01*
X243647576Y-62001926D01*
X243647571Y-62001930D01*
X243501930Y-62147571D01*
X243501926Y-62147576D01*
X243380873Y-62314193D01*
X243287367Y-62497705D01*
X243223719Y-62693591D01*
X243191500Y-62897019D01*
X235648500Y-62897019D01*
X235621254Y-62724996D01*
X235616280Y-62693591D01*
X235556140Y-62508500D01*
X235552634Y-62497710D01*
X235552632Y-62497707D01*
X235552632Y-62497705D01*
X235499750Y-62393920D01*
X235459129Y-62314197D01*
X235399333Y-62231894D01*
X235338073Y-62147576D01*
X235338069Y-62147571D01*
X235192428Y-62001930D01*
X235192423Y-62001926D01*
X235025806Y-61880873D01*
X235025805Y-61880872D01*
X235025803Y-61880871D01*
X234968496Y-61851671D01*
X234842294Y-61787367D01*
X234646408Y-61723719D01*
X234470794Y-61695905D01*
X234442981Y-61691500D01*
X234237019Y-61691500D01*
X234212550Y-61695375D01*
X234033591Y-61723719D01*
X233837705Y-61787367D01*
X233654193Y-61880873D01*
X233487576Y-62001926D01*
X233487571Y-62001930D01*
X233341930Y-62147571D01*
X233341926Y-62147576D01*
X233220873Y-62314193D01*
X233127367Y-62497705D01*
X233063719Y-62693591D01*
X233031500Y-62897019D01*
X233031500Y-63102980D01*
X233063719Y-63306408D01*
X233127367Y-63502294D01*
X233220873Y-63685806D01*
X233341926Y-63852423D01*
X233341930Y-63852428D01*
X233487571Y-63998069D01*
X233487576Y-63998073D01*
X233654195Y-64119128D01*
X233723116Y-64154245D01*
X233773913Y-64202219D01*
X233790708Y-64270040D01*
X233768171Y-64336175D01*
X233713456Y-64379627D01*
X233647435Y-64387205D01*
X233642981Y-64386500D01*
X233437019Y-64386500D01*
X233412550Y-64390375D01*
X233233591Y-64418719D01*
X233037705Y-64482367D01*
X232854193Y-64575873D01*
X232687576Y-64696926D01*
X232687571Y-64696930D01*
X232541930Y-64842571D01*
X232541926Y-64842576D01*
X232420871Y-65009195D01*
X232375714Y-65097820D01*
X232327740Y-65148615D01*
X232259918Y-65165410D01*
X232193784Y-65142872D01*
X232154745Y-65097818D01*
X232111861Y-65013652D01*
X232079474Y-64969077D01*
X232079474Y-64969076D01*
X231400000Y-65648551D01*
X231400000Y-65642339D01*
X231372741Y-65540606D01*
X231320080Y-65449394D01*
X231245606Y-65374920D01*
X231154394Y-65322259D01*
X231052661Y-65295000D01*
X231046446Y-65295000D01*
X231725922Y-64615524D01*
X231725921Y-64615523D01*
X231681359Y-64583147D01*
X231681350Y-64583141D01*
X231499031Y-64490244D01*
X231304417Y-64427009D01*
X231102317Y-64395000D01*
X230897683Y-64395000D01*
X230695582Y-64427009D01*
X230500968Y-64490244D01*
X230318644Y-64583143D01*
X230274077Y-64615523D01*
X230274077Y-64615524D01*
X230953554Y-65295000D01*
X230947339Y-65295000D01*
X230845606Y-65322259D01*
X230754394Y-65374920D01*
X230679920Y-65449394D01*
X230627259Y-65540606D01*
X230600000Y-65642339D01*
X230600000Y-65648553D01*
X229920524Y-64969077D01*
X229920523Y-64969077D01*
X229888143Y-65013644D01*
X229840485Y-65107180D01*
X229792510Y-65157976D01*
X229724689Y-65174771D01*
X229658554Y-65152233D01*
X229619515Y-65107180D01*
X229571859Y-65013650D01*
X229539474Y-64969077D01*
X229539474Y-64969076D01*
X228860000Y-65648551D01*
X228860000Y-65642339D01*
X228832741Y-65540606D01*
X228780080Y-65449394D01*
X228705606Y-65374920D01*
X228614394Y-65322259D01*
X228512661Y-65295000D01*
X228506446Y-65295000D01*
X229185922Y-64615524D01*
X229185921Y-64615523D01*
X229141359Y-64583147D01*
X229141350Y-64583141D01*
X228959031Y-64490244D01*
X228764417Y-64427009D01*
X228562317Y-64395000D01*
X228357683Y-64395000D01*
X228155582Y-64427009D01*
X227960968Y-64490244D01*
X227778644Y-64583143D01*
X227734077Y-64615523D01*
X227734077Y-64615524D01*
X228413554Y-65295000D01*
X228407339Y-65295000D01*
X228305606Y-65322259D01*
X228214394Y-65374920D01*
X228139920Y-65449394D01*
X228087259Y-65540606D01*
X228060000Y-65642339D01*
X228060000Y-65648553D01*
X227380524Y-64969077D01*
X227380523Y-64969077D01*
X227348143Y-65013644D01*
X227300485Y-65107180D01*
X227252510Y-65157976D01*
X227184689Y-65174771D01*
X227118554Y-65152233D01*
X227079515Y-65107180D01*
X227031859Y-65013650D01*
X226999474Y-64969077D01*
X226999474Y-64969076D01*
X226320000Y-65648551D01*
X226320000Y-65642339D01*
X226292741Y-65540606D01*
X226240080Y-65449394D01*
X226165606Y-65374920D01*
X226074394Y-65322259D01*
X225972661Y-65295000D01*
X225966446Y-65295000D01*
X226645922Y-64615524D01*
X226645921Y-64615523D01*
X226601359Y-64583147D01*
X226601350Y-64583141D01*
X226419031Y-64490244D01*
X226224417Y-64427009D01*
X226022317Y-64395000D01*
X225817683Y-64395000D01*
X225615582Y-64427009D01*
X225420968Y-64490244D01*
X225238644Y-64583143D01*
X225194077Y-64615523D01*
X225194077Y-64615524D01*
X225873554Y-65295000D01*
X225867339Y-65295000D01*
X225765606Y-65322259D01*
X225674394Y-65374920D01*
X225599920Y-65449394D01*
X225547259Y-65540606D01*
X225520000Y-65642339D01*
X225520000Y-65648553D01*
X224840524Y-64969077D01*
X224840523Y-64969077D01*
X224808143Y-65013645D01*
X224808141Y-65013648D01*
X224765253Y-65097820D01*
X224717279Y-65148615D01*
X224649457Y-65165410D01*
X224583323Y-65142872D01*
X224544284Y-65097819D01*
X224499129Y-65009197D01*
X224448983Y-64940176D01*
X224378073Y-64842576D01*
X224378069Y-64842571D01*
X224232428Y-64696930D01*
X224232423Y-64696926D01*
X224065806Y-64575873D01*
X224065805Y-64575872D01*
X224065803Y-64575871D01*
X224007119Y-64545970D01*
X223882294Y-64482367D01*
X223686408Y-64418719D01*
X223510794Y-64390905D01*
X223482981Y-64386500D01*
X223277019Y-64386500D01*
X223252550Y-64390375D01*
X223073591Y-64418719D01*
X222877705Y-64482367D01*
X222694193Y-64575873D01*
X222527576Y-64696926D01*
X222527571Y-64696930D01*
X222381930Y-64842571D01*
X222381926Y-64842576D01*
X222322669Y-64924137D01*
X222267339Y-64966803D01*
X222197726Y-64972782D01*
X222135931Y-64940176D01*
X222104645Y-64890255D01*
X222101536Y-64880873D01*
X222082115Y-64822262D01*
X221989030Y-64671348D01*
X221863652Y-64545970D01*
X221712738Y-64452885D01*
X221634648Y-64427009D01*
X221544427Y-64397113D01*
X221440545Y-64386500D01*
X220239462Y-64386500D01*
X220239446Y-64386501D01*
X220135572Y-64397113D01*
X219967264Y-64452884D01*
X219967259Y-64452886D01*
X219816346Y-64545971D01*
X219690971Y-64671346D01*
X219597886Y-64822259D01*
X219597884Y-64822264D01*
X219542113Y-64990572D01*
X219531500Y-65094447D01*
X191828375Y-65094447D01*
X191682009Y-64988106D01*
X191682005Y-64988103D01*
X191678132Y-64985730D01*
X191631254Y-64933920D01*
X191619829Y-64864991D01*
X191647483Y-64800827D01*
X191678132Y-64774270D01*
X191682005Y-64771896D01*
X191682004Y-64771896D01*
X191682009Y-64771894D01*
X191855004Y-64646206D01*
X192006206Y-64495004D01*
X192131894Y-64322009D01*
X192228972Y-64131483D01*
X192295049Y-63928116D01*
X192328500Y-63716916D01*
X192328500Y-63503084D01*
X192295049Y-63291884D01*
X192233672Y-63102981D01*
X192228973Y-63088519D01*
X192228972Y-63088516D01*
X192131893Y-62897990D01*
X192129364Y-62894509D01*
X192006206Y-62724996D01*
X191855004Y-62573794D01*
X191682009Y-62448106D01*
X191682005Y-62448103D01*
X191678132Y-62445730D01*
X191631254Y-62393920D01*
X191619829Y-62324991D01*
X191647483Y-62260827D01*
X191678132Y-62234270D01*
X191682005Y-62231896D01*
X191682004Y-62231896D01*
X191682009Y-62231894D01*
X191855004Y-62106206D01*
X192006206Y-61955004D01*
X192131894Y-61782009D01*
X192228972Y-61591483D01*
X192295049Y-61388116D01*
X192328500Y-61176916D01*
X192328500Y-60963084D01*
X192322235Y-60923528D01*
X192317950Y-60896472D01*
X192315649Y-60881947D01*
X230000000Y-60881947D01*
X230000000Y-61118052D01*
X230036934Y-61351247D01*
X230109897Y-61575802D01*
X230217087Y-61786174D01*
X230277338Y-61869104D01*
X230277340Y-61869105D01*
X231017037Y-61129408D01*
X231034075Y-61192993D01*
X231099901Y-61307007D01*
X231192993Y-61400099D01*
X231307007Y-61465925D01*
X231370590Y-61482962D01*
X230630893Y-62222658D01*
X230713828Y-62282914D01*
X230924197Y-62390102D01*
X231148752Y-62463065D01*
X231148751Y-62463065D01*
X231381948Y-62500000D01*
X231618052Y-62500000D01*
X231851247Y-62463065D01*
X232075802Y-62390102D01*
X232286163Y-62282918D01*
X232286169Y-62282914D01*
X232369104Y-62222658D01*
X232369105Y-62222658D01*
X231629408Y-61482962D01*
X231692993Y-61465925D01*
X231807007Y-61400099D01*
X231900099Y-61307007D01*
X231965925Y-61192993D01*
X231982962Y-61129408D01*
X232722658Y-61869105D01*
X232722658Y-61869104D01*
X232782918Y-61786165D01*
X232782918Y-61786163D01*
X232890102Y-61575802D01*
X232963065Y-61351247D01*
X233000000Y-61118052D01*
X233000000Y-60881957D01*
X232999998Y-60881938D01*
X232999893Y-60881272D01*
X248491500Y-60881272D01*
X248491500Y-61118727D01*
X248528643Y-61353241D01*
X248602019Y-61579067D01*
X248707546Y-61786174D01*
X248709815Y-61790627D01*
X248849380Y-61982722D01*
X249017278Y-62150620D01*
X249209373Y-62290185D01*
X249277684Y-62324991D01*
X249420932Y-62397980D01*
X249420934Y-62397980D01*
X249420937Y-62397982D01*
X249486172Y-62419178D01*
X249646758Y-62471356D01*
X249881273Y-62508500D01*
X249881278Y-62508500D01*
X250118727Y-62508500D01*
X250353241Y-62471356D01*
X250378758Y-62463065D01*
X250579063Y-62397982D01*
X250790627Y-62290185D01*
X250982722Y-62150620D01*
X251150620Y-61982722D01*
X251290185Y-61790627D01*
X251397982Y-61579063D01*
X251471356Y-61353241D01*
X251496737Y-61192993D01*
X251508500Y-61118727D01*
X251508500Y-60881272D01*
X251471356Y-60646758D01*
X251397980Y-60420932D01*
X251341114Y-60309328D01*
X251290185Y-60209373D01*
X251150620Y-60017278D01*
X250982722Y-59849380D01*
X250790627Y-59709815D01*
X250646382Y-59636318D01*
X250579067Y-59602019D01*
X250374603Y-59535584D01*
X253346500Y-59535584D01*
X253346500Y-59749416D01*
X253356890Y-59815016D01*
X253379951Y-59960617D01*
X253446026Y-60163980D01*
X253446027Y-60163983D01*
X253469155Y-60209373D01*
X253543106Y-60354509D01*
X253668794Y-60527504D01*
X253819996Y-60678706D01*
X253992991Y-60804394D01*
X253996873Y-60806773D01*
X254043748Y-60858586D01*
X254055169Y-60927516D01*
X254027512Y-60991678D01*
X253996873Y-61018227D01*
X253992991Y-61020605D01*
X253819993Y-61146296D01*
X253668796Y-61297493D01*
X253543106Y-61470490D01*
X253446027Y-61661016D01*
X253446026Y-61661019D01*
X253379951Y-61864382D01*
X253377339Y-61880873D01*
X253346500Y-62075584D01*
X253346500Y-62289416D01*
X253356890Y-62355016D01*
X253379951Y-62500617D01*
X253446026Y-62703980D01*
X253446027Y-62703983D01*
X253543106Y-62894509D01*
X253668794Y-63067504D01*
X253819996Y-63218706D01*
X253940708Y-63306408D01*
X253992991Y-63344394D01*
X253996873Y-63346773D01*
X254043748Y-63398586D01*
X254055169Y-63467516D01*
X254027512Y-63531678D01*
X253996873Y-63558227D01*
X253992991Y-63560605D01*
X253819993Y-63686296D01*
X253668796Y-63837493D01*
X253543106Y-64010490D01*
X253446027Y-64201016D01*
X253446026Y-64201019D01*
X253379951Y-64404382D01*
X253346510Y-64615523D01*
X253346500Y-64615584D01*
X253346500Y-64829416D01*
X253356890Y-64895016D01*
X253379951Y-65040617D01*
X253446026Y-65243980D01*
X253446027Y-65243983D01*
X253509862Y-65369264D01*
X253543106Y-65434509D01*
X253668794Y-65607504D01*
X253819996Y-65758706D01*
X253944818Y-65849394D01*
X253992991Y-65884394D01*
X253996873Y-65886773D01*
X254043748Y-65938586D01*
X254055169Y-66007516D01*
X254027512Y-66071678D01*
X253996873Y-66098227D01*
X253992991Y-66100605D01*
X253819993Y-66226296D01*
X253668796Y-66377493D01*
X253543106Y-66550490D01*
X253446027Y-66741016D01*
X253446026Y-66741019D01*
X253379951Y-66944382D01*
X253346500Y-67155584D01*
X253346500Y-67369415D01*
X253379951Y-67580617D01*
X253446026Y-67783980D01*
X253446027Y-67783983D01*
X253543106Y-67974509D01*
X253668794Y-68147504D01*
X253819996Y-68298706D01*
X253992991Y-68424394D01*
X253997680Y-68426783D01*
X254048478Y-68474754D01*
X254065276Y-68542574D01*
X254042742Y-68608710D01*
X254001205Y-68644709D01*
X254001590Y-68645338D01*
X253997804Y-68647657D01*
X253997702Y-68647746D01*
X253997449Y-68647874D01*
X253997440Y-68647880D01*
X253943282Y-68687227D01*
X253943282Y-68687228D01*
X254575591Y-69319537D01*
X254512007Y-69336575D01*
X254397993Y-69402401D01*
X254304901Y-69495493D01*
X254239075Y-69609507D01*
X254222037Y-69673091D01*
X253589728Y-69040782D01*
X253589727Y-69040782D01*
X253550380Y-69094939D01*
X253453904Y-69284282D01*
X253388242Y-69486369D01*
X253388242Y-69486372D01*
X253355000Y-69696253D01*
X253355000Y-69908746D01*
X253388242Y-70118627D01*
X253388242Y-70118630D01*
X253453904Y-70320717D01*
X253550375Y-70510050D01*
X253589728Y-70564216D01*
X254222037Y-69931908D01*
X254239075Y-69995493D01*
X254304901Y-70109507D01*
X254397993Y-70202599D01*
X254512007Y-70268425D01*
X254575591Y-70285462D01*
X253913371Y-70947681D01*
X253852048Y-70981166D01*
X253825690Y-70984000D01*
X253806345Y-70984000D01*
X253745797Y-70990511D01*
X253745795Y-70990511D01*
X253608795Y-71041611D01*
X253491739Y-71129239D01*
X253404111Y-71246295D01*
X253353011Y-71383295D01*
X253353011Y-71383297D01*
X253346500Y-71443845D01*
X253346500Y-73241154D01*
X253353011Y-73301702D01*
X253353011Y-73301704D01*
X253404111Y-73438704D01*
X253491739Y-73555761D01*
X253608796Y-73643389D01*
X253745799Y-73694489D01*
X253773050Y-73697418D01*
X253806345Y-73700999D01*
X253806362Y-73701000D01*
X255603638Y-73701000D01*
X255603654Y-73700999D01*
X255630692Y-73698091D01*
X255664201Y-73694489D01*
X255801204Y-73643389D01*
X255918261Y-73555761D01*
X256005889Y-73438704D01*
X256056989Y-73301701D01*
X256060591Y-73268192D01*
X256063499Y-73241154D01*
X256063500Y-73241137D01*
X256063500Y-72381902D01*
X269499500Y-72381902D01*
X269499500Y-72618097D01*
X269536446Y-72851368D01*
X269609433Y-73075996D01*
X269693578Y-73241138D01*
X269716657Y-73286433D01*
X269855483Y-73477510D01*
X270022490Y-73644517D01*
X270213567Y-73783343D01*
X270280192Y-73817290D01*
X270424003Y-73890566D01*
X270424005Y-73890566D01*
X270424008Y-73890568D01*
X270519333Y-73921541D01*
X270648631Y-73963553D01*
X270881903Y-74000500D01*
X270881908Y-74000500D01*
X271118097Y-74000500D01*
X271351368Y-73963553D01*
X271575992Y-73890568D01*
X271786433Y-73783343D01*
X271977510Y-73644517D01*
X272144517Y-73477510D01*
X272283343Y-73286433D01*
X272390568Y-73075992D01*
X272463553Y-72851368D01*
X272469677Y-72812705D01*
X272500500Y-72618097D01*
X272500500Y-72381902D01*
X272463553Y-72148631D01*
X272390566Y-71924003D01*
X272289638Y-71725922D01*
X272283343Y-71713567D01*
X272144517Y-71522490D01*
X271977510Y-71355483D01*
X271786433Y-71216657D01*
X271575996Y-71109433D01*
X271351368Y-71036446D01*
X271118097Y-70999500D01*
X271118092Y-70999500D01*
X270881908Y-70999500D01*
X270881903Y-70999500D01*
X270648631Y-71036446D01*
X270424003Y-71109433D01*
X270213566Y-71216657D01*
X270104550Y-71295862D01*
X270022490Y-71355483D01*
X270022488Y-71355485D01*
X270022487Y-71355485D01*
X269855485Y-71522487D01*
X269855485Y-71522488D01*
X269855483Y-71522490D01*
X269795862Y-71604550D01*
X269716657Y-71713566D01*
X269609433Y-71924003D01*
X269536446Y-72148631D01*
X269499500Y-72381902D01*
X256063500Y-72381902D01*
X256063500Y-71443862D01*
X256063499Y-71443845D01*
X256058784Y-71400000D01*
X256056989Y-71383299D01*
X256005889Y-71246296D01*
X255918261Y-71129239D01*
X255801204Y-71041611D01*
X255787356Y-71036446D01*
X255664203Y-70990511D01*
X255603654Y-70984000D01*
X255603638Y-70984000D01*
X255584309Y-70984000D01*
X255517270Y-70964315D01*
X255496628Y-70947681D01*
X254834408Y-70285462D01*
X254897993Y-70268425D01*
X255012007Y-70202599D01*
X255105099Y-70109507D01*
X255170925Y-69995493D01*
X255187962Y-69931908D01*
X255820270Y-70564217D01*
X255820270Y-70564216D01*
X255859622Y-70510054D01*
X255956095Y-70320717D01*
X256021757Y-70118630D01*
X256021757Y-70118627D01*
X256055000Y-69908746D01*
X256055000Y-69696253D01*
X256021757Y-69486372D01*
X256021757Y-69486369D01*
X255956095Y-69284282D01*
X255859624Y-69094949D01*
X255820270Y-69040782D01*
X255820269Y-69040782D01*
X255187962Y-69673090D01*
X255170925Y-69609507D01*
X255105099Y-69495493D01*
X255012007Y-69402401D01*
X254897993Y-69336575D01*
X254834409Y-69319537D01*
X255466716Y-68687228D01*
X255412547Y-68647873D01*
X255412545Y-68647871D01*
X255412308Y-68647751D01*
X255412234Y-68647681D01*
X255408396Y-68645329D01*
X255408890Y-68644522D01*
X255361515Y-68599774D01*
X255344724Y-68531951D01*
X255367266Y-68465818D01*
X255412319Y-68426783D01*
X255417009Y-68424394D01*
X255590004Y-68298706D01*
X255741206Y-68147504D01*
X255866894Y-67974509D01*
X255963972Y-67783983D01*
X256030049Y-67580616D01*
X256063500Y-67369416D01*
X256063500Y-67155584D01*
X256030049Y-66944384D01*
X255963972Y-66741017D01*
X255963972Y-66741016D01*
X255912264Y-66639534D01*
X255866894Y-66550491D01*
X255741206Y-66377496D01*
X255590004Y-66226294D01*
X255417009Y-66100606D01*
X255417005Y-66100603D01*
X255413132Y-66098230D01*
X255366254Y-66046420D01*
X255354829Y-65977491D01*
X255382483Y-65913327D01*
X255413132Y-65886770D01*
X255417005Y-65884396D01*
X255417004Y-65884396D01*
X255417009Y-65884394D01*
X255590004Y-65758706D01*
X255741206Y-65607504D01*
X255866894Y-65434509D01*
X255963972Y-65243983D01*
X256030049Y-65040616D01*
X256063500Y-64829416D01*
X256063500Y-64615584D01*
X256030049Y-64404384D01*
X255963972Y-64201017D01*
X255963972Y-64201016D01*
X255866893Y-64010490D01*
X255741206Y-63837496D01*
X255590004Y-63686294D01*
X255417009Y-63560606D01*
X255417005Y-63560603D01*
X255413132Y-63558230D01*
X255366254Y-63506420D01*
X255354829Y-63437491D01*
X255382483Y-63373327D01*
X255413132Y-63346770D01*
X255417005Y-63344396D01*
X255417004Y-63344396D01*
X255417009Y-63344394D01*
X255590004Y-63218706D01*
X255741206Y-63067504D01*
X255866894Y-62894509D01*
X255963972Y-62703983D01*
X256030049Y-62500616D01*
X256063500Y-62289416D01*
X256063500Y-62075584D01*
X256030049Y-61864384D01*
X255984345Y-61723719D01*
X255963973Y-61661019D01*
X255963972Y-61661016D01*
X255914507Y-61563938D01*
X255866894Y-61470491D01*
X255741206Y-61297496D01*
X255590004Y-61146294D01*
X255417009Y-61020606D01*
X255417005Y-61020603D01*
X255413132Y-61018230D01*
X255366254Y-60966420D01*
X255354829Y-60897491D01*
X255382483Y-60833327D01*
X255413132Y-60806770D01*
X255417005Y-60804396D01*
X255417004Y-60804396D01*
X255417009Y-60804394D01*
X255590004Y-60678706D01*
X255741206Y-60527504D01*
X255866894Y-60354509D01*
X255963972Y-60163983D01*
X256030049Y-59960616D01*
X256063500Y-59749416D01*
X256063500Y-59535584D01*
X256030049Y-59324384D01*
X255997010Y-59222700D01*
X255963973Y-59121019D01*
X255963972Y-59121016D01*
X255866893Y-58930490D01*
X255822308Y-58869124D01*
X255741206Y-58757496D01*
X255590004Y-58606294D01*
X255417009Y-58480606D01*
X255226483Y-58383527D01*
X255226480Y-58383526D01*
X255023117Y-58317451D01*
X254917516Y-58300725D01*
X254811916Y-58284000D01*
X254598084Y-58284000D01*
X254527684Y-58295150D01*
X254386882Y-58317451D01*
X254183519Y-58383526D01*
X254183516Y-58383527D01*
X253992990Y-58480606D01*
X253819993Y-58606296D01*
X253668796Y-58757493D01*
X253543106Y-58930490D01*
X253446027Y-59121016D01*
X253446026Y-59121019D01*
X253379951Y-59324382D01*
X253379951Y-59324384D01*
X253346500Y-59535584D01*
X250374603Y-59535584D01*
X250353241Y-59528643D01*
X250118727Y-59491500D01*
X250118722Y-59491500D01*
X249881278Y-59491500D01*
X249881273Y-59491500D01*
X249646758Y-59528643D01*
X249420932Y-59602019D01*
X249209372Y-59709815D01*
X249017275Y-59849382D01*
X248849382Y-60017275D01*
X248709815Y-60209372D01*
X248602019Y-60420932D01*
X248528643Y-60646758D01*
X248491500Y-60881272D01*
X232999893Y-60881272D01*
X232963065Y-60648752D01*
X232890102Y-60424197D01*
X232782914Y-60213828D01*
X232722658Y-60130894D01*
X232722658Y-60130893D01*
X231982962Y-60870590D01*
X231965925Y-60807007D01*
X231900099Y-60692993D01*
X231807007Y-60599901D01*
X231692993Y-60534075D01*
X231629409Y-60517037D01*
X232369105Y-59777340D01*
X232369104Y-59777338D01*
X232286174Y-59717087D01*
X232075802Y-59609897D01*
X231851247Y-59536934D01*
X231851248Y-59536934D01*
X231618052Y-59500000D01*
X231381948Y-59500000D01*
X231148752Y-59536934D01*
X230924197Y-59609897D01*
X230713830Y-59717084D01*
X230630894Y-59777340D01*
X231370591Y-60517037D01*
X231307007Y-60534075D01*
X231192993Y-60599901D01*
X231099901Y-60692993D01*
X231034075Y-60807007D01*
X231017037Y-60870591D01*
X230277340Y-60130894D01*
X230217084Y-60213830D01*
X230109897Y-60424197D01*
X230036934Y-60648752D01*
X230000000Y-60881947D01*
X192315649Y-60881947D01*
X192307948Y-60833327D01*
X192295049Y-60751884D01*
X192260791Y-60646446D01*
X192228973Y-60548519D01*
X192228972Y-60548516D01*
X192165628Y-60424197D01*
X192131894Y-60357991D01*
X192006206Y-60184996D01*
X191855004Y-60033794D01*
X191832268Y-60017275D01*
X191706047Y-59925570D01*
X191706024Y-59925553D01*
X191682009Y-59908106D01*
X191678734Y-59906437D01*
X191671773Y-59901561D01*
X191652238Y-59877112D01*
X191631254Y-59853920D01*
X191630611Y-59850044D01*
X191628159Y-59846975D01*
X191624944Y-59815850D01*
X191619829Y-59784991D01*
X191621383Y-59781383D01*
X191620980Y-59777475D01*
X191635100Y-59749556D01*
X191647483Y-59720827D01*
X191651308Y-59717512D01*
X191652515Y-59715127D01*
X191657321Y-59712302D01*
X191678132Y-59694270D01*
X191682005Y-59691896D01*
X191682004Y-59691896D01*
X191682009Y-59691894D01*
X191855004Y-59566206D01*
X192006206Y-59415004D01*
X192131894Y-59242009D01*
X192228972Y-59051483D01*
X192295049Y-58848116D01*
X192328500Y-58636916D01*
X192328500Y-58423084D01*
X192295049Y-58211884D01*
X192228972Y-58008517D01*
X192228972Y-58008516D01*
X192164137Y-57881272D01*
X192131894Y-57817991D01*
X192006206Y-57644996D01*
X191855004Y-57493794D01*
X191682009Y-57368106D01*
X191682005Y-57368103D01*
X191678132Y-57365730D01*
X191631254Y-57313920D01*
X191619829Y-57244991D01*
X191647483Y-57180827D01*
X191678132Y-57154270D01*
X191682005Y-57151896D01*
X191682004Y-57151896D01*
X191682009Y-57151894D01*
X191855004Y-57026206D01*
X192006206Y-56875004D01*
X192131894Y-56702009D01*
X192228972Y-56511483D01*
X192240170Y-56477019D01*
X200691500Y-56477019D01*
X200691500Y-56682980D01*
X200723719Y-56886408D01*
X200787367Y-57082294D01*
X200824043Y-57154273D01*
X200877914Y-57260000D01*
X200880873Y-57265806D01*
X201001926Y-57432423D01*
X201001930Y-57432428D01*
X201147571Y-57578069D01*
X201147576Y-57578073D01*
X201252624Y-57654394D01*
X201314197Y-57699129D01*
X201422660Y-57754394D01*
X201497705Y-57792632D01*
X201497707Y-57792632D01*
X201497710Y-57792634D01*
X201575748Y-57817990D01*
X201693591Y-57856280D01*
X201795305Y-57872390D01*
X201897019Y-57888500D01*
X201897020Y-57888500D01*
X202102980Y-57888500D01*
X202102981Y-57888500D01*
X202306408Y-57856280D01*
X202502290Y-57792634D01*
X202685803Y-57699129D01*
X202852430Y-57578068D01*
X202998068Y-57432430D01*
X203119129Y-57265803D01*
X203212634Y-57082290D01*
X203276280Y-56886408D01*
X203308500Y-56682981D01*
X203308500Y-56477019D01*
X203293272Y-56380873D01*
X203276280Y-56273591D01*
X203220845Y-56102981D01*
X203212634Y-56077710D01*
X203212632Y-56077707D01*
X203212632Y-56077705D01*
X203172126Y-55998210D01*
X203120567Y-55897019D01*
X205191500Y-55897019D01*
X205191500Y-56102980D01*
X205223719Y-56306408D01*
X205287367Y-56502294D01*
X205361390Y-56647570D01*
X205380871Y-56685803D01*
X205433360Y-56758048D01*
X205433361Y-56758049D01*
X205456840Y-56823856D01*
X205441014Y-56891910D01*
X205420724Y-56918615D01*
X205357682Y-56981657D01*
X205265643Y-57130875D01*
X205265641Y-57130880D01*
X205210494Y-57297302D01*
X205210493Y-57297309D01*
X205200000Y-57400013D01*
X205200000Y-57750000D01*
X206184314Y-57750000D01*
X206179920Y-57754394D01*
X206127259Y-57845606D01*
X206100000Y-57947339D01*
X206100000Y-58052661D01*
X206127259Y-58154394D01*
X206179920Y-58245606D01*
X206184314Y-58250000D01*
X205200001Y-58250000D01*
X205200001Y-58599986D01*
X205210494Y-58702697D01*
X205265641Y-58869119D01*
X205265643Y-58869124D01*
X205357684Y-59018345D01*
X205481654Y-59142315D01*
X205630875Y-59234356D01*
X205630880Y-59234358D01*
X205797302Y-59289505D01*
X205797309Y-59289506D01*
X205900019Y-59299999D01*
X206249999Y-59299999D01*
X206250000Y-59299998D01*
X206250000Y-58315686D01*
X206254394Y-58320080D01*
X206345606Y-58372741D01*
X206447339Y-58400000D01*
X206552661Y-58400000D01*
X206654394Y-58372741D01*
X206745606Y-58320080D01*
X206750000Y-58315686D01*
X206750000Y-59299999D01*
X207099972Y-59299999D01*
X207099986Y-59299998D01*
X207202697Y-59289505D01*
X207369119Y-59234358D01*
X207369124Y-59234356D01*
X207518345Y-59142315D01*
X207642315Y-59018345D01*
X207734356Y-58869124D01*
X207734358Y-58869119D01*
X207789505Y-58702697D01*
X207789506Y-58702690D01*
X207799999Y-58599986D01*
X207800000Y-58599973D01*
X207800000Y-58250000D01*
X206815686Y-58250000D01*
X206820080Y-58245606D01*
X206872741Y-58154394D01*
X206900000Y-58052661D01*
X206900000Y-57947339D01*
X206882298Y-57881272D01*
X213991500Y-57881272D01*
X213991500Y-58118727D01*
X214028643Y-58353241D01*
X214102019Y-58579067D01*
X214192932Y-58757493D01*
X214209815Y-58790627D01*
X214349380Y-58982722D01*
X214517278Y-59150620D01*
X214709373Y-59290185D01*
X214809328Y-59341114D01*
X214920932Y-59397980D01*
X214920934Y-59397980D01*
X214920937Y-59397982D01*
X215041984Y-59437312D01*
X215146758Y-59471356D01*
X215381273Y-59508500D01*
X215381278Y-59508500D01*
X215618727Y-59508500D01*
X215853241Y-59471356D01*
X216079063Y-59397982D01*
X216290627Y-59290185D01*
X216482722Y-59150620D01*
X216650620Y-58982722D01*
X216790185Y-58790627D01*
X216897982Y-58579063D01*
X216971356Y-58353241D01*
X216988404Y-58245606D01*
X217008500Y-58118727D01*
X217008500Y-57881272D01*
X216971356Y-57646758D01*
X216921655Y-57493796D01*
X216897982Y-57420937D01*
X216897980Y-57420934D01*
X216897980Y-57420932D01*
X216886134Y-57397682D01*
X225620000Y-57397682D01*
X225620000Y-57602317D01*
X225652009Y-57804417D01*
X225715244Y-57999031D01*
X225808141Y-58181350D01*
X225808147Y-58181359D01*
X225840523Y-58225921D01*
X225840524Y-58225922D01*
X226520000Y-57546446D01*
X226520000Y-57552661D01*
X226547259Y-57654394D01*
X226599920Y-57745606D01*
X226674394Y-57820080D01*
X226765606Y-57872741D01*
X226867339Y-57900000D01*
X226873553Y-57900000D01*
X226194076Y-58579474D01*
X226238650Y-58611859D01*
X226420968Y-58704755D01*
X226615582Y-58767990D01*
X226817683Y-58800000D01*
X227022317Y-58800000D01*
X227224417Y-58767990D01*
X227419031Y-58704755D01*
X227601349Y-58611859D01*
X227645921Y-58579474D01*
X226966447Y-57900000D01*
X226972661Y-57900000D01*
X227074394Y-57872741D01*
X227165606Y-57820080D01*
X227240080Y-57745606D01*
X227292741Y-57654394D01*
X227320000Y-57552661D01*
X227320000Y-57546447D01*
X227999474Y-58225921D01*
X228031859Y-58181349D01*
X228124755Y-57999031D01*
X228187990Y-57804417D01*
X228220000Y-57602317D01*
X228220000Y-57397691D01*
X228219998Y-57397674D01*
X228219894Y-57397019D01*
X235771500Y-57397019D01*
X235771500Y-57602980D01*
X235803719Y-57806408D01*
X235867367Y-58002294D01*
X235893031Y-58052661D01*
X235958602Y-58181350D01*
X235960873Y-58185806D01*
X236081926Y-58352423D01*
X236081930Y-58352428D01*
X236227571Y-58498069D01*
X236227576Y-58498073D01*
X236339053Y-58579065D01*
X236394197Y-58619129D01*
X236511128Y-58678709D01*
X236577705Y-58712632D01*
X236577707Y-58712632D01*
X236577710Y-58712634D01*
X236682707Y-58746749D01*
X236773591Y-58776280D01*
X236864174Y-58790627D01*
X236977019Y-58808500D01*
X236977020Y-58808500D01*
X237182980Y-58808500D01*
X237182981Y-58808500D01*
X237386408Y-58776280D01*
X237582290Y-58712634D01*
X237765803Y-58619129D01*
X237932430Y-58498068D01*
X238078068Y-58352430D01*
X238199129Y-58185803D01*
X238292634Y-58002290D01*
X238356280Y-57806408D01*
X238388500Y-57602981D01*
X238388500Y-57397019D01*
X238369377Y-57276280D01*
X238356280Y-57193591D01*
X238296140Y-57008500D01*
X238292634Y-56997710D01*
X238292632Y-56997707D01*
X238292632Y-56997705D01*
X238238726Y-56891910D01*
X238199129Y-56814197D01*
X238125795Y-56713261D01*
X238078073Y-56647576D01*
X238078069Y-56647571D01*
X237932428Y-56501930D01*
X237932423Y-56501926D01*
X237765806Y-56380873D01*
X237765805Y-56380872D01*
X237765803Y-56380871D01*
X237679702Y-56337000D01*
X237582294Y-56287367D01*
X237386408Y-56223719D01*
X237210794Y-56195905D01*
X237182981Y-56191500D01*
X236977019Y-56191500D01*
X236952550Y-56195375D01*
X236773591Y-56223719D01*
X236577705Y-56287367D01*
X236394193Y-56380873D01*
X236227576Y-56501926D01*
X236227571Y-56501930D01*
X236081930Y-56647571D01*
X236081926Y-56647576D01*
X235960873Y-56814193D01*
X235867367Y-56997705D01*
X235803719Y-57193591D01*
X235771500Y-57397019D01*
X228219894Y-57397019D01*
X228187990Y-57195582D01*
X228124755Y-57000968D01*
X228031859Y-56818650D01*
X227999474Y-56774077D01*
X227999474Y-56774076D01*
X227320000Y-57453551D01*
X227320000Y-57447339D01*
X227292741Y-57345606D01*
X227240080Y-57254394D01*
X227165606Y-57179920D01*
X227074394Y-57127259D01*
X226972661Y-57100000D01*
X226966446Y-57100000D01*
X227645922Y-56420524D01*
X227645921Y-56420523D01*
X227601359Y-56388147D01*
X227601350Y-56388141D01*
X227419031Y-56295244D01*
X227224417Y-56232009D01*
X227022317Y-56200000D01*
X226817683Y-56200000D01*
X226615582Y-56232009D01*
X226420968Y-56295244D01*
X226238644Y-56388143D01*
X226194077Y-56420523D01*
X226194077Y-56420524D01*
X226873554Y-57100000D01*
X226867339Y-57100000D01*
X226765606Y-57127259D01*
X226674394Y-57179920D01*
X226599920Y-57254394D01*
X226547259Y-57345606D01*
X226520000Y-57447339D01*
X226520000Y-57453553D01*
X225840524Y-56774077D01*
X225840523Y-56774077D01*
X225808143Y-56818644D01*
X225715244Y-57000968D01*
X225652009Y-57195582D01*
X225620000Y-57397682D01*
X216886134Y-57397682D01*
X216840693Y-57308500D01*
X216790185Y-57209373D01*
X216650620Y-57017278D01*
X216482722Y-56849380D01*
X216290627Y-56709815D01*
X216079063Y-56602018D01*
X215972979Y-56567549D01*
X215853241Y-56528643D01*
X215618727Y-56491500D01*
X215618722Y-56491500D01*
X215381278Y-56491500D01*
X215381273Y-56491500D01*
X215146758Y-56528643D01*
X214920932Y-56602019D01*
X214709372Y-56709815D01*
X214517275Y-56849382D01*
X214349382Y-57017275D01*
X214209815Y-57209372D01*
X214102019Y-57420932D01*
X214028643Y-57646758D01*
X213991500Y-57881272D01*
X206882298Y-57881272D01*
X206872741Y-57845606D01*
X206820080Y-57754394D01*
X206815686Y-57750000D01*
X207799999Y-57750000D01*
X207799999Y-57400028D01*
X207799998Y-57400013D01*
X207789505Y-57297302D01*
X207734358Y-57130880D01*
X207734356Y-57130875D01*
X207642315Y-56981654D01*
X207579276Y-56918615D01*
X207545791Y-56857292D01*
X207550775Y-56787600D01*
X207566635Y-56758054D01*
X207619129Y-56685803D01*
X207712634Y-56502290D01*
X207776280Y-56306408D01*
X207808500Y-56102981D01*
X207808500Y-55897019D01*
X207776280Y-55693592D01*
X207712634Y-55497710D01*
X207712632Y-55497707D01*
X207712632Y-55497705D01*
X207678709Y-55431128D01*
X207619129Y-55314197D01*
X207579006Y-55258972D01*
X207498073Y-55147576D01*
X207498069Y-55147571D01*
X207352428Y-55001930D01*
X207352423Y-55001926D01*
X207185806Y-54880873D01*
X207185805Y-54880872D01*
X207185803Y-54880871D01*
X207109440Y-54841962D01*
X207002294Y-54787367D01*
X206806408Y-54723719D01*
X206630794Y-54695905D01*
X206602981Y-54691500D01*
X206397019Y-54691500D01*
X206372550Y-54695375D01*
X206193591Y-54723719D01*
X205997705Y-54787367D01*
X205814193Y-54880873D01*
X205647576Y-55001926D01*
X205647571Y-55001930D01*
X205501930Y-55147571D01*
X205501926Y-55147576D01*
X205380873Y-55314193D01*
X205287367Y-55497705D01*
X205223719Y-55693591D01*
X205191500Y-55897019D01*
X203120567Y-55897019D01*
X203119129Y-55894197D01*
X203119127Y-55894194D01*
X203119126Y-55894192D01*
X202998073Y-55727576D01*
X202998069Y-55727571D01*
X202852428Y-55581930D01*
X202852423Y-55581926D01*
X202685806Y-55460873D01*
X202685805Y-55460872D01*
X202685803Y-55460871D01*
X202628496Y-55431671D01*
X202502294Y-55367367D01*
X202306408Y-55303719D01*
X202130794Y-55275905D01*
X202102981Y-55271500D01*
X201897019Y-55271500D01*
X201872550Y-55275375D01*
X201693591Y-55303719D01*
X201497705Y-55367367D01*
X201314193Y-55460873D01*
X201147576Y-55581926D01*
X201147571Y-55581930D01*
X201001930Y-55727571D01*
X201001926Y-55727576D01*
X200880873Y-55894193D01*
X200787367Y-56077705D01*
X200723719Y-56273591D01*
X200691500Y-56477019D01*
X192240170Y-56477019D01*
X192240704Y-56475375D01*
X192254203Y-56433830D01*
X192254203Y-56433829D01*
X192258526Y-56420523D01*
X192295049Y-56308116D01*
X192328500Y-56096916D01*
X192328500Y-55883084D01*
X192295049Y-55671884D01*
X192252885Y-55542115D01*
X192228973Y-55468519D01*
X192228972Y-55468516D01*
X192150340Y-55314193D01*
X192131894Y-55277991D01*
X192006206Y-55104996D01*
X191855004Y-54953794D01*
X191682009Y-54828106D01*
X191682005Y-54828103D01*
X191678132Y-54825730D01*
X191631254Y-54773920D01*
X191619829Y-54704991D01*
X191647483Y-54640827D01*
X191678132Y-54614270D01*
X191682005Y-54611896D01*
X191682004Y-54611896D01*
X191682009Y-54611894D01*
X191855004Y-54486206D01*
X192006206Y-54335004D01*
X192131894Y-54162009D01*
X192228972Y-53971483D01*
X192254445Y-53893084D01*
X193376500Y-53893084D01*
X193376500Y-54106916D01*
X193379617Y-54126597D01*
X193409951Y-54318117D01*
X193476026Y-54521480D01*
X193476027Y-54521483D01*
X193536837Y-54640827D01*
X193573106Y-54712009D01*
X193698794Y-54885004D01*
X193849996Y-55036206D01*
X194022991Y-55161894D01*
X194062220Y-55181882D01*
X194213516Y-55258972D01*
X194213519Y-55258973D01*
X194272049Y-55277990D01*
X194416884Y-55325049D01*
X194628084Y-55358500D01*
X194628085Y-55358500D01*
X194841915Y-55358500D01*
X194841916Y-55358500D01*
X195053116Y-55325049D01*
X195256483Y-55258972D01*
X195447009Y-55161894D01*
X195620004Y-55036206D01*
X195725184Y-54931025D01*
X195786503Y-54897543D01*
X195856195Y-54902527D01*
X195912129Y-54944398D01*
X195929043Y-54975375D01*
X195974110Y-55096203D01*
X195996140Y-55125632D01*
X196061739Y-55213261D01*
X196178796Y-55300889D01*
X196315799Y-55351989D01*
X196343050Y-55354918D01*
X196376345Y-55358499D01*
X196376362Y-55358500D01*
X198173638Y-55358500D01*
X198173654Y-55358499D01*
X198200692Y-55355591D01*
X198234201Y-55351989D01*
X198371204Y-55300889D01*
X198488261Y-55213261D01*
X198575889Y-55096204D01*
X198626989Y-54959201D01*
X198631103Y-54920932D01*
X198633499Y-54898654D01*
X198633500Y-54898637D01*
X198633500Y-53873402D01*
X214731500Y-53873402D01*
X214731500Y-54126597D01*
X214756864Y-54286739D01*
X214771106Y-54376658D01*
X214849344Y-54617450D01*
X214964287Y-54843038D01*
X215113105Y-55047868D01*
X215292132Y-55226895D01*
X215496962Y-55375713D01*
X215722550Y-55490656D01*
X215963342Y-55568894D01*
X216092176Y-55589299D01*
X216213403Y-55608500D01*
X216213408Y-55608500D01*
X216466597Y-55608500D01*
X216577108Y-55590996D01*
X216716658Y-55568894D01*
X216957450Y-55490656D01*
X217183038Y-55375713D01*
X217387868Y-55226895D01*
X217566895Y-55047868D01*
X217715713Y-54843038D01*
X217830656Y-54617450D01*
X217908894Y-54376658D01*
X217935319Y-54209815D01*
X217948500Y-54126597D01*
X217948500Y-53873402D01*
X217918166Y-53681884D01*
X217908894Y-53623342D01*
X217830656Y-53382550D01*
X217715713Y-53156962D01*
X217673925Y-53099446D01*
X224891500Y-53099446D01*
X224891500Y-54900553D01*
X224902113Y-55004428D01*
X224957884Y-55172736D01*
X224957889Y-55172747D01*
X225050967Y-55323648D01*
X225050970Y-55323652D01*
X225176347Y-55449029D01*
X225176351Y-55449032D01*
X225327252Y-55542110D01*
X225327255Y-55542111D01*
X225327261Y-55542115D01*
X225495573Y-55597887D01*
X225599454Y-55608500D01*
X225599459Y-55608500D01*
X227400541Y-55608500D01*
X227400546Y-55608500D01*
X227504427Y-55597887D01*
X227672739Y-55542115D01*
X227823652Y-55449030D01*
X227949030Y-55323652D01*
X228042115Y-55172739D01*
X228097887Y-55004427D01*
X228108500Y-54900546D01*
X228108500Y-54601345D01*
X238866500Y-54601345D01*
X238866500Y-56398654D01*
X238873011Y-56459202D01*
X238873011Y-56459204D01*
X238920198Y-56585714D01*
X238924111Y-56596204D01*
X239011739Y-56713261D01*
X239128796Y-56800889D01*
X239265799Y-56851989D01*
X239293050Y-56854918D01*
X239326345Y-56858499D01*
X239326362Y-56858500D01*
X241123638Y-56858500D01*
X241123654Y-56858499D01*
X241150692Y-56855591D01*
X241184201Y-56851989D01*
X241321204Y-56800889D01*
X241438261Y-56713261D01*
X241525889Y-56596204D01*
X241570957Y-56475371D01*
X241612827Y-56419442D01*
X241678291Y-56395025D01*
X241746564Y-56409877D01*
X241774818Y-56431028D01*
X241879996Y-56536206D01*
X242052991Y-56661894D01*
X242099915Y-56685803D01*
X242243516Y-56758972D01*
X242243519Y-56758973D01*
X242331626Y-56787600D01*
X242446884Y-56825049D01*
X242658084Y-56858500D01*
X242658085Y-56858500D01*
X242871915Y-56858500D01*
X242871916Y-56858500D01*
X243083116Y-56825049D01*
X243286483Y-56758972D01*
X243477009Y-56661894D01*
X243650004Y-56536206D01*
X243801206Y-56385004D01*
X243926894Y-56212009D01*
X244023972Y-56021483D01*
X244090049Y-55818116D01*
X244123500Y-55606916D01*
X244123500Y-55393084D01*
X244121629Y-55381272D01*
X244991500Y-55381272D01*
X244991500Y-55618727D01*
X245028643Y-55853241D01*
X245102019Y-56079067D01*
X245201135Y-56273591D01*
X245209815Y-56290627D01*
X245349380Y-56482722D01*
X245517278Y-56650620D01*
X245709373Y-56790185D01*
X245777796Y-56825048D01*
X245920932Y-56897980D01*
X245920934Y-56897980D01*
X245920937Y-56897982D01*
X245984439Y-56918615D01*
X246146758Y-56971356D01*
X246381273Y-57008500D01*
X246381278Y-57008500D01*
X246618727Y-57008500D01*
X246853241Y-56971356D01*
X247079063Y-56897982D01*
X247290627Y-56790185D01*
X247482722Y-56650620D01*
X247650620Y-56482722D01*
X247790185Y-56290627D01*
X247897982Y-56079063D01*
X247971356Y-55853241D01*
X247978675Y-55807032D01*
X248008500Y-55618727D01*
X248008500Y-55381272D01*
X247971356Y-55146758D01*
X247925110Y-55004428D01*
X247897982Y-54920937D01*
X247897980Y-54920934D01*
X247897980Y-54920932D01*
X247809997Y-54748257D01*
X247809996Y-54748255D01*
X247790186Y-54709374D01*
X247781071Y-54696828D01*
X253311500Y-54696828D01*
X253311500Y-54936171D01*
X253348939Y-55172551D01*
X253422898Y-55400174D01*
X253495222Y-55542115D01*
X253529047Y-55608500D01*
X253531554Y-55613419D01*
X253672221Y-55807032D01*
X253672225Y-55807037D01*
X253841462Y-55976274D01*
X253841467Y-55976278D01*
X253981077Y-56077710D01*
X254035084Y-56116948D01*
X254146132Y-56173530D01*
X254248325Y-56225601D01*
X254248327Y-56225601D01*
X254248330Y-56225603D01*
X254475949Y-56299561D01*
X254597735Y-56318849D01*
X254712329Y-56337000D01*
X254712334Y-56337000D01*
X254951671Y-56337000D01*
X255056135Y-56320453D01*
X255188051Y-56299561D01*
X255415670Y-56225603D01*
X255628916Y-56116948D01*
X255822539Y-55976273D01*
X255991773Y-55807039D01*
X256049510Y-55727571D01*
X256060221Y-55712828D01*
X269694500Y-55712828D01*
X269694500Y-55952171D01*
X269731939Y-56188551D01*
X269805898Y-56416174D01*
X269863205Y-56528643D01*
X269900592Y-56602019D01*
X269914554Y-56629419D01*
X270055221Y-56823032D01*
X270055225Y-56823037D01*
X270224462Y-56992274D01*
X270224467Y-56992278D01*
X270372735Y-57100000D01*
X270418084Y-57132948D01*
X270537102Y-57193591D01*
X270631325Y-57241601D01*
X270631327Y-57241601D01*
X270631330Y-57241603D01*
X270858949Y-57315561D01*
X270980735Y-57334849D01*
X271095329Y-57353000D01*
X271095334Y-57353000D01*
X271334671Y-57353000D01*
X271439135Y-57336453D01*
X271571051Y-57315561D01*
X271798670Y-57241603D01*
X272011916Y-57132948D01*
X272205539Y-56992273D01*
X272374773Y-56823039D01*
X272515448Y-56629416D01*
X272624103Y-56416170D01*
X272698061Y-56188551D01*
X272718953Y-56056635D01*
X272735500Y-55952171D01*
X272735500Y-55712828D01*
X272714767Y-55581926D01*
X272698061Y-55476449D01*
X272624103Y-55248830D01*
X272624101Y-55248827D01*
X272624101Y-55248825D01*
X272572511Y-55147576D01*
X272515448Y-55035584D01*
X272473988Y-54978519D01*
X272374778Y-54841967D01*
X272374774Y-54841962D01*
X272205537Y-54672725D01*
X272205532Y-54672721D01*
X272011919Y-54532054D01*
X272011918Y-54532053D01*
X272011916Y-54532052D01*
X271921933Y-54486203D01*
X271798674Y-54423398D01*
X271571051Y-54349439D01*
X271334671Y-54312000D01*
X271334666Y-54312000D01*
X271095334Y-54312000D01*
X271095329Y-54312000D01*
X270858948Y-54349439D01*
X270631325Y-54423398D01*
X270418080Y-54532054D01*
X270224467Y-54672721D01*
X270224462Y-54672725D01*
X270055225Y-54841962D01*
X270055221Y-54841967D01*
X269914554Y-55035580D01*
X269805898Y-55248825D01*
X269731939Y-55476448D01*
X269694500Y-55712828D01*
X256060221Y-55712828D01*
X256116711Y-55635077D01*
X256116711Y-55635076D01*
X256128589Y-55618727D01*
X256132448Y-55613416D01*
X256241103Y-55400170D01*
X256315061Y-55172551D01*
X256342085Y-55001926D01*
X256352500Y-54936171D01*
X256352500Y-54696828D01*
X256327787Y-54540799D01*
X256315061Y-54460449D01*
X256241103Y-54232830D01*
X256241101Y-54232827D01*
X256241101Y-54232825D01*
X256186974Y-54126597D01*
X256132448Y-54019584D01*
X256097501Y-53971483D01*
X255991778Y-53825967D01*
X255991774Y-53825962D01*
X255822537Y-53656725D01*
X255822532Y-53656721D01*
X255628919Y-53516054D01*
X255628918Y-53516053D01*
X255628916Y-53516052D01*
X255555248Y-53478516D01*
X255415674Y-53407398D01*
X255188051Y-53333439D01*
X254951671Y-53296000D01*
X254951666Y-53296000D01*
X254712334Y-53296000D01*
X254712329Y-53296000D01*
X254475948Y-53333439D01*
X254248325Y-53407398D01*
X254035080Y-53516054D01*
X253841467Y-53656721D01*
X253841462Y-53656725D01*
X253672225Y-53825962D01*
X253672221Y-53825967D01*
X253531554Y-54019580D01*
X253422898Y-54232825D01*
X253348939Y-54460448D01*
X253311500Y-54696828D01*
X247781071Y-54696828D01*
X247740383Y-54640827D01*
X247650620Y-54517278D01*
X247482722Y-54349380D01*
X247290627Y-54209815D01*
X247269619Y-54199111D01*
X247079067Y-54102019D01*
X246853241Y-54028643D01*
X246618727Y-53991500D01*
X246618722Y-53991500D01*
X246381278Y-53991500D01*
X246381273Y-53991500D01*
X246146758Y-54028643D01*
X245920932Y-54102019D01*
X245709372Y-54209815D01*
X245517275Y-54349382D01*
X245349382Y-54517275D01*
X245209815Y-54709372D01*
X245102019Y-54920932D01*
X245028643Y-55146758D01*
X244991500Y-55381272D01*
X244121629Y-55381272D01*
X244090049Y-55181884D01*
X244031580Y-55001932D01*
X244023973Y-54978519D01*
X244023972Y-54978516D01*
X243954396Y-54841967D01*
X243926894Y-54787991D01*
X243801206Y-54614996D01*
X243650004Y-54463794D01*
X243477009Y-54338106D01*
X243470921Y-54335004D01*
X243286483Y-54241027D01*
X243286480Y-54241026D01*
X243083117Y-54174951D01*
X242977516Y-54158225D01*
X242871916Y-54141500D01*
X242658084Y-54141500D01*
X242587684Y-54152650D01*
X242446882Y-54174951D01*
X242243519Y-54241026D01*
X242243516Y-54241027D01*
X242052990Y-54338106D01*
X241879997Y-54463793D01*
X241774818Y-54568972D01*
X241713495Y-54602456D01*
X241643803Y-54597472D01*
X241587870Y-54555600D01*
X241570958Y-54524629D01*
X241525889Y-54403796D01*
X241438261Y-54286739D01*
X241321204Y-54199111D01*
X241184203Y-54148011D01*
X241123654Y-54141500D01*
X241123638Y-54141500D01*
X239326362Y-54141500D01*
X239326345Y-54141500D01*
X239265797Y-54148011D01*
X239265795Y-54148011D01*
X239128795Y-54199111D01*
X239011739Y-54286739D01*
X238924111Y-54403795D01*
X238873011Y-54540795D01*
X238873011Y-54540797D01*
X238866500Y-54601345D01*
X228108500Y-54601345D01*
X228108500Y-53099454D01*
X228097887Y-52995573D01*
X228042115Y-52827261D01*
X228042111Y-52827255D01*
X228042110Y-52827252D01*
X227949032Y-52676351D01*
X227949029Y-52676347D01*
X227823652Y-52550970D01*
X227823648Y-52550967D01*
X227672747Y-52457889D01*
X227672741Y-52457886D01*
X227672739Y-52457885D01*
X227539679Y-52413794D01*
X227504428Y-52402113D01*
X227400553Y-52391500D01*
X227400546Y-52391500D01*
X225599454Y-52391500D01*
X225599446Y-52391500D01*
X225495571Y-52402113D01*
X225327263Y-52457884D01*
X225327252Y-52457889D01*
X225176351Y-52550967D01*
X225176347Y-52550970D01*
X225050970Y-52676347D01*
X225050967Y-52676351D01*
X224957889Y-52827252D01*
X224957884Y-52827263D01*
X224902113Y-52995571D01*
X224891500Y-53099446D01*
X217673925Y-53099446D01*
X217566895Y-52952132D01*
X217387868Y-52773105D01*
X217183038Y-52624287D01*
X216957450Y-52509344D01*
X216716658Y-52431106D01*
X216466597Y-52391500D01*
X216466592Y-52391500D01*
X216213408Y-52391500D01*
X216213403Y-52391500D01*
X215963341Y-52431106D01*
X215722547Y-52509345D01*
X215496961Y-52624287D01*
X215425306Y-52676348D01*
X215292132Y-52773105D01*
X215292130Y-52773107D01*
X215292129Y-52773107D01*
X215113107Y-52952129D01*
X215113107Y-52952130D01*
X215113105Y-52952132D01*
X215075110Y-53004428D01*
X214964287Y-53156961D01*
X214849345Y-53382547D01*
X214771106Y-53623341D01*
X214731500Y-53873402D01*
X198633500Y-53873402D01*
X198633500Y-53101362D01*
X198633499Y-53101345D01*
X198627749Y-53047870D01*
X198626989Y-53040799D01*
X198620956Y-53024625D01*
X198598267Y-52963794D01*
X198575889Y-52903796D01*
X198488261Y-52786739D01*
X198371204Y-52699111D01*
X198345088Y-52689370D01*
X198234203Y-52648011D01*
X198173654Y-52641500D01*
X198173638Y-52641500D01*
X196376362Y-52641500D01*
X196376345Y-52641500D01*
X196315797Y-52648011D01*
X196315795Y-52648011D01*
X196178795Y-52699111D01*
X196061739Y-52786739D01*
X195974111Y-52903795D01*
X195929043Y-53024625D01*
X195887171Y-53080558D01*
X195821707Y-53104974D01*
X195753434Y-53090122D01*
X195725181Y-53068971D01*
X195620006Y-52963796D01*
X195620004Y-52963794D01*
X195447009Y-52838106D01*
X195256483Y-52741027D01*
X195256480Y-52741026D01*
X195053117Y-52674951D01*
X194947516Y-52658225D01*
X194841916Y-52641500D01*
X194628084Y-52641500D01*
X194557684Y-52652650D01*
X194416882Y-52674951D01*
X194213519Y-52741026D01*
X194213516Y-52741027D01*
X194022990Y-52838106D01*
X193849993Y-52963796D01*
X193698796Y-53114993D01*
X193573106Y-53287990D01*
X193476027Y-53478516D01*
X193476026Y-53478519D01*
X193409951Y-53681882D01*
X193381933Y-53858781D01*
X193376500Y-53893084D01*
X192254445Y-53893084D01*
X192255447Y-53890000D01*
X192268478Y-53849895D01*
X192268478Y-53849894D01*
X192274189Y-53832316D01*
X192295049Y-53768116D01*
X192328500Y-53556916D01*
X192328500Y-53343084D01*
X192295049Y-53131884D01*
X192241409Y-52966795D01*
X192228973Y-52928519D01*
X192228972Y-52928516D01*
X192155716Y-52784745D01*
X192131894Y-52737991D01*
X192006206Y-52564996D01*
X191855004Y-52413794D01*
X191682009Y-52288106D01*
X191682005Y-52288103D01*
X191678132Y-52285730D01*
X191631254Y-52233920D01*
X191619829Y-52164991D01*
X191647483Y-52100827D01*
X191678132Y-52074270D01*
X191682005Y-52071896D01*
X191682004Y-52071896D01*
X191682009Y-52071894D01*
X191855004Y-51946206D01*
X191959055Y-51842155D01*
X230205000Y-51842155D01*
X230205000Y-52390000D01*
X230949670Y-52390000D01*
X230929925Y-52409745D01*
X230880556Y-52495255D01*
X230855000Y-52590630D01*
X230855000Y-52689370D01*
X230880556Y-52784745D01*
X230929925Y-52870255D01*
X230949670Y-52890000D01*
X230205000Y-52890000D01*
X230205000Y-53437844D01*
X230211401Y-53497372D01*
X230211403Y-53497379D01*
X230261645Y-53632086D01*
X230261649Y-53632093D01*
X230347809Y-53747187D01*
X230347812Y-53747190D01*
X230462906Y-53833350D01*
X230462913Y-53833354D01*
X230597620Y-53883596D01*
X230597627Y-53883598D01*
X230657155Y-53889999D01*
X230657172Y-53890000D01*
X230980000Y-53890000D01*
X230980000Y-52920330D01*
X230999745Y-52940075D01*
X231085255Y-52989444D01*
X231180630Y-53015000D01*
X231279370Y-53015000D01*
X231374745Y-52989444D01*
X231460255Y-52940075D01*
X231466500Y-52933830D01*
X231466500Y-52966793D01*
X231477617Y-53022679D01*
X231480000Y-53046871D01*
X231480000Y-53890000D01*
X231802828Y-53890000D01*
X231802844Y-53889999D01*
X231862372Y-53883598D01*
X231862376Y-53883597D01*
X231997088Y-53833352D01*
X232004872Y-53829102D01*
X232006627Y-53832316D01*
X232055719Y-53813917D01*
X232112212Y-53823025D01*
X232198539Y-53858783D01*
X232355472Y-53889999D01*
X232398204Y-53898499D01*
X232398207Y-53898500D01*
X232398209Y-53898500D01*
X232601793Y-53898500D01*
X232601794Y-53898499D01*
X232801461Y-53858783D01*
X232989546Y-53780876D01*
X233066112Y-53729715D01*
X233132786Y-53708839D01*
X233200166Y-53727323D01*
X233203832Y-53729679D01*
X233280454Y-53780876D01*
X233280457Y-53780877D01*
X233280460Y-53780879D01*
X233447079Y-53849894D01*
X233468539Y-53858783D01*
X233625472Y-53889999D01*
X233668204Y-53898499D01*
X233668207Y-53898500D01*
X233668209Y-53898500D01*
X233871793Y-53898500D01*
X233871794Y-53898499D01*
X234071461Y-53858783D01*
X234259546Y-53780876D01*
X234428818Y-53667772D01*
X234572772Y-53523818D01*
X234685876Y-53354546D01*
X234763783Y-53166461D01*
X234803500Y-52966791D01*
X234803500Y-52313209D01*
X234803500Y-52313206D01*
X234803499Y-52313204D01*
X234798033Y-52285727D01*
X234763783Y-52113539D01*
X234694472Y-51946206D01*
X234685877Y-51925456D01*
X234685874Y-51925451D01*
X234651096Y-51873402D01*
X235231500Y-51873402D01*
X235231500Y-52126597D01*
X235257080Y-52288103D01*
X235271106Y-52376658D01*
X235349344Y-52617450D01*
X235464287Y-52843038D01*
X235613105Y-53047868D01*
X235792132Y-53226895D01*
X235996962Y-53375713D01*
X236222550Y-53490656D01*
X236463342Y-53568894D01*
X236592176Y-53589299D01*
X236713403Y-53608500D01*
X236713408Y-53608500D01*
X236966597Y-53608500D01*
X237077108Y-53590996D01*
X237216658Y-53568894D01*
X237457450Y-53490656D01*
X237683038Y-53375713D01*
X237887868Y-53226895D01*
X238066895Y-53047868D01*
X238215713Y-52843038D01*
X238330656Y-52617450D01*
X238408894Y-52376658D01*
X238437663Y-52195016D01*
X238448500Y-52126597D01*
X238448500Y-51873402D01*
X238427495Y-51740788D01*
X238408894Y-51623342D01*
X238330656Y-51382550D01*
X238215713Y-51156962D01*
X238173925Y-51099446D01*
X245391500Y-51099446D01*
X245391500Y-52900553D01*
X245402113Y-53004428D01*
X245457884Y-53172736D01*
X245457889Y-53172747D01*
X245550967Y-53323648D01*
X245550970Y-53323652D01*
X245676347Y-53449029D01*
X245676351Y-53449032D01*
X245827252Y-53542110D01*
X245827255Y-53542111D01*
X245827261Y-53542115D01*
X245995573Y-53597887D01*
X246099454Y-53608500D01*
X246099459Y-53608500D01*
X247900541Y-53608500D01*
X247900546Y-53608500D01*
X248004427Y-53597887D01*
X248172739Y-53542115D01*
X248323652Y-53449030D01*
X248449030Y-53323652D01*
X248542115Y-53172739D01*
X248597887Y-53004427D01*
X248608500Y-52900546D01*
X248608500Y-51099454D01*
X248597887Y-50995573D01*
X248542115Y-50827261D01*
X248542111Y-50827255D01*
X248542110Y-50827252D01*
X248449032Y-50676351D01*
X248449029Y-50676347D01*
X248323652Y-50550970D01*
X248323648Y-50550967D01*
X248172747Y-50457889D01*
X248172741Y-50457886D01*
X248172739Y-50457885D01*
X248172736Y-50457884D01*
X248004428Y-50402113D01*
X247900553Y-50391500D01*
X247900546Y-50391500D01*
X246099454Y-50391500D01*
X246099446Y-50391500D01*
X245995571Y-50402113D01*
X245827263Y-50457884D01*
X245827252Y-50457889D01*
X245676351Y-50550967D01*
X245676347Y-50550970D01*
X245550970Y-50676347D01*
X245550967Y-50676351D01*
X245457889Y-50827252D01*
X245457884Y-50827263D01*
X245402113Y-50995571D01*
X245391500Y-51099446D01*
X238173925Y-51099446D01*
X238066895Y-50952132D01*
X237887868Y-50773105D01*
X237683038Y-50624287D01*
X237457450Y-50509344D01*
X237216658Y-50431106D01*
X236966597Y-50391500D01*
X236966592Y-50391500D01*
X236713408Y-50391500D01*
X236713403Y-50391500D01*
X236463341Y-50431106D01*
X236222547Y-50509345D01*
X235996961Y-50624287D01*
X235925306Y-50676348D01*
X235792132Y-50773105D01*
X235792130Y-50773107D01*
X235792129Y-50773107D01*
X235613107Y-50952129D01*
X235613107Y-50952130D01*
X235613105Y-50952132D01*
X235581545Y-50995571D01*
X235464287Y-51156961D01*
X235349345Y-51382547D01*
X235271106Y-51623341D01*
X235231500Y-51873402D01*
X234651096Y-51873402D01*
X234572772Y-51756182D01*
X234572769Y-51756178D01*
X234428821Y-51612230D01*
X234428817Y-51612227D01*
X234259552Y-51499127D01*
X234259539Y-51499120D01*
X234071465Y-51421218D01*
X234071453Y-51421215D01*
X233871794Y-51381500D01*
X233871791Y-51381500D01*
X233668209Y-51381500D01*
X233668206Y-51381500D01*
X233468546Y-51421215D01*
X233468534Y-51421218D01*
X233280457Y-51499122D01*
X233203890Y-51550282D01*
X233137212Y-51571159D01*
X233069832Y-51552674D01*
X233066110Y-51550282D01*
X233039959Y-51532809D01*
X232989546Y-51499124D01*
X232989543Y-51499122D01*
X232989542Y-51499122D01*
X232801465Y-51421218D01*
X232801453Y-51421215D01*
X232601794Y-51381500D01*
X232601791Y-51381500D01*
X232398209Y-51381500D01*
X232398206Y-51381500D01*
X232198546Y-51421214D01*
X232198542Y-51421216D01*
X232198540Y-51421216D01*
X232198539Y-51421217D01*
X232198537Y-51421218D01*
X232112213Y-51456974D01*
X232042744Y-51464442D01*
X232006170Y-51448509D01*
X232004868Y-51450895D01*
X231997086Y-51446645D01*
X231862379Y-51396403D01*
X231862372Y-51396401D01*
X231802844Y-51390000D01*
X231480000Y-51390000D01*
X231480000Y-52233128D01*
X231477617Y-52257320D01*
X231466500Y-52313206D01*
X231466500Y-52346170D01*
X231460255Y-52339925D01*
X231374745Y-52290556D01*
X231279370Y-52265000D01*
X231180630Y-52265000D01*
X231085255Y-52290556D01*
X230999745Y-52339925D01*
X230980000Y-52359670D01*
X230980000Y-51390000D01*
X230657155Y-51390000D01*
X230597627Y-51396401D01*
X230597620Y-51396403D01*
X230462913Y-51446645D01*
X230462906Y-51446649D01*
X230347812Y-51532809D01*
X230347809Y-51532812D01*
X230261649Y-51647906D01*
X230261645Y-51647913D01*
X230211403Y-51782620D01*
X230211401Y-51782627D01*
X230205000Y-51842155D01*
X191959055Y-51842155D01*
X192006206Y-51795004D01*
X192131894Y-51622009D01*
X192228972Y-51431483D01*
X192295049Y-51228116D01*
X192328500Y-51016916D01*
X192328500Y-50803084D01*
X192295049Y-50591884D01*
X192243240Y-50432430D01*
X192228973Y-50388519D01*
X192228972Y-50388516D01*
X192179507Y-50291438D01*
X192131894Y-50197991D01*
X192006206Y-50024996D01*
X191855004Y-49873794D01*
X191682009Y-49748106D01*
X191682005Y-49748103D01*
X191678132Y-49745730D01*
X191631254Y-49693920D01*
X191619829Y-49624991D01*
X191647483Y-49560827D01*
X191678132Y-49534270D01*
X191682005Y-49531896D01*
X191682004Y-49531896D01*
X191682009Y-49531894D01*
X191855004Y-49406206D01*
X192006206Y-49255004D01*
X192131894Y-49082009D01*
X192228972Y-48891483D01*
X192295049Y-48688116D01*
X192328500Y-48476916D01*
X192328500Y-48263084D01*
X192318721Y-48201345D01*
X193426500Y-48201345D01*
X193426500Y-49798654D01*
X193433011Y-49859202D01*
X193433011Y-49859204D01*
X193474843Y-49971356D01*
X193484111Y-49996204D01*
X193571739Y-50113261D01*
X193688796Y-50200889D01*
X193803949Y-50243839D01*
X193825793Y-50251987D01*
X193825799Y-50251989D01*
X193853050Y-50254918D01*
X193886345Y-50258499D01*
X193886362Y-50258500D01*
X195033638Y-50258500D01*
X195033654Y-50258499D01*
X195060692Y-50255591D01*
X195094201Y-50251989D01*
X195094205Y-50251987D01*
X195094207Y-50251987D01*
X195183229Y-50218783D01*
X195231204Y-50200889D01*
X195231210Y-50200884D01*
X195238984Y-50196640D01*
X195239872Y-50198266D01*
X195295032Y-50177686D01*
X195351343Y-50186807D01*
X195428539Y-50218783D01*
X195595466Y-50251987D01*
X195628204Y-50258499D01*
X195628207Y-50258500D01*
X195628209Y-50258500D01*
X195831793Y-50258500D01*
X195831794Y-50258499D01*
X196031461Y-50218783D01*
X196219546Y-50140876D01*
X196296112Y-50089715D01*
X196362786Y-50068839D01*
X196430166Y-50087323D01*
X196433832Y-50089679D01*
X196510454Y-50140876D01*
X196510457Y-50140877D01*
X196510460Y-50140879D01*
X196698534Y-50218781D01*
X196698539Y-50218783D01*
X196865466Y-50251987D01*
X196898204Y-50258499D01*
X196898207Y-50258500D01*
X196898209Y-50258500D01*
X197101793Y-50258500D01*
X197101794Y-50258499D01*
X197301461Y-50218783D01*
X197489546Y-50140876D01*
X197658818Y-50027772D01*
X197802772Y-49883818D01*
X197915876Y-49714546D01*
X197993783Y-49526461D01*
X198003618Y-49477019D01*
X205691500Y-49477019D01*
X205691500Y-49682980D01*
X205723719Y-49886408D01*
X205787367Y-50082294D01*
X205851671Y-50208496D01*
X205877149Y-50258499D01*
X205880873Y-50265806D01*
X206001926Y-50432423D01*
X206001930Y-50432428D01*
X206147571Y-50578069D01*
X206147576Y-50578073D01*
X206211185Y-50624287D01*
X206314197Y-50699129D01*
X206431128Y-50758709D01*
X206497705Y-50792632D01*
X206497707Y-50792632D01*
X206497710Y-50792634D01*
X206602707Y-50826749D01*
X206693591Y-50856280D01*
X206795305Y-50872390D01*
X206897019Y-50888500D01*
X206897020Y-50888500D01*
X207102980Y-50888500D01*
X207102981Y-50888500D01*
X207306408Y-50856280D01*
X207502290Y-50792634D01*
X207685803Y-50699129D01*
X207852430Y-50578068D01*
X207998068Y-50432430D01*
X208119129Y-50265803D01*
X208212634Y-50082290D01*
X208276280Y-49886408D01*
X208308500Y-49682981D01*
X208308500Y-49477019D01*
X208276280Y-49273592D01*
X208270240Y-49255004D01*
X208246749Y-49182707D01*
X208212634Y-49077710D01*
X208212632Y-49077707D01*
X208212632Y-49077705D01*
X208178709Y-49011128D01*
X208119129Y-48894197D01*
X208089373Y-48853241D01*
X207998073Y-48727576D01*
X207998069Y-48727571D01*
X207852428Y-48581930D01*
X207852423Y-48581926D01*
X207707624Y-48476724D01*
X207685806Y-48460873D01*
X207685805Y-48460872D01*
X207685803Y-48460871D01*
X207607499Y-48420973D01*
X207529583Y-48381272D01*
X224991500Y-48381272D01*
X224991500Y-48618727D01*
X225028643Y-48853241D01*
X225102019Y-49079067D01*
X225191664Y-49255004D01*
X225209815Y-49290627D01*
X225349380Y-49482722D01*
X225517278Y-49650620D01*
X225709373Y-49790185D01*
X225809328Y-49841114D01*
X225920932Y-49897980D01*
X225920934Y-49897980D01*
X225920937Y-49897982D01*
X226041984Y-49937312D01*
X226146758Y-49971356D01*
X226381273Y-50008500D01*
X226381278Y-50008500D01*
X226618727Y-50008500D01*
X226853241Y-49971356D01*
X227079063Y-49897982D01*
X227290627Y-49790185D01*
X227482722Y-49650620D01*
X227650620Y-49482722D01*
X227790185Y-49290627D01*
X227897982Y-49079063D01*
X227971356Y-48853241D01*
X228008500Y-48618727D01*
X228008500Y-48381272D01*
X227971356Y-48146758D01*
X227937142Y-48041459D01*
X227897982Y-47920937D01*
X227897980Y-47920934D01*
X227897980Y-47920932D01*
X227806554Y-47741500D01*
X227790185Y-47709373D01*
X227650620Y-47517278D01*
X227482722Y-47349380D01*
X227290627Y-47209815D01*
X227282604Y-47205727D01*
X227079067Y-47102019D01*
X227061077Y-47096174D01*
X226981742Y-47070396D01*
X226853241Y-47028643D01*
X226618727Y-46991500D01*
X226618722Y-46991500D01*
X226381278Y-46991500D01*
X226381273Y-46991500D01*
X226146758Y-47028643D01*
X225920932Y-47102019D01*
X225709372Y-47209815D01*
X225517275Y-47349382D01*
X225349382Y-47517275D01*
X225209815Y-47709372D01*
X225102019Y-47920932D01*
X225028643Y-48146758D01*
X224991500Y-48381272D01*
X207529583Y-48381272D01*
X207502294Y-48367367D01*
X207306408Y-48303719D01*
X207130794Y-48275905D01*
X207102981Y-48271500D01*
X206897019Y-48271500D01*
X206872550Y-48275375D01*
X206693591Y-48303719D01*
X206497705Y-48367367D01*
X206314193Y-48460873D01*
X206147576Y-48581926D01*
X206147571Y-48581930D01*
X206001930Y-48727571D01*
X206001926Y-48727576D01*
X205880873Y-48894193D01*
X205787367Y-49077705D01*
X205723719Y-49273591D01*
X205691500Y-49477019D01*
X198003618Y-49477019D01*
X198009399Y-49447955D01*
X198033500Y-49326793D01*
X198033500Y-48673206D01*
X198033499Y-48673204D01*
X198015343Y-48581930D01*
X197993783Y-48473539D01*
X197972009Y-48420972D01*
X197915879Y-48285460D01*
X197915872Y-48285447D01*
X197802772Y-48116182D01*
X197802769Y-48116178D01*
X197658821Y-47972230D01*
X197658817Y-47972227D01*
X197489552Y-47859127D01*
X197489539Y-47859120D01*
X197301465Y-47781218D01*
X197301453Y-47781215D01*
X197101794Y-47741500D01*
X197101791Y-47741500D01*
X196898209Y-47741500D01*
X196898206Y-47741500D01*
X196698546Y-47781215D01*
X196698534Y-47781218D01*
X196510457Y-47859122D01*
X196433890Y-47910282D01*
X196367212Y-47931159D01*
X196299832Y-47912674D01*
X196296110Y-47910282D01*
X196260875Y-47886739D01*
X196219546Y-47859124D01*
X196219543Y-47859122D01*
X196219542Y-47859122D01*
X196031465Y-47781218D01*
X196031453Y-47781215D01*
X195831794Y-47741500D01*
X195831791Y-47741500D01*
X195628209Y-47741500D01*
X195628206Y-47741500D01*
X195428541Y-47781215D01*
X195428538Y-47781217D01*
X195351343Y-47813191D01*
X195281874Y-47820658D01*
X195239592Y-47802255D01*
X195238988Y-47803362D01*
X195231209Y-47799115D01*
X195231204Y-47799111D01*
X195176758Y-47778803D01*
X195094203Y-47748011D01*
X195033654Y-47741500D01*
X195033638Y-47741500D01*
X193886362Y-47741500D01*
X193886345Y-47741500D01*
X193825797Y-47748011D01*
X193825795Y-47748011D01*
X193688795Y-47799111D01*
X193571739Y-47886739D01*
X193484111Y-48003795D01*
X193433011Y-48140795D01*
X193433011Y-48140797D01*
X193426500Y-48201345D01*
X192318721Y-48201345D01*
X192295049Y-48051884D01*
X192249818Y-47912674D01*
X192228973Y-47848519D01*
X192228972Y-47848516D01*
X192151403Y-47696280D01*
X192131894Y-47657991D01*
X192006206Y-47484996D01*
X191855004Y-47333794D01*
X191682009Y-47208106D01*
X191682005Y-47208103D01*
X191678132Y-47205730D01*
X191631254Y-47153920D01*
X191619829Y-47084991D01*
X191647483Y-47020827D01*
X191678132Y-46994270D01*
X191682005Y-46991896D01*
X191682004Y-46991896D01*
X191682009Y-46991894D01*
X191855004Y-46866206D01*
X192006206Y-46715004D01*
X192131894Y-46542009D01*
X192228972Y-46351483D01*
X192240170Y-46317019D01*
X200691500Y-46317019D01*
X200691500Y-46522980D01*
X200723719Y-46726408D01*
X200787367Y-46922294D01*
X200824043Y-46994273D01*
X200878942Y-47102018D01*
X200880873Y-47105806D01*
X201001926Y-47272423D01*
X201001930Y-47272428D01*
X201147571Y-47418069D01*
X201147576Y-47418073D01*
X201292908Y-47523661D01*
X201314197Y-47539129D01*
X201398905Y-47582290D01*
X201497705Y-47632632D01*
X201497707Y-47632632D01*
X201497710Y-47632634D01*
X201575748Y-47657990D01*
X201693591Y-47696280D01*
X201776251Y-47709372D01*
X201897019Y-47728500D01*
X201897020Y-47728500D01*
X202102980Y-47728500D01*
X202102981Y-47728500D01*
X202306408Y-47696280D01*
X202502290Y-47632634D01*
X202685803Y-47539129D01*
X202852430Y-47418068D01*
X202998068Y-47272430D01*
X203119129Y-47105803D01*
X203184748Y-46977019D01*
X229191500Y-46977019D01*
X229191500Y-47182980D01*
X229223719Y-47386408D01*
X229287367Y-47582294D01*
X229345447Y-47696280D01*
X229371805Y-47748011D01*
X229380873Y-47765806D01*
X229501926Y-47932423D01*
X229501930Y-47932428D01*
X229647571Y-48078069D01*
X229647576Y-48078073D01*
X229792908Y-48183661D01*
X229814197Y-48199129D01*
X229930136Y-48258203D01*
X229997705Y-48292632D01*
X229997707Y-48292632D01*
X229997710Y-48292634D01*
X230093915Y-48323893D01*
X230193591Y-48356280D01*
X230263592Y-48367367D01*
X230397019Y-48388500D01*
X230397020Y-48388500D01*
X230602980Y-48388500D01*
X230602981Y-48388500D01*
X230806408Y-48356280D01*
X231002290Y-48292634D01*
X231185803Y-48199129D01*
X231352430Y-48078068D01*
X231498068Y-47932430D01*
X231619129Y-47765803D01*
X231712634Y-47582290D01*
X231776280Y-47386408D01*
X231808500Y-47182981D01*
X231808500Y-47055084D01*
X245012500Y-47055084D01*
X245012500Y-47268916D01*
X245013056Y-47272428D01*
X245045951Y-47480117D01*
X245112026Y-47683480D01*
X245112027Y-47683483D01*
X245204917Y-47865788D01*
X245209106Y-47874009D01*
X245334794Y-48047004D01*
X245485996Y-48198206D01*
X245658991Y-48323894D01*
X245752438Y-48371507D01*
X245849516Y-48420972D01*
X245849519Y-48420973D01*
X245951200Y-48454010D01*
X246052884Y-48487049D01*
X246264084Y-48520500D01*
X246264085Y-48520500D01*
X246477915Y-48520500D01*
X246477916Y-48520500D01*
X246689116Y-48487049D01*
X246892483Y-48420972D01*
X247083009Y-48323894D01*
X247256004Y-48198206D01*
X247407206Y-48047004D01*
X247532894Y-47874009D01*
X247532896Y-47874004D01*
X247535270Y-47870132D01*
X247587080Y-47823254D01*
X247656009Y-47811829D01*
X247720173Y-47839483D01*
X247746730Y-47870132D01*
X247749103Y-47874005D01*
X247749105Y-47874008D01*
X247749106Y-47874009D01*
X247874794Y-48047004D01*
X248025996Y-48198206D01*
X248198991Y-48323894D01*
X248292438Y-48371507D01*
X248389516Y-48420972D01*
X248389519Y-48420973D01*
X248491200Y-48454010D01*
X248592884Y-48487049D01*
X248804084Y-48520500D01*
X248804085Y-48520500D01*
X249017915Y-48520500D01*
X249017916Y-48520500D01*
X249229116Y-48487049D01*
X249432483Y-48420972D01*
X249623009Y-48323894D01*
X249796004Y-48198206D01*
X249947206Y-48047004D01*
X250072894Y-47874009D01*
X250075283Y-47869319D01*
X250123254Y-47818522D01*
X250191074Y-47801724D01*
X250257210Y-47824258D01*
X250293201Y-47865788D01*
X250293832Y-47865402D01*
X250296164Y-47869207D01*
X250296251Y-47869308D01*
X250296376Y-47869554D01*
X250421272Y-48041459D01*
X250421276Y-48041464D01*
X250571535Y-48191723D01*
X250571540Y-48191727D01*
X250743442Y-48316620D01*
X250932782Y-48413095D01*
X251134871Y-48478757D01*
X251201000Y-48489231D01*
X251201000Y-47595012D01*
X251258007Y-47627925D01*
X251385174Y-47662000D01*
X251516826Y-47662000D01*
X251643993Y-47627925D01*
X251701000Y-47595012D01*
X251701000Y-48489230D01*
X251767126Y-48478757D01*
X251767129Y-48478757D01*
X251969217Y-48413095D01*
X252158557Y-48316620D01*
X252330459Y-48191727D01*
X252330464Y-48191723D01*
X252480723Y-48041464D01*
X252480727Y-48041459D01*
X252605619Y-47869560D01*
X252605738Y-47869327D01*
X252605808Y-47869252D01*
X252608168Y-47865402D01*
X252608976Y-47865897D01*
X252653707Y-47818526D01*
X252721526Y-47801723D01*
X252787663Y-47824254D01*
X252826712Y-47869311D01*
X252829105Y-47874008D01*
X252838355Y-47886739D01*
X252954794Y-48047004D01*
X253105996Y-48198206D01*
X253278991Y-48323894D01*
X253372438Y-48371507D01*
X253469516Y-48420972D01*
X253469519Y-48420973D01*
X253571200Y-48454010D01*
X253672884Y-48487049D01*
X253884084Y-48520500D01*
X253884085Y-48520500D01*
X254097915Y-48520500D01*
X254097916Y-48520500D01*
X254309116Y-48487049D01*
X254512483Y-48420972D01*
X254703009Y-48323894D01*
X254876004Y-48198206D01*
X255027206Y-48047004D01*
X255152894Y-47874009D01*
X255155283Y-47869319D01*
X255203254Y-47818522D01*
X255271074Y-47801724D01*
X255337210Y-47824258D01*
X255373201Y-47865788D01*
X255373832Y-47865402D01*
X255376164Y-47869207D01*
X255376251Y-47869308D01*
X255376376Y-47869554D01*
X255501272Y-48041459D01*
X255501276Y-48041464D01*
X255651535Y-48191723D01*
X255651540Y-48191727D01*
X255823442Y-48316620D01*
X256012782Y-48413095D01*
X256214871Y-48478757D01*
X256281000Y-48489231D01*
X256281000Y-47595012D01*
X256338007Y-47627925D01*
X256465174Y-47662000D01*
X256596826Y-47662000D01*
X256723993Y-47627925D01*
X256781000Y-47595012D01*
X256781000Y-48489230D01*
X256847126Y-48478757D01*
X256847129Y-48478757D01*
X257049217Y-48413095D01*
X257238557Y-48316620D01*
X257410459Y-48191727D01*
X257410464Y-48191723D01*
X257560723Y-48041464D01*
X257560727Y-48041459D01*
X257685619Y-47869560D01*
X257685738Y-47869327D01*
X257685808Y-47869252D01*
X257688168Y-47865402D01*
X257688976Y-47865897D01*
X257733707Y-47818526D01*
X257801526Y-47801723D01*
X257867663Y-47824254D01*
X257906712Y-47869311D01*
X257909105Y-47874008D01*
X257918355Y-47886739D01*
X258034794Y-48047004D01*
X258185996Y-48198206D01*
X258358991Y-48323894D01*
X258452438Y-48371507D01*
X258549516Y-48420972D01*
X258549519Y-48420973D01*
X258651200Y-48454010D01*
X258752884Y-48487049D01*
X258964084Y-48520500D01*
X258964085Y-48520500D01*
X259177915Y-48520500D01*
X259177916Y-48520500D01*
X259389116Y-48487049D01*
X259592483Y-48420972D01*
X259783009Y-48323894D01*
X259956004Y-48198206D01*
X260107206Y-48047004D01*
X260232894Y-47874009D01*
X260235283Y-47869319D01*
X260283254Y-47818522D01*
X260351074Y-47801724D01*
X260417210Y-47824258D01*
X260453201Y-47865788D01*
X260453832Y-47865402D01*
X260456164Y-47869207D01*
X260456251Y-47869308D01*
X260456376Y-47869554D01*
X260581272Y-48041459D01*
X260581276Y-48041464D01*
X260731535Y-48191723D01*
X260731540Y-48191727D01*
X260903442Y-48316620D01*
X261092782Y-48413095D01*
X261294871Y-48478757D01*
X261361000Y-48489231D01*
X261361000Y-47595012D01*
X261418007Y-47627925D01*
X261545174Y-47662000D01*
X261676826Y-47662000D01*
X261803993Y-47627925D01*
X261861000Y-47595012D01*
X261861000Y-48489230D01*
X261927126Y-48478757D01*
X261927129Y-48478757D01*
X262129217Y-48413095D01*
X262318557Y-48316620D01*
X262490458Y-48191728D01*
X262597914Y-48084272D01*
X262659237Y-48050787D01*
X262728929Y-48055771D01*
X262784863Y-48097642D01*
X262801777Y-48128619D01*
X262850110Y-48258203D01*
X262860064Y-48271500D01*
X262937739Y-48375261D01*
X263054796Y-48462889D01*
X263191799Y-48513989D01*
X263219050Y-48516918D01*
X263252345Y-48520499D01*
X263252362Y-48520500D01*
X265049638Y-48520500D01*
X265049654Y-48520499D01*
X265076692Y-48517591D01*
X265110201Y-48513989D01*
X265247204Y-48462889D01*
X265364261Y-48375261D01*
X265451889Y-48258204D01*
X265502989Y-48121201D01*
X265507626Y-48078068D01*
X265509499Y-48060654D01*
X265509500Y-48060637D01*
X265509500Y-46263362D01*
X265509499Y-46263345D01*
X265505652Y-46227570D01*
X265502989Y-46202799D01*
X265500222Y-46195381D01*
X265476685Y-46132276D01*
X265451889Y-46065796D01*
X265364261Y-45948739D01*
X265247204Y-45861111D01*
X265110203Y-45810011D01*
X265049654Y-45803500D01*
X265049638Y-45803500D01*
X263252362Y-45803500D01*
X263252345Y-45803500D01*
X263191797Y-45810011D01*
X263191795Y-45810011D01*
X263054795Y-45861111D01*
X262937739Y-45948739D01*
X262850111Y-46065795D01*
X262801777Y-46195381D01*
X262759905Y-46251314D01*
X262694441Y-46275730D01*
X262626168Y-46260878D01*
X262597915Y-46239727D01*
X262490464Y-46132276D01*
X262490459Y-46132272D01*
X262318557Y-46007379D01*
X262129215Y-45910903D01*
X261927124Y-45845241D01*
X261861000Y-45834768D01*
X261861000Y-46728988D01*
X261803993Y-46696075D01*
X261676826Y-46662000D01*
X261545174Y-46662000D01*
X261418007Y-46696075D01*
X261361000Y-46728988D01*
X261361000Y-45834768D01*
X261360999Y-45834768D01*
X261294875Y-45845241D01*
X261092784Y-45910903D01*
X260903442Y-46007379D01*
X260731540Y-46132272D01*
X260731535Y-46132276D01*
X260581276Y-46282535D01*
X260581272Y-46282540D01*
X260456376Y-46454446D01*
X260456374Y-46454448D01*
X260456246Y-46454701D01*
X260456172Y-46454779D01*
X260453832Y-46458598D01*
X260453029Y-46458106D01*
X260408264Y-46505489D01*
X260340441Y-46522274D01*
X260274309Y-46499727D01*
X260235285Y-46454683D01*
X260232895Y-46449992D01*
X260161324Y-46351483D01*
X260107206Y-46276996D01*
X259956004Y-46125794D01*
X259783009Y-46000106D01*
X259592483Y-45903027D01*
X259592480Y-45903026D01*
X259389117Y-45836951D01*
X259283516Y-45820225D01*
X259177916Y-45803500D01*
X258964084Y-45803500D01*
X258893684Y-45814650D01*
X258752882Y-45836951D01*
X258549519Y-45903026D01*
X258549516Y-45903027D01*
X258358990Y-46000106D01*
X258185993Y-46125796D01*
X258034796Y-46276993D01*
X257909103Y-46449994D01*
X257906709Y-46454693D01*
X257858731Y-46505485D01*
X257790908Y-46522275D01*
X257724775Y-46499732D01*
X257688800Y-46458210D01*
X257688168Y-46458598D01*
X257685829Y-46454781D01*
X257685743Y-46454682D01*
X257685620Y-46454441D01*
X257560727Y-46282540D01*
X257560723Y-46282535D01*
X257410464Y-46132276D01*
X257410459Y-46132272D01*
X257238557Y-46007379D01*
X257049215Y-45910903D01*
X256847124Y-45845241D01*
X256781000Y-45834768D01*
X256781000Y-46728988D01*
X256723993Y-46696075D01*
X256596826Y-46662000D01*
X256465174Y-46662000D01*
X256338007Y-46696075D01*
X256281000Y-46728988D01*
X256281000Y-45834768D01*
X256280999Y-45834768D01*
X256214875Y-45845241D01*
X256012784Y-45910903D01*
X255823442Y-46007379D01*
X255651540Y-46132272D01*
X255651535Y-46132276D01*
X255501276Y-46282535D01*
X255501272Y-46282540D01*
X255376376Y-46454446D01*
X255376374Y-46454448D01*
X255376246Y-46454701D01*
X255376172Y-46454779D01*
X255373832Y-46458598D01*
X255373029Y-46458106D01*
X255328264Y-46505489D01*
X255260441Y-46522274D01*
X255194309Y-46499727D01*
X255155285Y-46454683D01*
X255152895Y-46449992D01*
X255081324Y-46351483D01*
X255027206Y-46276996D01*
X254876004Y-46125794D01*
X254703009Y-46000106D01*
X254512483Y-45903027D01*
X254512480Y-45903026D01*
X254309117Y-45836951D01*
X254203516Y-45820225D01*
X254097916Y-45803500D01*
X253884084Y-45803500D01*
X253813684Y-45814650D01*
X253672882Y-45836951D01*
X253469519Y-45903026D01*
X253469516Y-45903027D01*
X253278990Y-46000106D01*
X253105993Y-46125796D01*
X252954796Y-46276993D01*
X252829103Y-46449994D01*
X252826709Y-46454693D01*
X252778731Y-46505485D01*
X252710908Y-46522275D01*
X252644775Y-46499732D01*
X252608800Y-46458210D01*
X252608168Y-46458598D01*
X252605829Y-46454781D01*
X252605743Y-46454682D01*
X252605620Y-46454441D01*
X252480727Y-46282540D01*
X252480723Y-46282535D01*
X252330464Y-46132276D01*
X252330459Y-46132272D01*
X252158557Y-46007379D01*
X251969215Y-45910903D01*
X251767124Y-45845241D01*
X251701000Y-45834768D01*
X251701000Y-46728988D01*
X251643993Y-46696075D01*
X251516826Y-46662000D01*
X251385174Y-46662000D01*
X251258007Y-46696075D01*
X251201000Y-46728988D01*
X251201000Y-45834768D01*
X251200999Y-45834768D01*
X251134875Y-45845241D01*
X250932784Y-45910903D01*
X250743442Y-46007379D01*
X250571540Y-46132272D01*
X250571535Y-46132276D01*
X250421276Y-46282535D01*
X250421272Y-46282540D01*
X250296376Y-46454446D01*
X250296374Y-46454448D01*
X250296246Y-46454701D01*
X250296172Y-46454779D01*
X250293832Y-46458598D01*
X250293029Y-46458106D01*
X250248264Y-46505489D01*
X250180441Y-46522274D01*
X250114309Y-46499727D01*
X250075285Y-46454683D01*
X250072895Y-46449992D01*
X250001324Y-46351483D01*
X249947206Y-46276996D01*
X249796004Y-46125794D01*
X249623009Y-46000106D01*
X249432483Y-45903027D01*
X249432480Y-45903026D01*
X249229117Y-45836951D01*
X249123516Y-45820225D01*
X249017916Y-45803500D01*
X248804084Y-45803500D01*
X248733684Y-45814650D01*
X248592882Y-45836951D01*
X248389519Y-45903026D01*
X248389516Y-45903027D01*
X248198990Y-46000106D01*
X248025993Y-46125796D01*
X247874796Y-46276993D01*
X247749105Y-46449991D01*
X247746727Y-46453873D01*
X247694914Y-46500748D01*
X247625984Y-46512169D01*
X247561822Y-46484512D01*
X247535273Y-46453873D01*
X247532894Y-46449991D01*
X247492354Y-46394193D01*
X247407206Y-46276996D01*
X247256004Y-46125794D01*
X247083009Y-46000106D01*
X246892483Y-45903027D01*
X246892480Y-45903026D01*
X246689117Y-45836951D01*
X246583516Y-45820225D01*
X246477916Y-45803500D01*
X246264084Y-45803500D01*
X246193684Y-45814650D01*
X246052882Y-45836951D01*
X245849519Y-45903026D01*
X245849516Y-45903027D01*
X245658990Y-46000106D01*
X245485993Y-46125796D01*
X245334796Y-46276993D01*
X245209106Y-46449990D01*
X245112027Y-46640516D01*
X245112026Y-46640519D01*
X245045951Y-46843882D01*
X245017926Y-47020827D01*
X245012500Y-47055084D01*
X231808500Y-47055084D01*
X231808500Y-46977019D01*
X231776280Y-46773592D01*
X231772481Y-46761901D01*
X231744069Y-46674458D01*
X231712634Y-46577710D01*
X231712632Y-46577707D01*
X231712632Y-46577705D01*
X231649948Y-46454683D01*
X231619129Y-46394197D01*
X231588096Y-46351483D01*
X231498073Y-46227576D01*
X231498069Y-46227571D01*
X231352428Y-46081930D01*
X231352423Y-46081926D01*
X231185806Y-45960873D01*
X231185805Y-45960872D01*
X231185803Y-45960871D01*
X231128496Y-45931671D01*
X231002294Y-45867367D01*
X230806408Y-45803719D01*
X230630794Y-45775905D01*
X230602981Y-45771500D01*
X230397019Y-45771500D01*
X230372550Y-45775375D01*
X230193591Y-45803719D01*
X229997705Y-45867367D01*
X229814193Y-45960873D01*
X229647576Y-46081926D01*
X229647571Y-46081930D01*
X229501930Y-46227571D01*
X229501926Y-46227576D01*
X229380873Y-46394193D01*
X229287367Y-46577705D01*
X229223719Y-46773591D01*
X229191500Y-46977019D01*
X203184748Y-46977019D01*
X203212634Y-46922290D01*
X203276280Y-46726408D01*
X203308500Y-46522981D01*
X203308500Y-46317019D01*
X203301659Y-46273829D01*
X203276280Y-46113591D01*
X203239406Y-46000106D01*
X203212634Y-45917710D01*
X203212632Y-45917707D01*
X203212632Y-45917705D01*
X203154552Y-45803719D01*
X203119129Y-45734197D01*
X203103661Y-45712908D01*
X202998073Y-45567576D01*
X202998069Y-45567571D01*
X202852428Y-45421930D01*
X202852423Y-45421926D01*
X202685806Y-45300873D01*
X202685805Y-45300872D01*
X202685803Y-45300871D01*
X202628496Y-45271671D01*
X202502294Y-45207367D01*
X202306408Y-45143719D01*
X202130794Y-45115905D01*
X202102981Y-45111500D01*
X201897019Y-45111500D01*
X201872550Y-45115375D01*
X201693591Y-45143719D01*
X201497705Y-45207367D01*
X201314193Y-45300873D01*
X201147576Y-45421926D01*
X201147571Y-45421930D01*
X201001930Y-45567571D01*
X201001926Y-45567576D01*
X200880873Y-45734193D01*
X200787367Y-45917705D01*
X200723719Y-46113591D01*
X200691500Y-46317019D01*
X192240170Y-46317019D01*
X192251373Y-46282540D01*
X192254203Y-46273830D01*
X192254203Y-46273829D01*
X192269233Y-46227570D01*
X192295049Y-46148116D01*
X192328500Y-45936916D01*
X192328500Y-45723084D01*
X192295049Y-45511884D01*
X192228972Y-45308517D01*
X192228972Y-45308516D01*
X192177433Y-45207366D01*
X192131894Y-45117991D01*
X192006206Y-44944996D01*
X191855004Y-44793794D01*
X191682009Y-44668106D01*
X191682005Y-44668103D01*
X191678132Y-44665730D01*
X191631254Y-44613920D01*
X191619829Y-44544991D01*
X191647483Y-44480827D01*
X191678132Y-44454270D01*
X191682005Y-44451896D01*
X191682004Y-44451896D01*
X191682009Y-44451894D01*
X191855004Y-44326206D01*
X192006206Y-44175004D01*
X192131894Y-44002009D01*
X192228972Y-43811483D01*
X192295049Y-43608116D01*
X192328500Y-43396916D01*
X192328500Y-43183084D01*
X192295049Y-42971884D01*
X192262010Y-42870200D01*
X192228973Y-42768519D01*
X192228972Y-42768516D01*
X192144627Y-42602981D01*
X192131894Y-42577991D01*
X192006206Y-42404996D01*
X191998892Y-42397682D01*
X197700000Y-42397682D01*
X197700000Y-42602317D01*
X197732009Y-42804417D01*
X197795244Y-42999031D01*
X197888141Y-43181350D01*
X197888147Y-43181359D01*
X197920523Y-43225921D01*
X197920524Y-43225922D01*
X198600000Y-42546446D01*
X198600000Y-42552661D01*
X198627259Y-42654394D01*
X198679920Y-42745606D01*
X198754394Y-42820080D01*
X198845606Y-42872741D01*
X198947339Y-42900000D01*
X198953553Y-42900000D01*
X198274076Y-43579474D01*
X198318650Y-43611859D01*
X198500968Y-43704755D01*
X198695582Y-43767990D01*
X198897683Y-43800000D01*
X199102317Y-43800000D01*
X199304417Y-43767990D01*
X199499031Y-43704755D01*
X199681349Y-43611859D01*
X199725921Y-43579474D01*
X199046447Y-42900000D01*
X199052661Y-42900000D01*
X199154394Y-42872741D01*
X199245606Y-42820080D01*
X199320080Y-42745606D01*
X199372741Y-42654394D01*
X199400000Y-42552661D01*
X199400000Y-42546447D01*
X200079474Y-43225921D01*
X200111859Y-43181349D01*
X200204755Y-42999031D01*
X200267990Y-42804417D01*
X200300000Y-42602317D01*
X200300000Y-42397691D01*
X200299998Y-42397674D01*
X200299894Y-42397019D01*
X202691500Y-42397019D01*
X202691500Y-42602980D01*
X202723719Y-42806408D01*
X202787367Y-43002294D01*
X202851671Y-43128496D01*
X202878602Y-43181350D01*
X202880873Y-43185806D01*
X203001926Y-43352423D01*
X203001930Y-43352428D01*
X203147571Y-43498069D01*
X203147576Y-43498073D01*
X203167870Y-43512817D01*
X203314197Y-43619129D01*
X203431128Y-43678709D01*
X203497705Y-43712632D01*
X203497707Y-43712632D01*
X203497710Y-43712634D01*
X203602707Y-43746749D01*
X203693591Y-43776280D01*
X203795305Y-43792390D01*
X203897019Y-43808500D01*
X203897020Y-43808500D01*
X204102980Y-43808500D01*
X204102981Y-43808500D01*
X204306408Y-43776280D01*
X204502290Y-43712634D01*
X204685803Y-43619129D01*
X204852430Y-43498068D01*
X204998068Y-43352430D01*
X205119129Y-43185803D01*
X205212634Y-43002290D01*
X205276280Y-42806408D01*
X205308500Y-42602981D01*
X205308500Y-42397019D01*
X205296428Y-42320799D01*
X205276280Y-42193591D01*
X205224755Y-42035016D01*
X205212634Y-41997710D01*
X205212632Y-41997707D01*
X205212632Y-41997705D01*
X205173803Y-41921500D01*
X205119129Y-41814197D01*
X205076242Y-41755168D01*
X204998073Y-41647576D01*
X204998069Y-41647571D01*
X204852428Y-41501930D01*
X204852423Y-41501926D01*
X204685806Y-41380873D01*
X204685805Y-41380872D01*
X204685803Y-41380871D01*
X204628496Y-41351671D01*
X204502294Y-41287367D01*
X204306408Y-41223719D01*
X204130794Y-41195905D01*
X204102981Y-41191500D01*
X203897019Y-41191500D01*
X203872550Y-41195375D01*
X203693591Y-41223719D01*
X203497705Y-41287367D01*
X203314193Y-41380873D01*
X203147576Y-41501926D01*
X203147571Y-41501930D01*
X203001930Y-41647571D01*
X203001926Y-41647576D01*
X202880873Y-41814193D01*
X202787367Y-41997705D01*
X202723719Y-42193591D01*
X202691500Y-42397019D01*
X200299894Y-42397019D01*
X200267990Y-42195582D01*
X200204755Y-42000968D01*
X200111859Y-41818650D01*
X200079474Y-41774077D01*
X200079474Y-41774076D01*
X199400000Y-42453551D01*
X199400000Y-42447339D01*
X199372741Y-42345606D01*
X199320080Y-42254394D01*
X199245606Y-42179920D01*
X199154394Y-42127259D01*
X199052661Y-42100000D01*
X199046446Y-42100000D01*
X199725922Y-41420524D01*
X199725921Y-41420523D01*
X199681359Y-41388147D01*
X199681350Y-41388141D01*
X199499031Y-41295244D01*
X199304417Y-41232009D01*
X199102317Y-41200000D01*
X198897683Y-41200000D01*
X198695582Y-41232009D01*
X198500968Y-41295244D01*
X198318644Y-41388143D01*
X198274077Y-41420523D01*
X198274077Y-41420524D01*
X198953554Y-42100000D01*
X198947339Y-42100000D01*
X198845606Y-42127259D01*
X198754394Y-42179920D01*
X198679920Y-42254394D01*
X198627259Y-42345606D01*
X198600000Y-42447339D01*
X198600000Y-42453553D01*
X197920524Y-41774077D01*
X197920523Y-41774077D01*
X197888143Y-41818644D01*
X197795244Y-42000968D01*
X197732009Y-42195582D01*
X197700000Y-42397682D01*
X191998892Y-42397682D01*
X191855004Y-42253794D01*
X191682009Y-42128106D01*
X191682005Y-42128103D01*
X191678132Y-42125730D01*
X191631254Y-42073920D01*
X191619829Y-42004991D01*
X191647483Y-41940827D01*
X191678132Y-41914270D01*
X191682005Y-41911896D01*
X191682004Y-41911896D01*
X191682009Y-41911894D01*
X191855004Y-41786206D01*
X192006206Y-41635004D01*
X192131894Y-41462009D01*
X192131897Y-41462004D01*
X192157634Y-41411493D01*
X192157636Y-41411488D01*
X192228972Y-41271483D01*
X192228973Y-41271480D01*
X192252198Y-41200000D01*
X192295049Y-41068116D01*
X192328500Y-40856916D01*
X192328500Y-40643084D01*
X192295049Y-40431884D01*
X192262010Y-40330200D01*
X192228973Y-40228519D01*
X192228972Y-40228516D01*
X192179507Y-40131438D01*
X192131894Y-40037991D01*
X192006206Y-39864996D01*
X191855004Y-39713794D01*
X191682009Y-39588106D01*
X191682005Y-39588103D01*
X191678132Y-39585730D01*
X191631254Y-39533920D01*
X191619829Y-39464991D01*
X191647483Y-39400827D01*
X191678132Y-39374270D01*
X191682005Y-39371896D01*
X191682004Y-39371896D01*
X191682009Y-39371894D01*
X191757538Y-39317019D01*
X205691500Y-39317019D01*
X205691500Y-39522980D01*
X205723719Y-39726408D01*
X205787367Y-39922294D01*
X205880873Y-40105806D01*
X206001926Y-40272423D01*
X206001930Y-40272428D01*
X206147571Y-40418069D01*
X206147576Y-40418073D01*
X206246576Y-40490000D01*
X206314197Y-40539129D01*
X206431128Y-40598709D01*
X206497705Y-40632632D01*
X206497707Y-40632632D01*
X206497710Y-40632634D01*
X206602707Y-40666749D01*
X206693591Y-40696280D01*
X206795305Y-40712390D01*
X206897019Y-40728500D01*
X206897020Y-40728500D01*
X207102980Y-40728500D01*
X207102981Y-40728500D01*
X207306408Y-40696280D01*
X207502290Y-40632634D01*
X207685803Y-40539129D01*
X207852430Y-40418068D01*
X207998068Y-40272430D01*
X208119129Y-40105803D01*
X208212634Y-39922290D01*
X208276280Y-39726408D01*
X208308500Y-39522981D01*
X208308500Y-39317019D01*
X208276280Y-39113592D01*
X208270240Y-39095004D01*
X208246749Y-39022707D01*
X208212634Y-38917710D01*
X208212632Y-38917707D01*
X208212632Y-38917705D01*
X208178709Y-38851128D01*
X208119129Y-38734197D01*
X208103661Y-38712908D01*
X207998073Y-38567576D01*
X207998069Y-38567571D01*
X207852428Y-38421930D01*
X207852423Y-38421926D01*
X207685806Y-38300873D01*
X207685805Y-38300872D01*
X207685803Y-38300871D01*
X207628496Y-38271671D01*
X207502294Y-38207367D01*
X207306408Y-38143719D01*
X207130794Y-38115905D01*
X207102981Y-38111500D01*
X206897019Y-38111500D01*
X206872550Y-38115375D01*
X206693591Y-38143719D01*
X206497705Y-38207367D01*
X206314193Y-38300873D01*
X206147576Y-38421926D01*
X206147571Y-38421930D01*
X206001930Y-38567571D01*
X206001926Y-38567576D01*
X205880873Y-38734193D01*
X205787367Y-38917705D01*
X205723719Y-39113591D01*
X205691500Y-39317019D01*
X191757538Y-39317019D01*
X191855004Y-39246206D01*
X192006206Y-39095004D01*
X192131894Y-38922009D01*
X192228972Y-38731483D01*
X192295049Y-38528116D01*
X192328500Y-38316916D01*
X192328500Y-38103084D01*
X192295049Y-37891884D01*
X192228972Y-37688517D01*
X192228972Y-37688516D01*
X192131893Y-37497990D01*
X192006206Y-37324996D01*
X191855004Y-37173794D01*
X191682009Y-37048106D01*
X191682010Y-37048106D01*
X191682008Y-37048105D01*
X191677311Y-37045712D01*
X191626517Y-36997735D01*
X191609724Y-36929914D01*
X191632264Y-36863780D01*
X191673790Y-36827801D01*
X191673402Y-36827168D01*
X191677229Y-36824822D01*
X191677327Y-36824738D01*
X191677560Y-36824619D01*
X191849459Y-36699727D01*
X191849464Y-36699723D01*
X191999723Y-36549464D01*
X191999727Y-36549459D01*
X192124620Y-36377557D01*
X192221095Y-36188217D01*
X192286757Y-35986129D01*
X192286757Y-35986126D01*
X192297231Y-35920000D01*
X191403012Y-35920000D01*
X191435925Y-35862993D01*
X191470000Y-35735826D01*
X191470000Y-35604174D01*
X191435925Y-35477007D01*
X191403012Y-35420000D01*
X192297231Y-35420000D01*
X192286757Y-35353873D01*
X192286757Y-35353870D01*
X192221095Y-35151782D01*
X192124620Y-34962442D01*
X191999727Y-34790540D01*
X191999723Y-34790535D01*
X191892272Y-34683084D01*
X191858787Y-34621761D01*
X191863771Y-34552069D01*
X191905643Y-34496136D01*
X191936612Y-34479224D01*
X192066204Y-34430889D01*
X192183261Y-34343261D01*
X192270889Y-34226204D01*
X192321989Y-34089201D01*
X192325591Y-34055692D01*
X192328499Y-34028654D01*
X192328500Y-34028637D01*
X192328500Y-32231362D01*
X192328499Y-32231345D01*
X192325157Y-32200270D01*
X192321989Y-32170799D01*
X192270889Y-32033796D01*
X192183261Y-31916739D01*
X192066204Y-31829111D01*
X191929203Y-31778011D01*
X191868654Y-31771500D01*
X191868638Y-31771500D01*
X190071362Y-31771500D01*
X190071345Y-31771500D01*
X190010797Y-31778011D01*
X190010795Y-31778011D01*
X189873795Y-31829111D01*
X189756739Y-31916739D01*
X189669111Y-32033795D01*
X189618011Y-32170795D01*
X189618011Y-32170797D01*
X189611500Y-32231345D01*
X186500500Y-32231345D01*
X186500500Y-27502214D01*
X186500579Y-27497788D01*
X186506643Y-27327990D01*
X186518176Y-27005073D01*
X186518804Y-26996284D01*
X186552603Y-26681902D01*
X195819500Y-26681902D01*
X195819500Y-26918097D01*
X195856446Y-27151368D01*
X195929433Y-27375996D01*
X196002052Y-27518517D01*
X196036657Y-27586433D01*
X196175483Y-27777510D01*
X196342490Y-27944517D01*
X196533567Y-28083343D01*
X196632991Y-28134002D01*
X196744003Y-28190566D01*
X196744005Y-28190566D01*
X196744008Y-28190568D01*
X196864412Y-28229689D01*
X196968631Y-28263553D01*
X197201903Y-28300500D01*
X197201908Y-28300500D01*
X197438097Y-28300500D01*
X197671368Y-28263553D01*
X197895992Y-28190568D01*
X198106433Y-28083343D01*
X198297510Y-27944517D01*
X198464517Y-27777510D01*
X198603343Y-27586433D01*
X198710568Y-27375992D01*
X198783553Y-27151368D01*
X198806926Y-27003796D01*
X198820500Y-26918097D01*
X198820500Y-26681902D01*
X198783553Y-26448631D01*
X198710566Y-26224003D01*
X198607376Y-26021483D01*
X198603343Y-26013567D01*
X198464517Y-25822490D01*
X198297510Y-25655483D01*
X198106433Y-25516657D01*
X197895996Y-25409433D01*
X197671368Y-25336446D01*
X197438097Y-25299500D01*
X197438092Y-25299500D01*
X197201908Y-25299500D01*
X197201903Y-25299500D01*
X196968631Y-25336446D01*
X196744003Y-25409433D01*
X196533566Y-25516657D01*
X196424550Y-25595862D01*
X196342490Y-25655483D01*
X196342488Y-25655485D01*
X196342487Y-25655485D01*
X196175485Y-25822487D01*
X196175485Y-25822488D01*
X196175483Y-25822490D01*
X196115862Y-25904550D01*
X196036657Y-26013566D01*
X195929433Y-26224003D01*
X195856446Y-26448631D01*
X195819500Y-26681902D01*
X186552603Y-26681902D01*
X186571274Y-26508240D01*
X186572527Y-26499532D01*
X186659680Y-26016473D01*
X186661551Y-26007877D01*
X186782938Y-25532286D01*
X186785423Y-25523822D01*
X186940424Y-25058123D01*
X186943513Y-25049840D01*
X186973056Y-24978519D01*
X187131337Y-24596391D01*
X187135012Y-24588346D01*
X187261462Y-24335730D01*
X187354714Y-24149436D01*
X187358924Y-24141724D01*
X187609409Y-23719554D01*
X187614155Y-23712170D01*
X187894087Y-23308992D01*
X187899387Y-23301912D01*
X188207369Y-22919729D01*
X188213130Y-22913080D01*
X188268989Y-22853084D01*
X209767500Y-22853084D01*
X209767500Y-23066915D01*
X209800951Y-23278117D01*
X209867026Y-23481480D01*
X209867027Y-23481483D01*
X209964106Y-23672009D01*
X210089794Y-23845004D01*
X210240996Y-23996206D01*
X210413991Y-24121894D01*
X210417873Y-24124273D01*
X210464748Y-24176086D01*
X210476169Y-24245016D01*
X210448512Y-24309178D01*
X210417873Y-24335727D01*
X210413991Y-24338105D01*
X210240993Y-24463796D01*
X210089796Y-24614993D01*
X209964106Y-24787990D01*
X209867027Y-24978516D01*
X209867026Y-24978519D01*
X209800951Y-25181882D01*
X209767500Y-25393084D01*
X209767500Y-25606915D01*
X209800951Y-25818117D01*
X209867026Y-26021480D01*
X209867027Y-26021483D01*
X209964106Y-26212009D01*
X210089794Y-26385004D01*
X210240996Y-26536206D01*
X210413991Y-26661894D01*
X210417873Y-26664273D01*
X210464748Y-26716086D01*
X210476169Y-26785016D01*
X210448512Y-26849178D01*
X210417873Y-26875727D01*
X210413991Y-26878105D01*
X210240993Y-27003796D01*
X210089796Y-27154993D01*
X209964106Y-27327990D01*
X209867027Y-27518516D01*
X209867026Y-27518519D01*
X209800951Y-27721882D01*
X209767500Y-27933084D01*
X209767500Y-28146915D01*
X209800951Y-28358117D01*
X209867026Y-28561480D01*
X209867027Y-28561483D01*
X209964106Y-28752009D01*
X210089794Y-28925004D01*
X210240996Y-29076206D01*
X210413991Y-29201894D01*
X210417873Y-29204273D01*
X210464748Y-29256086D01*
X210476169Y-29325016D01*
X210448512Y-29389178D01*
X210417873Y-29415727D01*
X210413991Y-29418105D01*
X210240993Y-29543796D01*
X210089796Y-29694993D01*
X209964106Y-29867990D01*
X209867027Y-30058516D01*
X209867026Y-30058519D01*
X209800951Y-30261882D01*
X209767500Y-30473084D01*
X209767500Y-30686915D01*
X209800951Y-30898117D01*
X209867026Y-31101480D01*
X209867027Y-31101483D01*
X209964106Y-31292009D01*
X210089794Y-31465004D01*
X210240996Y-31616206D01*
X210413991Y-31741894D01*
X210417873Y-31744273D01*
X210464748Y-31796086D01*
X210476169Y-31865016D01*
X210448512Y-31929178D01*
X210417873Y-31955727D01*
X210413991Y-31958105D01*
X210240993Y-32083796D01*
X210089796Y-32234993D01*
X209964106Y-32407990D01*
X209867027Y-32598516D01*
X209867026Y-32598519D01*
X209800951Y-32801882D01*
X209767500Y-33013084D01*
X209767500Y-33226915D01*
X209800951Y-33438117D01*
X209867026Y-33641480D01*
X209867027Y-33641483D01*
X209964106Y-33832009D01*
X210089794Y-34005004D01*
X210240996Y-34156206D01*
X210413991Y-34281894D01*
X210417873Y-34284273D01*
X210464748Y-34336086D01*
X210476169Y-34405016D01*
X210448512Y-34469178D01*
X210417873Y-34495727D01*
X210413991Y-34498105D01*
X210240993Y-34623796D01*
X210089796Y-34774993D01*
X209964106Y-34947990D01*
X209867027Y-35138516D01*
X209867026Y-35138519D01*
X209800951Y-35341882D01*
X209767500Y-35553084D01*
X209767500Y-35766915D01*
X209800951Y-35978117D01*
X209867026Y-36181480D01*
X209867027Y-36181483D01*
X209964106Y-36372009D01*
X210089794Y-36545004D01*
X210240996Y-36696206D01*
X210407281Y-36817019D01*
X210413991Y-36821894D01*
X210417873Y-36824273D01*
X210464748Y-36876086D01*
X210476169Y-36945016D01*
X210448512Y-37009178D01*
X210417873Y-37035727D01*
X210413991Y-37038105D01*
X210240993Y-37163796D01*
X210089796Y-37314993D01*
X209964106Y-37487990D01*
X209867027Y-37678516D01*
X209867026Y-37678519D01*
X209800951Y-37881882D01*
X209767500Y-38093084D01*
X209767500Y-38306915D01*
X209800951Y-38518117D01*
X209867026Y-38721480D01*
X209867027Y-38721483D01*
X209964106Y-38912009D01*
X210089794Y-39085004D01*
X210240996Y-39236206D01*
X210352226Y-39317019D01*
X210413991Y-39361894D01*
X210417873Y-39364273D01*
X210464748Y-39416086D01*
X210476169Y-39485016D01*
X210448512Y-39549178D01*
X210417873Y-39575727D01*
X210413991Y-39578105D01*
X210240993Y-39703796D01*
X210089796Y-39854993D01*
X209964106Y-40027990D01*
X209867027Y-40218516D01*
X209867026Y-40218519D01*
X209800951Y-40421882D01*
X209767500Y-40633084D01*
X209767500Y-40846915D01*
X209800951Y-41058117D01*
X209867026Y-41261480D01*
X209867027Y-41261483D01*
X209961838Y-41447557D01*
X209964106Y-41452009D01*
X210089794Y-41625004D01*
X210240996Y-41776206D01*
X210306010Y-41823441D01*
X210413991Y-41901894D01*
X210417873Y-41904273D01*
X210464748Y-41956086D01*
X210476169Y-42025016D01*
X210448512Y-42089178D01*
X210417873Y-42115727D01*
X210413991Y-42118105D01*
X210240993Y-42243796D01*
X210089796Y-42394993D01*
X209964106Y-42567990D01*
X209867027Y-42758516D01*
X209867026Y-42758519D01*
X209800951Y-42961882D01*
X209767500Y-43173084D01*
X209767500Y-43386915D01*
X209800951Y-43598117D01*
X209867026Y-43801480D01*
X209867027Y-43801483D01*
X209964106Y-43992009D01*
X210089794Y-44165004D01*
X210240996Y-44316206D01*
X210413991Y-44441894D01*
X210490401Y-44480827D01*
X210604516Y-44538972D01*
X210604519Y-44538973D01*
X210635294Y-44548972D01*
X210807884Y-44605049D01*
X211019084Y-44638500D01*
X211019085Y-44638500D01*
X211232915Y-44638500D01*
X211232916Y-44638500D01*
X211444116Y-44605049D01*
X211647483Y-44538972D01*
X211838009Y-44441894D01*
X212011004Y-44316206D01*
X212162206Y-44165004D01*
X212287894Y-43992009D01*
X212384972Y-43801483D01*
X212451049Y-43598116D01*
X212484500Y-43386916D01*
X212484500Y-43173084D01*
X212451049Y-42961884D01*
X212384972Y-42758517D01*
X212384972Y-42758516D01*
X212351354Y-42692539D01*
X212287894Y-42567991D01*
X212270663Y-42544275D01*
X212202844Y-42450929D01*
X212202842Y-42450927D01*
X212200235Y-42447339D01*
X212162206Y-42394996D01*
X212011004Y-42243794D01*
X211851773Y-42128106D01*
X211838005Y-42118103D01*
X211834132Y-42115730D01*
X211787254Y-42063920D01*
X211775829Y-41994991D01*
X211803483Y-41930827D01*
X211834132Y-41904270D01*
X211838005Y-41901896D01*
X211838004Y-41901896D01*
X211838009Y-41901894D01*
X212011004Y-41776206D01*
X212162206Y-41625004D01*
X212287894Y-41452009D01*
X212384972Y-41261483D01*
X212451049Y-41058116D01*
X212484500Y-40846916D01*
X212484500Y-40633084D01*
X212451049Y-40421884D01*
X212402489Y-40272430D01*
X212384973Y-40218519D01*
X212384972Y-40218516D01*
X212292989Y-40037991D01*
X212287894Y-40027991D01*
X212162206Y-39854996D01*
X212011004Y-39703794D01*
X211851773Y-39588106D01*
X211838005Y-39578103D01*
X211834132Y-39575730D01*
X211787254Y-39523920D01*
X211775829Y-39454991D01*
X211803483Y-39390827D01*
X211834132Y-39364270D01*
X211838005Y-39361896D01*
X211838004Y-39361896D01*
X211838009Y-39361894D01*
X212011004Y-39236206D01*
X212162206Y-39085004D01*
X212287894Y-38912009D01*
X212384972Y-38721483D01*
X212451049Y-38518116D01*
X212484500Y-38306916D01*
X212484500Y-38093084D01*
X212451049Y-37881884D01*
X212384972Y-37678517D01*
X212384972Y-37678516D01*
X212292989Y-37497991D01*
X212287894Y-37487991D01*
X212162206Y-37314996D01*
X212011004Y-37163794D01*
X211851773Y-37048106D01*
X211838005Y-37038103D01*
X211834132Y-37035730D01*
X211787254Y-36983920D01*
X211775829Y-36914991D01*
X211803483Y-36850827D01*
X211834132Y-36824270D01*
X211838005Y-36821896D01*
X211838004Y-36821896D01*
X211838009Y-36821894D01*
X212011004Y-36696206D01*
X212162206Y-36545004D01*
X212287894Y-36372009D01*
X212384972Y-36181483D01*
X212451049Y-35978116D01*
X212484500Y-35766916D01*
X212484500Y-35553084D01*
X212451049Y-35341884D01*
X212406273Y-35204075D01*
X212384973Y-35138519D01*
X212384972Y-35138516D01*
X212287893Y-34947990D01*
X212162206Y-34774996D01*
X212011004Y-34623794D01*
X211838009Y-34498106D01*
X211838005Y-34498103D01*
X211834132Y-34495730D01*
X211787254Y-34443920D01*
X211775829Y-34374991D01*
X211803483Y-34310827D01*
X211834132Y-34284270D01*
X211838005Y-34281896D01*
X211838004Y-34281896D01*
X211838009Y-34281894D01*
X212011004Y-34156206D01*
X212162206Y-34005004D01*
X212287894Y-33832009D01*
X212384972Y-33641483D01*
X212451049Y-33438116D01*
X212484500Y-33226916D01*
X212484500Y-33013084D01*
X212451049Y-32801884D01*
X212384972Y-32598517D01*
X212384972Y-32598516D01*
X212287893Y-32407990D01*
X212162206Y-32234996D01*
X212011004Y-32083794D01*
X211838009Y-31958106D01*
X211838005Y-31958103D01*
X211834132Y-31955730D01*
X211787254Y-31903920D01*
X211775829Y-31834991D01*
X211803483Y-31770827D01*
X211834132Y-31744270D01*
X211838005Y-31741896D01*
X211838004Y-31741896D01*
X211838009Y-31741894D01*
X212011004Y-31616206D01*
X212162206Y-31465004D01*
X212287894Y-31292009D01*
X212384972Y-31101483D01*
X212451049Y-30898116D01*
X212484500Y-30686916D01*
X212484500Y-30473084D01*
X212451049Y-30261884D01*
X212384972Y-30058517D01*
X212384972Y-30058516D01*
X212287893Y-29867990D01*
X212162206Y-29694996D01*
X212011004Y-29543794D01*
X211838009Y-29418106D01*
X211838005Y-29418103D01*
X211834132Y-29415730D01*
X211787254Y-29363920D01*
X211775829Y-29294991D01*
X211803483Y-29230827D01*
X211834132Y-29204270D01*
X211838005Y-29201896D01*
X211838004Y-29201896D01*
X211838009Y-29201894D01*
X212011004Y-29076206D01*
X212162206Y-28925004D01*
X212287894Y-28752009D01*
X212384972Y-28561483D01*
X212451049Y-28358116D01*
X212484500Y-28146916D01*
X212484500Y-27933084D01*
X212451049Y-27721884D01*
X212384972Y-27518517D01*
X212384972Y-27518516D01*
X212287893Y-27327990D01*
X212162206Y-27154996D01*
X212011004Y-27003794D01*
X211838009Y-26878106D01*
X211838005Y-26878103D01*
X211834132Y-26875730D01*
X211787254Y-26823920D01*
X211775829Y-26754991D01*
X211803483Y-26690827D01*
X211834132Y-26664270D01*
X211838005Y-26661896D01*
X211838004Y-26661896D01*
X211838009Y-26661894D01*
X212011004Y-26536206D01*
X212162206Y-26385004D01*
X212287894Y-26212009D01*
X212384972Y-26021483D01*
X212451049Y-25818116D01*
X212484500Y-25606916D01*
X212484500Y-25393084D01*
X212451049Y-25181884D01*
X212384972Y-24978517D01*
X212384972Y-24978516D01*
X212287893Y-24787990D01*
X212162206Y-24614996D01*
X212011004Y-24463794D01*
X211838009Y-24338106D01*
X211838005Y-24338103D01*
X211834132Y-24335730D01*
X211787254Y-24283920D01*
X211775829Y-24214991D01*
X211803483Y-24150827D01*
X211834132Y-24124270D01*
X211838005Y-24121896D01*
X211838004Y-24121896D01*
X211838009Y-24121894D01*
X212011004Y-23996206D01*
X212162206Y-23845004D01*
X212287894Y-23672009D01*
X212384972Y-23481483D01*
X212451049Y-23278116D01*
X212484500Y-23066916D01*
X212484500Y-22853084D01*
X225515500Y-22853084D01*
X225515500Y-23066915D01*
X225548951Y-23278117D01*
X225615026Y-23481480D01*
X225615027Y-23481483D01*
X225712106Y-23672009D01*
X225837794Y-23845004D01*
X225988996Y-23996206D01*
X226161991Y-24121894D01*
X226165873Y-24124273D01*
X226212748Y-24176086D01*
X226224169Y-24245016D01*
X226196512Y-24309178D01*
X226165873Y-24335727D01*
X226161991Y-24338105D01*
X225988993Y-24463796D01*
X225837796Y-24614993D01*
X225712106Y-24787990D01*
X225615027Y-24978516D01*
X225615026Y-24978519D01*
X225548951Y-25181882D01*
X225515500Y-25393084D01*
X225515500Y-25606915D01*
X225548951Y-25818117D01*
X225615026Y-26021480D01*
X225615027Y-26021483D01*
X225712106Y-26212009D01*
X225837794Y-26385004D01*
X225988996Y-26536206D01*
X226161991Y-26661894D01*
X226165873Y-26664273D01*
X226212748Y-26716086D01*
X226224169Y-26785016D01*
X226196512Y-26849178D01*
X226165873Y-26875727D01*
X226161991Y-26878105D01*
X225988993Y-27003796D01*
X225837796Y-27154993D01*
X225712106Y-27327990D01*
X225615027Y-27518516D01*
X225615026Y-27518519D01*
X225548951Y-27721882D01*
X225515500Y-27933084D01*
X225515500Y-28146915D01*
X225548951Y-28358117D01*
X225615026Y-28561480D01*
X225615027Y-28561483D01*
X225712106Y-28752009D01*
X225837794Y-28925004D01*
X225988996Y-29076206D01*
X226161991Y-29201894D01*
X226165873Y-29204273D01*
X226212748Y-29256086D01*
X226224169Y-29325016D01*
X226196512Y-29389178D01*
X226165873Y-29415727D01*
X226161991Y-29418105D01*
X225988993Y-29543796D01*
X225837796Y-29694993D01*
X225712106Y-29867990D01*
X225615027Y-30058516D01*
X225615026Y-30058519D01*
X225548951Y-30261882D01*
X225515500Y-30473084D01*
X225515500Y-30686915D01*
X225548951Y-30898117D01*
X225615026Y-31101480D01*
X225615027Y-31101483D01*
X225712106Y-31292009D01*
X225837794Y-31465004D01*
X225988996Y-31616206D01*
X226161991Y-31741894D01*
X226165873Y-31744273D01*
X226212748Y-31796086D01*
X226224169Y-31865016D01*
X226196512Y-31929178D01*
X226165873Y-31955727D01*
X226161991Y-31958105D01*
X225988993Y-32083796D01*
X225837796Y-32234993D01*
X225712106Y-32407990D01*
X225615027Y-32598516D01*
X225615026Y-32598519D01*
X225548951Y-32801882D01*
X225515500Y-33013084D01*
X225515500Y-33226915D01*
X225548951Y-33438117D01*
X225615026Y-33641480D01*
X225615027Y-33641483D01*
X225712106Y-33832009D01*
X225837794Y-34005004D01*
X225988996Y-34156206D01*
X226161991Y-34281894D01*
X226165873Y-34284273D01*
X226212748Y-34336086D01*
X226224169Y-34405016D01*
X226196512Y-34469178D01*
X226165873Y-34495727D01*
X226161991Y-34498105D01*
X225988993Y-34623796D01*
X225837796Y-34774993D01*
X225712106Y-34947990D01*
X225615027Y-35138516D01*
X225615026Y-35138519D01*
X225548951Y-35341882D01*
X225515500Y-35553084D01*
X225515500Y-35766915D01*
X225548951Y-35978117D01*
X225615026Y-36181480D01*
X225615027Y-36181483D01*
X225712106Y-36372009D01*
X225837794Y-36545004D01*
X225988996Y-36696206D01*
X226155281Y-36817019D01*
X226161991Y-36821894D01*
X226165873Y-36824273D01*
X226212748Y-36876086D01*
X226224169Y-36945016D01*
X226196512Y-37009178D01*
X226165873Y-37035727D01*
X226161991Y-37038105D01*
X225988993Y-37163796D01*
X225837796Y-37314993D01*
X225712106Y-37487990D01*
X225615027Y-37678516D01*
X225615026Y-37678519D01*
X225548951Y-37881882D01*
X225515500Y-38093084D01*
X225515500Y-38306915D01*
X225548951Y-38518117D01*
X225615026Y-38721480D01*
X225615027Y-38721483D01*
X225712106Y-38912009D01*
X225837794Y-39085004D01*
X225988996Y-39236206D01*
X226100226Y-39317019D01*
X226161992Y-39361895D01*
X226166683Y-39364285D01*
X226217480Y-39412259D01*
X226234275Y-39480080D01*
X226211738Y-39546215D01*
X226170212Y-39582202D01*
X226170598Y-39582832D01*
X226166803Y-39585157D01*
X226166701Y-39585246D01*
X226166448Y-39585374D01*
X226166446Y-39585376D01*
X225994540Y-39710272D01*
X225994535Y-39710276D01*
X225844276Y-39860535D01*
X225844272Y-39860540D01*
X225719379Y-40032442D01*
X225622904Y-40221782D01*
X225557242Y-40423870D01*
X225557242Y-40423873D01*
X225546769Y-40490000D01*
X226440988Y-40490000D01*
X226408075Y-40547007D01*
X226374000Y-40674174D01*
X226374000Y-40805826D01*
X226408075Y-40932993D01*
X226440988Y-40990000D01*
X225546769Y-40990000D01*
X225557242Y-41056126D01*
X225557242Y-41056129D01*
X225622904Y-41258217D01*
X225719379Y-41447557D01*
X225844272Y-41619459D01*
X225844276Y-41619464D01*
X225951727Y-41726915D01*
X225985212Y-41788238D01*
X225980228Y-41857930D01*
X225938356Y-41913863D01*
X225907381Y-41930777D01*
X225777795Y-41979111D01*
X225660739Y-42066739D01*
X225573111Y-42183795D01*
X225522011Y-42320795D01*
X225522011Y-42320797D01*
X225515500Y-42381345D01*
X225515500Y-44178654D01*
X225522011Y-44239202D01*
X225522011Y-44239204D01*
X225573111Y-44376204D01*
X225660739Y-44493261D01*
X225777796Y-44580889D01*
X225914799Y-44631989D01*
X225942050Y-44634918D01*
X225975345Y-44638499D01*
X225975362Y-44638500D01*
X227772638Y-44638500D01*
X227772654Y-44638499D01*
X227799692Y-44635591D01*
X227833201Y-44631989D01*
X227970204Y-44580889D01*
X228087261Y-44493261D01*
X228174889Y-44376204D01*
X228225989Y-44239201D01*
X228229591Y-44205692D01*
X228232499Y-44178654D01*
X228232500Y-44178637D01*
X228232500Y-42381362D01*
X228232499Y-42381345D01*
X228228656Y-42345606D01*
X228225989Y-42320799D01*
X228174889Y-42183796D01*
X228087261Y-42066739D01*
X227970204Y-41979111D01*
X227970202Y-41979110D01*
X227970204Y-41979110D01*
X227840619Y-41930777D01*
X227784685Y-41888906D01*
X227760269Y-41823441D01*
X227775121Y-41755168D01*
X227796272Y-41726914D01*
X227903728Y-41619458D01*
X228028620Y-41447557D01*
X228125095Y-41258217D01*
X228190757Y-41056129D01*
X228190757Y-41056126D01*
X228201231Y-40990000D01*
X227307012Y-40990000D01*
X227339925Y-40932993D01*
X227374000Y-40805826D01*
X227374000Y-40674174D01*
X227339925Y-40547007D01*
X227307012Y-40490000D01*
X228201231Y-40490000D01*
X228190757Y-40423873D01*
X228190757Y-40423870D01*
X228125095Y-40221782D01*
X228028620Y-40032442D01*
X227903727Y-39860540D01*
X227903723Y-39860535D01*
X227753464Y-39710276D01*
X227753459Y-39710272D01*
X227581553Y-39585376D01*
X227581554Y-39585376D01*
X227581308Y-39585251D01*
X227581231Y-39585178D01*
X227577402Y-39582832D01*
X227577895Y-39582027D01*
X227530515Y-39537274D01*
X227513724Y-39469451D01*
X227536266Y-39403318D01*
X227581319Y-39364283D01*
X227586009Y-39361894D01*
X227759004Y-39236206D01*
X227910206Y-39085004D01*
X228035894Y-38912009D01*
X228132972Y-38721483D01*
X228199049Y-38518116D01*
X228232500Y-38306916D01*
X228232500Y-38093084D01*
X228199049Y-37881884D01*
X228132972Y-37678517D01*
X228132972Y-37678516D01*
X228040989Y-37497991D01*
X228035894Y-37487991D01*
X227910206Y-37314996D01*
X227759004Y-37163794D01*
X227599773Y-37048106D01*
X227586005Y-37038103D01*
X227582132Y-37035730D01*
X227559974Y-37011241D01*
X227537036Y-36987464D01*
X227536634Y-36985446D01*
X227535254Y-36983920D01*
X227529851Y-36951325D01*
X227523412Y-36918935D01*
X227524165Y-36917020D01*
X227523829Y-36914991D01*
X227536904Y-36884652D01*
X227549000Y-36853920D01*
X227550871Y-36852244D01*
X227551483Y-36850827D01*
X227574400Y-36829415D01*
X227581995Y-36823938D01*
X227586009Y-36821894D01*
X227592719Y-36817019D01*
X229191500Y-36817019D01*
X229191500Y-37022981D01*
X229193896Y-37038106D01*
X229223719Y-37226408D01*
X229287367Y-37422294D01*
X229380873Y-37605806D01*
X229501926Y-37772423D01*
X229501930Y-37772428D01*
X229647571Y-37918069D01*
X229647576Y-37918073D01*
X229792908Y-38023661D01*
X229814197Y-38039129D01*
X229920089Y-38093084D01*
X229997705Y-38132632D01*
X229997707Y-38132632D01*
X229997710Y-38132634D01*
X230102707Y-38166749D01*
X230193591Y-38196280D01*
X230263592Y-38207367D01*
X230397019Y-38228500D01*
X230397020Y-38228500D01*
X230602980Y-38228500D01*
X230602981Y-38228500D01*
X230806408Y-38196280D01*
X231002290Y-38132634D01*
X231185803Y-38039129D01*
X231352430Y-37918068D01*
X231498068Y-37772430D01*
X231619129Y-37605803D01*
X231712634Y-37422290D01*
X231776280Y-37226408D01*
X231808500Y-37022981D01*
X231808500Y-36817019D01*
X231789365Y-36696206D01*
X231776280Y-36613591D01*
X231712632Y-36417705D01*
X231678709Y-36351128D01*
X231619129Y-36234197D01*
X231580828Y-36181480D01*
X231498073Y-36067576D01*
X231498069Y-36067571D01*
X231352428Y-35921930D01*
X231352423Y-35921926D01*
X231185806Y-35800873D01*
X231185805Y-35800872D01*
X231185803Y-35800871D01*
X231119161Y-35766915D01*
X231002294Y-35707367D01*
X230806408Y-35643719D01*
X230630794Y-35615905D01*
X230602981Y-35611500D01*
X230397019Y-35611500D01*
X230372550Y-35615375D01*
X230193591Y-35643719D01*
X229997705Y-35707367D01*
X229814193Y-35800873D01*
X229647576Y-35921926D01*
X229647571Y-35921930D01*
X229501930Y-36067571D01*
X229501926Y-36067576D01*
X229380873Y-36234193D01*
X229287367Y-36417705D01*
X229223719Y-36613591D01*
X229191500Y-36817019D01*
X227592719Y-36817019D01*
X227759004Y-36696206D01*
X227910206Y-36545004D01*
X228035894Y-36372009D01*
X228132972Y-36181483D01*
X228199049Y-35978116D01*
X228232500Y-35766916D01*
X228232500Y-35553084D01*
X228199049Y-35341884D01*
X228154273Y-35204075D01*
X228132973Y-35138519D01*
X228132972Y-35138516D01*
X228035893Y-34947990D01*
X227910206Y-34774996D01*
X227759004Y-34623794D01*
X227586009Y-34498106D01*
X227586005Y-34498103D01*
X227582132Y-34495730D01*
X227535254Y-34443920D01*
X227523829Y-34374991D01*
X227551483Y-34310827D01*
X227582132Y-34284270D01*
X227586005Y-34281896D01*
X227586004Y-34281896D01*
X227586009Y-34281894D01*
X227759004Y-34156206D01*
X227910206Y-34005004D01*
X228035894Y-33832009D01*
X228132972Y-33641483D01*
X228199049Y-33438116D01*
X228232500Y-33226916D01*
X228232500Y-33013084D01*
X228199049Y-32801884D01*
X228132972Y-32598517D01*
X228132972Y-32598516D01*
X228035893Y-32407990D01*
X227910206Y-32234996D01*
X227759004Y-32083794D01*
X227586009Y-31958106D01*
X227586005Y-31958103D01*
X227582132Y-31955730D01*
X227535254Y-31903920D01*
X227523829Y-31834991D01*
X227551483Y-31770827D01*
X227582132Y-31744270D01*
X227586005Y-31741896D01*
X227586004Y-31741896D01*
X227586009Y-31741894D01*
X227759004Y-31616206D01*
X227910206Y-31465004D01*
X228035894Y-31292009D01*
X228132972Y-31101483D01*
X228199049Y-30898116D01*
X228232500Y-30686916D01*
X228232500Y-30473084D01*
X228199049Y-30261884D01*
X228132972Y-30058517D01*
X228132972Y-30058516D01*
X228035893Y-29867990D01*
X227910206Y-29694996D01*
X227759004Y-29543794D01*
X227586009Y-29418106D01*
X227586005Y-29418103D01*
X227582132Y-29415730D01*
X227535254Y-29363920D01*
X227523829Y-29294991D01*
X227551483Y-29230827D01*
X227582132Y-29204270D01*
X227586005Y-29201896D01*
X227586004Y-29201896D01*
X227586009Y-29201894D01*
X227759004Y-29076206D01*
X227910206Y-28925004D01*
X228035894Y-28752009D01*
X228132972Y-28561483D01*
X228199049Y-28358116D01*
X228232500Y-28146916D01*
X228232500Y-27933084D01*
X228199049Y-27721884D01*
X228132972Y-27518517D01*
X228132972Y-27518516D01*
X228035893Y-27327990D01*
X227910206Y-27154996D01*
X227759004Y-27003794D01*
X227586009Y-26878106D01*
X227586005Y-26878103D01*
X227582132Y-26875730D01*
X227559936Y-26851199D01*
X227536980Y-26827357D01*
X227536592Y-26825399D01*
X227535254Y-26823920D01*
X227529844Y-26791284D01*
X227523422Y-26758815D01*
X227524155Y-26756957D01*
X227523829Y-26754991D01*
X227536921Y-26724614D01*
X227549074Y-26693824D01*
X227550891Y-26692198D01*
X227551483Y-26690827D01*
X227561044Y-26681902D01*
X269499500Y-26681902D01*
X269499500Y-26918097D01*
X269536446Y-27151368D01*
X269609433Y-27375996D01*
X269682052Y-27518517D01*
X269716657Y-27586433D01*
X269855483Y-27777510D01*
X270022490Y-27944517D01*
X270213567Y-28083343D01*
X270312991Y-28134002D01*
X270424003Y-28190566D01*
X270424005Y-28190566D01*
X270424008Y-28190568D01*
X270544412Y-28229689D01*
X270648631Y-28263553D01*
X270881903Y-28300500D01*
X270881908Y-28300500D01*
X271118097Y-28300500D01*
X271351368Y-28263553D01*
X271575992Y-28190568D01*
X271786433Y-28083343D01*
X271977510Y-27944517D01*
X272144517Y-27777510D01*
X272283343Y-27586433D01*
X272390568Y-27375992D01*
X272463553Y-27151368D01*
X272486926Y-27003796D01*
X272500500Y-26918097D01*
X272500500Y-26681902D01*
X272463553Y-26448631D01*
X272390566Y-26224003D01*
X272287376Y-26021483D01*
X272283343Y-26013567D01*
X272144517Y-25822490D01*
X271977510Y-25655483D01*
X271786433Y-25516657D01*
X271575996Y-25409433D01*
X271351368Y-25336446D01*
X271118097Y-25299500D01*
X271118092Y-25299500D01*
X270881908Y-25299500D01*
X270881903Y-25299500D01*
X270648631Y-25336446D01*
X270424003Y-25409433D01*
X270213566Y-25516657D01*
X270104550Y-25595862D01*
X270022490Y-25655483D01*
X270022488Y-25655485D01*
X270022487Y-25655485D01*
X269855485Y-25822487D01*
X269855485Y-25822488D01*
X269855483Y-25822490D01*
X269795862Y-25904550D01*
X269716657Y-26013566D01*
X269609433Y-26224003D01*
X269536446Y-26448631D01*
X269499500Y-26681902D01*
X227561044Y-26681902D01*
X227574498Y-26669344D01*
X227582046Y-26663912D01*
X227586009Y-26661894D01*
X227759004Y-26536206D01*
X227910206Y-26385004D01*
X228035894Y-26212009D01*
X228132972Y-26021483D01*
X228199049Y-25818116D01*
X228232500Y-25606916D01*
X228232500Y-25393084D01*
X228199049Y-25181884D01*
X228132972Y-24978517D01*
X228132972Y-24978516D01*
X228035893Y-24787990D01*
X227910206Y-24614996D01*
X227759004Y-24463794D01*
X227586009Y-24338106D01*
X227586005Y-24338103D01*
X227582132Y-24335730D01*
X227535254Y-24283920D01*
X227523829Y-24214991D01*
X227551483Y-24150827D01*
X227582132Y-24124270D01*
X227586005Y-24121896D01*
X227586004Y-24121896D01*
X227586009Y-24121894D01*
X227759004Y-23996206D01*
X227910206Y-23845004D01*
X228035894Y-23672009D01*
X228132972Y-23481483D01*
X228199049Y-23278116D01*
X228232500Y-23066916D01*
X228232500Y-22853084D01*
X228199049Y-22641884D01*
X228132972Y-22438517D01*
X228132972Y-22438516D01*
X228035893Y-22247990D01*
X227910206Y-22074996D01*
X227759004Y-21923794D01*
X227586009Y-21798106D01*
X227395483Y-21701027D01*
X227395480Y-21701026D01*
X227192117Y-21634951D01*
X227044975Y-21611646D01*
X226980916Y-21601500D01*
X226767084Y-21601500D01*
X226717294Y-21609386D01*
X226555882Y-21634951D01*
X226352519Y-21701026D01*
X226352516Y-21701027D01*
X226161990Y-21798106D01*
X225988993Y-21923796D01*
X225837796Y-22074993D01*
X225712106Y-22247990D01*
X225615027Y-22438516D01*
X225615026Y-22438519D01*
X225548951Y-22641882D01*
X225515500Y-22853084D01*
X212484500Y-22853084D01*
X212451049Y-22641884D01*
X212384972Y-22438517D01*
X212384972Y-22438516D01*
X212287893Y-22247990D01*
X212162206Y-22074996D01*
X212011004Y-21923794D01*
X211838009Y-21798106D01*
X211647483Y-21701027D01*
X211647480Y-21701026D01*
X211444117Y-21634951D01*
X211296975Y-21611646D01*
X211232916Y-21601500D01*
X211019084Y-21601500D01*
X210969294Y-21609386D01*
X210807882Y-21634951D01*
X210604519Y-21701026D01*
X210604516Y-21701027D01*
X210413990Y-21798106D01*
X210240993Y-21923796D01*
X210089796Y-22074993D01*
X209964106Y-22247990D01*
X209867027Y-22438516D01*
X209867026Y-22438519D01*
X209800951Y-22641882D01*
X209767500Y-22853084D01*
X188268989Y-22853084D01*
X188547623Y-22553811D01*
X188553811Y-22547623D01*
X188913080Y-22213130D01*
X188919729Y-22207369D01*
X189301918Y-21899382D01*
X189308998Y-21894083D01*
X189712170Y-21614155D01*
X189719554Y-21609409D01*
X190141724Y-21358924D01*
X190149436Y-21354714D01*
X190474822Y-21191837D01*
X190588346Y-21135012D01*
X190596391Y-21131337D01*
X191049851Y-20943508D01*
X191058123Y-20940424D01*
X191523822Y-20785423D01*
X191532286Y-20782938D01*
X192007877Y-20661551D01*
X192016473Y-20659680D01*
X192499532Y-20572527D01*
X192508240Y-20571274D01*
X192996284Y-20518804D01*
X193005073Y-20518176D01*
X193497788Y-20500578D01*
X193502214Y-20500500D01*
X274997786Y-20500500D01*
X275002211Y-20500578D01*
G37*
%TD.AperFunction*%
%TD*%
M02*
