%TF.GenerationSoftware,KiCad,Pcbnew,10.0.5-10.0.5~ubuntu22.04.1*%
%TF.CreationDate,2026-08-01T17:21:11+02:00*%
%TF.ProjectId,swirski-terminal-v1-pcb,73776972-736b-4692-9d74-65726d696e61,rev?*%
%TF.SameCoordinates,Original*%
%TF.FileFunction,Soldermask,Top*%
%TF.FilePolarity,Negative*%
%FSLAX46Y46*%
G04 Gerber Fmt 4.6, Leading zero omitted, Abs format (unit mm)*
G04 Created by KiCad (PCBNEW 10.0.5-10.0.5~ubuntu22.04.1) date 2026-08-01 17:21:11*
%MOMM*%
%LPD*%
G01*
G04 APERTURE LIST*
G04 Aperture macros list*
%AMRoundRect*
0 Rectangle with rounded corners*
0 $1 Rounding radius*
0 $2 $3 $4 $5 $6 $7 $8 $9 X,Y pos of 4 corners*
0 Add a 4 corners polygon primitive as box body*
4,1,4,$2,$3,$4,$5,$6,$7,$8,$9,$2,$3,0*
0 Add four circle primitives for the rounded corners*
1,1,$1+$1,$2,$3*
1,1,$1+$1,$4,$5*
1,1,$1+$1,$6,$7*
1,1,$1+$1,$8,$9*
0 Add four rect primitives between the rounded corners*
20,1,$1+$1,$2,$3,$4,$5,0*
20,1,$1+$1,$4,$5,$6,$7,0*
20,1,$1+$1,$6,$7,$8,$9,0*
20,1,$1+$1,$8,$9,$2,$3,0*%
G04 Aperture macros list end*
%ADD10C,2.500000*%
%ADD11R,1.700000X1.700000*%
%ADD12O,1.700000X1.700000*%
%ADD13C,2.000000*%
%ADD14R,2.000000X2.000000*%
%ADD15R,3.200000X2.000000*%
%ADD16C,1.700000*%
%ADD17C,2.540000*%
%ADD18R,1.050000X1.500000*%
%ADD19O,1.050000X1.500000*%
%ADD20RoundRect,0.250000X0.550000X-0.550000X0.550000X0.550000X-0.550000X0.550000X-0.550000X-0.550000X0*%
%ADD21C,1.600000*%
%ADD22RoundRect,0.249999X0.850001X0.850001X-0.850001X0.850001X-0.850001X-0.850001X0.850001X-0.850001X0*%
%ADD23C,2.200000*%
%ADD24RoundRect,0.250000X-0.550000X0.550000X-0.550000X-0.550000X0.550000X-0.550000X0.550000X0.550000X0*%
G04 APERTURE END LIST*
D10*
%TO.C,U5*%
X197340000Y-72500000D03*
X271000000Y-72500000D03*
X197320000Y-26800000D03*
X271000000Y-26800000D03*
D11*
X190970000Y-33130000D03*
D12*
X190970000Y-35670000D03*
X190970000Y-38210000D03*
X190970000Y-40750000D03*
X190970000Y-43290000D03*
X190970000Y-45830000D03*
X190970000Y-48370000D03*
X190970000Y-50910000D03*
X190970000Y-53450000D03*
X190970000Y-55990000D03*
X190970000Y-58530000D03*
X190970000Y-61070000D03*
X190970000Y-63610000D03*
X190970000Y-66150000D03*
%TD*%
D13*
%TO.C,SW3*%
X200500000Y-81500000D03*
X207000000Y-81500000D03*
X200500000Y-86000000D03*
X207000000Y-86000000D03*
%TD*%
%TO.C,SW2*%
X254000000Y-82000000D03*
X260500000Y-82000000D03*
X254000000Y-86500000D03*
X260500000Y-86500000D03*
%TD*%
D14*
%TO.C,SW1*%
X224000000Y-82000000D03*
D13*
X224000000Y-87000000D03*
X224000000Y-84500000D03*
D15*
X231500000Y-78900000D03*
X231500000Y-90100000D03*
D13*
X238500000Y-87000000D03*
X238500000Y-82000000D03*
%TD*%
%TO.C,TP_5V_SYS1*%
X215500000Y-58000000D03*
%TD*%
D11*
%TO.C,J_VIB1*%
X240225000Y-55500000D03*
D16*
X242765000Y-55500000D03*
%TD*%
D11*
%TO.C,JP1*%
X197275000Y-54000000D03*
D16*
X194735000Y-54000000D03*
%TD*%
D17*
%TO.C,U2*%
X254832000Y-54816500D03*
X254705000Y-77422500D03*
X271215000Y-55832500D03*
X271215000Y-76787500D03*
D11*
X254705000Y-72342500D03*
D16*
X254705000Y-69802500D03*
X254705000Y-67262500D03*
X254705000Y-64722500D03*
X254705000Y-62182500D03*
X254705000Y-59642500D03*
%TD*%
D18*
%TO.C,Q3*%
X194460000Y-49000000D03*
D19*
X195730000Y-49000000D03*
X197000000Y-49000000D03*
%TD*%
D20*
%TO.C,C4*%
X206500000Y-58000000D03*
D21*
X206500000Y-56000000D03*
%TD*%
%TO.C,R9*%
X226920000Y-57500000D03*
X237080000Y-57500000D03*
%TD*%
D13*
%TO.C,TP_3V3_ESP1*%
X250000000Y-61000000D03*
%TD*%
D21*
%TO.C,R1*%
X207000000Y-39420000D03*
X207000000Y-49580000D03*
%TD*%
D11*
%TO.C,U1*%
X264151000Y-47162000D03*
D12*
X261611000Y-47162000D03*
X259071000Y-47162000D03*
X256531000Y-47162000D03*
X253991000Y-47162000D03*
X251451000Y-47162000D03*
X248911000Y-47162000D03*
D16*
X246371000Y-47162000D03*
%TD*%
D21*
%TO.C,R8*%
X202000000Y-56580000D03*
X202000000Y-46420000D03*
%TD*%
%TO.C,R6*%
X230500000Y-36920000D03*
X230500000Y-47080000D03*
%TD*%
%TO.C,C5*%
X199000000Y-42500000D03*
X204000000Y-42500000D03*
%TD*%
D16*
%TO.C,U3*%
X211126000Y-43280000D03*
D12*
X211126000Y-40740000D03*
X211126000Y-38200000D03*
X211126000Y-35660000D03*
X211126000Y-33120000D03*
X211126000Y-30580000D03*
X211126000Y-28040000D03*
X211126000Y-25500000D03*
X211126000Y-22960000D03*
X226874000Y-22960000D03*
X226874000Y-25500000D03*
X226874000Y-28040000D03*
X226874000Y-30580000D03*
X226874000Y-33120000D03*
X226874000Y-35660000D03*
X226874000Y-38200000D03*
X226874000Y-40740000D03*
D11*
X226874000Y-43280000D03*
%TD*%
D18*
%TO.C,Q2*%
X231230000Y-52640000D03*
D19*
X232500000Y-52640000D03*
X233770000Y-52640000D03*
%TD*%
D13*
%TO.C,TP_ESP_5V1*%
X226500000Y-48500000D03*
%TD*%
%TO.C,TP_3V3_SYS1*%
X246500000Y-55500000D03*
%TD*%
D22*
%TO.C,D2*%
X247000000Y-52000000D03*
D23*
X236840000Y-52000000D03*
%TD*%
D24*
%TO.C,U4*%
X220840000Y-65695000D03*
D21*
X223380000Y-65695000D03*
X225920000Y-65695000D03*
X228460000Y-65695000D03*
X231000000Y-65695000D03*
X233540000Y-65695000D03*
X236080000Y-65695000D03*
X238620000Y-65695000D03*
X241160000Y-65695000D03*
X241160000Y-73315000D03*
X238620000Y-73315000D03*
X236080000Y-73315000D03*
X233540000Y-73315000D03*
X231000000Y-73315000D03*
X228460000Y-73315000D03*
X225920000Y-73315000D03*
X223380000Y-73315000D03*
X220840000Y-73315000D03*
%TD*%
D22*
%TO.C,D1*%
X226500000Y-54000000D03*
D23*
X216340000Y-54000000D03*
%TD*%
D13*
%TO.C,TP_GND1*%
X231500000Y-61000000D03*
%TD*%
D21*
%TO.C,C6*%
X247500000Y-66000000D03*
X247500000Y-71000000D03*
%TD*%
%TO.C,R5*%
X244500000Y-63000000D03*
X234340000Y-63000000D03*
%TD*%
M02*
